{
.appVersion = "895";
DisplayStrings = (
fi,
/fi,
/f_f_i,
" +  -",
/Schwa/schwa,
"\012/schwa \012iii iii  \012iii iii \012minimum \012m n mum\012poiret one"
);
classes = (
{
automatic = 1;

glyphs = (
{
glyphname = A;
lastChange = "2016-07-08 17:02:49 +0000";
layers = (
{
anchors = (
{
name = bottom;
position = "{405, 0}";
},
{
name = ogonek;
position = "{728, 10}";
},
{
name = top;
position = "{405, 750}";
}
);
layerId = "6418A72B-B7AF-4A99-B2A7-67092BA5BFD7";
paths = (
{
closed = 1;
nodes = (
"410 712 LINE",
"394 712 LINE",
"590 315 LINE",
"206 315 LINE",
"193 286 LINE",
"602 286 LINE",
"744 0 LINE",
"779 0 LINE",
"404 768 LINE",
"30 0 LINE",
"65 0 LINE"
);
}
);
width = 809;
}
);
leftKerningGroup = A;
note = A;
rightKerningGroup = A;
unicode = 0041;
},
{
glyphname = Agrave;
lastChange = "2016-07-08 17:02:49 +0000";
layers = (
{
layerId = "6418A72B-B7AF-4A99-B2A7-67092BA5BFD7";
paths = (
{
closed = 1;
nodes = (
"61 0 LINE",
"201 286 LINE",
"602 286 LINE",
"744 0 LINE",
"779 0 LINE",
"404 768 LINE",
"30 0 LINE"
);
},
{
closed = 1;
nodes = (
"214 315 LINE",
"401 699 LINE",
"590 315 LINE"
);
},
{
closed = 1;
nodes = (
"495 829 LINE",
"355 944 LINE",
"314 944 LINE",
"453 829 LINE"
);
}
);
width = 809;
}
);
leftKerningGroup = A;
note = Agrave;
rightKerningGroup = A;
unicode = 00C0;
},
{
glyphname = Amacron;
lastChange = "2016-07-08 17:02:49 +0000";
layers = (
{
layerId = "6418A72B-B7AF-4A99-B2A7-67092BA5BFD7";
paths = (
{
closed = 1;
nodes = (
"51 0 LINE",
"191 286 LINE",
"592 286 LINE",
"734 0 LINE",
"769 0 LINE",
"394 768 LINE",
"20 0 LINE"
);
},
{
closed = 1;
nodes = (
"204 315 LINE",
"391 699 LINE",
"580 315 LINE"
);
}
);
width = 789;
}
);
leftKerningGroup = A;
note = Amacron;
rightKerningGroup = A;
unicode = 0100;
},
{
glyphname = AE;
lastChange = "2016-07-08 17:02:49 +0000";
layers = (
{
anchors = (
{
name = bottom;
position = "{346, 0}";
},
{
name = top;
position = "{474, 750}";
}
);
layerId = "6418A72B-B7AF-4A99-B2A7-67092BA5BFD7";
paths = (
{
closed = 1;
nodes = (
"397 680 LINE",
"397 315 LINE",
"201 315 LINE",
"188 286 LINE",
"397 286 LINE",
"397 0 LINE",
"666 0 LINE",
"666 29 LINE",
"430 29 LINE",
"430 287 LINE",
"627 287 LINE",
"627 316 LINE",
"430 316 LINE",
"430 721 LINE",
"666 721 LINE",
"666 750 LINE",
"397 750 LINE",
"25 0 LINE",
"62 0 LINE"
);
}
);
width = 691;
}
);
leftKerningGroup = A;
note = AE;
rightKerningGroup = E;
unicode = 00C6;
},
{
glyphname = B;
lastChange = "2016-07-09 15:29:26 +0000";
layers = (
{
layerId = "6418A72B-B7AF-4A99-B2A7-67092BA5BFD7";
paths = (
{
closed = 1;
nodes = (
"107 0 LINE SMOOTH",
"247 0 OFFCURVE",
"357 104 OFFCURVE",
"357 237 CURVE SMOOTH",
"357 383 OFFCURVE",
"293 458 OFFCURVE",
"178 477 CURVE",
"224 494 OFFCURVE",
"260 550 OFFCURVE",
"260 606 CURVE SMOOTH",
"260 698 OFFCURVE",
"205 750 OFFCURVE",
"107 750 CURVE SMOOTH",
"75 750 LINE",
"75 0 LINE"
);
},
{
closed = 1;
nodes = (
"250 459 OFFCURVE",
"326 382 OFFCURVE",
"326 244 CURVE SMOOTH",
"326 123 OFFCURVE",
"233 28 OFFCURVE",
"115 28 CURVE SMOOTH",
"107 28 LINE",
"107 459 LINE",
"115 459 LINE SMOOTH"
);
},
{
closed = 1;
nodes = (
"188 722 OFFCURVE",
"229 681 OFFCURVE",
"229 607 CURVE SMOOTH",
"229 539 OFFCURVE",
"179 486 OFFCURVE",
"115 486 CURVE SMOOTH",
"107 486 LINE",
"107 722 LINE",
"115 722 LINE SMOOTH"
);
}
);
width = 397;
}
);
leftKerningGroup = H;
note = B;
rightKerningGroup = B;
unicode = 0042;
},
{
glyphname = C;
lastChange = "2016-07-08 17:06:03 +0000";
layers = (
{
anchors = (
{
name = bottom;
position = "{409, 0}";
},
{
name = top;
position = "{439, 750}";
}
);
layerId = "6418A72B-B7AF-4A99-B2A7-67092BA5BFD7";
paths = (
{
closed = 1;
nodes = (
"509 -20 OFFCURVE",
"574 -3 OFFCURVE",
"638 36 CURVE",
"638 73 LINE",
"575 30 OFFCURVE",
"516 9 OFFCURVE",
"425 9 CURVE SMOOTH",
"239 9 OFFCURVE",
"78 175 OFFCURVE",
"78 374 CURVE SMOOTH",
"78 570 OFFCURVE",
"233 741 OFFCURVE",
"435 741 CURVE SMOOTH",
"527 741 OFFCURVE",
"575 720 OFFCURVE",
"638 677 CURVE",
"638 714 LINE",
"574 751 OFFCURVE",
"533 770 OFFCURVE",
"432 770 CURVE SMOOTH",
"228 770 OFFCURVE",
"45 601 OFFCURVE",
"45 377 CURVE SMOOTH",
"45 146 OFFCURVE",
"218 -20 OFFCURVE",
"429 -20 CURVE SMOOTH"
);
}
);
width = 698;
},
{
associatedMasterId = "6418A72B-B7AF-4A99-B2A7-67092BA5BFD7";
layerId = "CDC60363-4EE9-4F10-B83A-0C7927044CEF";
name = "Regular Jul 8 16, 10:45";
paths = (
{
closed = 1;
nodes = (
"511 -11 OFFCURVE",
"577 8 OFFCURVE",
"638 45 CURVE",
"638 82 LINE",
"575 39 OFFCURVE",
"508 18 OFFCURVE",
"435 18 CURVE SMOOTH",
"239 18 OFFCURVE",
"78 181 OFFCURVE",
"78 378 CURVE SMOOTH",
"78 574 OFFCURVE",
"239 736 OFFCURVE",
"435 736 CURVE SMOOTH",
"508 736 OFFCURVE",
"575 715 OFFCURVE",
"638 672 CURVE",
"638 709 LINE",
"574 746 OFFCURVE",
"506 765 OFFCURVE",
"435 765 CURVE SMOOTH",
"222 765 OFFCURVE",
"45 589 OFFCURVE",
"45 377 CURVE SMOOTH",
"45 310 OFFCURVE",
"62 246 OFFCURVE",
"97 187 CURVE SMOOTH",
"165 67 OFFCURVE",
"292 -11 OFFCURVE",
"429 -11 CURVE SMOOTH",
"440 -11 LINE SMOOTH"
);
}
);
width = 698;
}
);
leftKerningGroup = O;
note = C;
rightKerningGroup = C;
unicode = 0043;
},
{
glyphname = D;
lastChange = "2016-07-09 16:35:11 +0000";
layers = (
{
anchors = (
{
name = bottom;
position = "{263, 0}";
},
{
name = center;
position = "{263, 375}";
},
{
name = top;
position = "{248, 750}";
}
);
background = {
paths = (
{
closed = 1;
nodes = (
"107 0 LINE SMOOTH",
"332 0 OFFCURVE",
"481 169 OFFCURVE",
"481 375 CURVE SMOOTH",
"481 581 OFFCURVE",
"331 750 OFFCURVE",
"107 750 CURVE SMOOTH",
"75 750 LINE",
"75 0 LINE"
);
},
{
closed = 1;
nodes = (
"310 720 OFFCURVE",
"448 563 OFFCURVE",
"448 375 CURVE SMOOTH",
"448 186 OFFCURVE",
"310 31 OFFCURVE",
"115 31 CURVE SMOOTH",
"107 31 LINE",
"107 720 LINE",
"115 720 LINE SMOOTH"
);
}
);
};
layerId = "6418A72B-B7AF-4A99-B2A7-67092BA5BFD7";
paths = (
{
closed = 1;
nodes = (
"107 0 LINE SMOOTH",
"316 0 OFFCURVE",
"481 165 OFFCURVE",
"481 375 CURVE SMOOTH",
"481 615 OFFCURVE",
"346 750 OFFCURVE",
"107 750 CURVE SMOOTH",
"75 750 LINE",
"75 0 LINE"
);
},
{
closed = 1;
nodes = (
"328 720 OFFCURVE",
"448 596 OFFCURVE",
"448 375 CURVE SMOOTH",
"448 182 OFFCURVE",
"301 31 OFFCURVE",
"115 31 CURVE SMOOTH",
"107 31 LINE",
"107 720 LINE",
"115 720 LINE SMOOTH"
);
}
);
width = 526;
}
);
leftKerningGroup = H;
note = D;
rightKerningGroup = O;
unicode = 0044;
},
{
glyphname = Eth;
lastChange = "2016-07-08 17:02:49 +0000";
layers = (
{
layerId = "6418A72B-B7AF-4A99-B2A7-67092BA5BFD7";
paths = (
{
closed = 1;
nodes = (
"15 390 LINE",
"15 361 LINE",
"75 361 LINE",
"75 0 LINE",
"107 0 LINE SMOOTH",
"332 0 OFFCURVE",
"481 169 OFFCURVE",
"481 375 CURVE SMOOTH",
"481 581 OFFCURVE",
"331 750 OFFCURVE",
"107 750 CURVE SMOOTH",
"75 750 LINE",
"75 390 LINE"
);
},
{
closed = 1;
nodes = (
"310 720 OFFCURVE",
"448 563 OFFCURVE",
"448 375 CURVE SMOOTH",
"448 186 OFFCURVE",
"310 31 OFFCURVE",
"115 31 CURVE SMOOTH",
"107 31 LINE",
"107 361 LINE",
"231 361 LINE",
"231 390 LINE",
"107 390 LINE",
"107 720 LINE",
"115 720 LINE SMOOTH"
);
}
);
width = 526;
}
);
leftKerningGroup = H;
note = Eth;
rightKerningGroup = O;
unicode = 00D0;
},
{
glyphname = E;
lastChange = "2016-07-08 17:14:31 +0000";
layers = (
{
anchors = (
{
name = bottom;
position = "{223, 0}";
},
{
name = ogonek;
position = "{341, 10}";
},
{
name = top;
position = "{225, 750}";
},
{
name = topleft;
position = "{75, 750}";
}
);
layerId = "6418A72B-B7AF-4A99-B2A7-67092BA5BFD7";
paths = (
{
closed = 1;
nodes = (
"344 0 LINE",
"344 29 LINE",
"108 29 LINE",
"108 284 LINE",
"305 284 LINE",
"305 313 LINE",
"108 313 LINE",
"108 721 LINE",
"344 721 LINE",
"344 750 LINE",
"75 750 LINE",
"75 0 LINE"
);
}
);
width = 369;
}
);
leftKerningGroup = H;
note = E;
rightKerningGroup = E;
unicode = 0045;
},
{
glyphname = Emacron;
lastChange = "2016-07-08 17:02:49 +0000";
layers = (
{
layerId = "6418A72B-B7AF-4A99-B2A7-67092BA5BFD7";
paths = (
{
closed = 1;
nodes = (
"344 0 LINE",
"344 29 LINE",
"108 29 LINE",
"108 284 LINE",
"305 284 LINE",
"305 313 LINE",
"108 313 LINE",
"108 721 LINE",
"344 721 LINE",
"344 750 LINE",
"75 750 LINE",
"75 0 LINE"
);
}
);
width = 369;
}
);
leftKerningGroup = H;
note = Emacron;
rightKerningGroup = E;
unicode = 0112;
},
{
glyphname = F;
lastChange = "2016-07-08 17:02:49 +0000";
layers = (
{
layerId = "6418A72B-B7AF-4A99-B2A7-67092BA5BFD7";
paths = (
{
closed = 1;
nodes = (
"108 0 LINE",
"108 286 LINE",
"303 286 LINE",
"303 315 LINE",
"108 315 LINE",
"108 721 LINE",
"342 721 LINE",
"342 750 LINE",
"75 750 LINE",
"75 0 LINE"
);
}
);
width = 367;
}
);
leftKerningGroup = H;
note = F;
rightKerningGroup = F;
unicode = 0046;
},
{
glyphname = G;
lastChange = "2016-07-08 17:02:49 +0000";
layers = (
{
anchors = (
{
name = bottom;
position = "{438, 0}";
},
{
name = top;
position = "{422, 750}";
}
);
background = {
components = (
{
name = C;
}
);
paths = (
{
closed = 1;
nodes = (
"638 315 LINE",
"357 315 LINE",
"357 286 LINE",
"605 286 LINE",
"605 47 LINE",
"638 44 LINE"
);
}
);
};
components = (
{
name = C;
}
);
layerId = "6418A72B-B7AF-4A99-B2A7-67092BA5BFD7";
paths = (
{
closed = 1;
nodes = (
"638 315 LINE",
"357 315 LINE",
"357 286 LINE",
"605 286 LINE",
"605 47 LINE",
"638 44 LINE"
);
}
);
width = 693;
}
);
leftKerningGroup = O;
note = G;
rightKerningGroup = G;
unicode = 0047;
},
{
glyphname = H;
lastChange = "2016-07-08 17:14:51 +0000";
layers = (
{
anchors = (
{
name = bottom;
position = "{365, 0}";
},
{
name = center;
position = "{365, 375}";
},
{
name = top;
position = "{365, 750}";
},
{
name = topleft;
position = "{20, 750}";
}
);
layerId = "6418A72B-B7AF-4A99-B2A7-67092BA5BFD7";
paths = (
{
closed = 1;
nodes = (
"108 315 LINE",
"108 750 LINE",
"75 750 LINE",
"75 0 LINE",
"108 0 LINE",
"108 286 LINE",
"622 286 LINE",
"622 0 LINE",
"655 0 LINE",
"655 750 LINE",
"622 750 LINE",
"622 315 LINE"
);
}
);
width = 730;
}
);
leftKerningGroup = H;
note = H;
rightKerningGroup = H;
unicode = 0048;
},
{
glyphname = Hbar;
lastChange = "2016-07-08 17:02:49 +0000";
layers = (
{
layerId = "6418A72B-B7AF-4A99-B2A7-67092BA5BFD7";
paths = (
{
closed = 1;
nodes = (
"108 558 LINE",
"108 750 LINE",
"75 750 LINE",
"75 558 LINE",
"20 558 LINE",
"20 529 LINE",
"75 529 LINE",
"75 0 LINE",
"108 0 LINE",
"108 286 LINE",
"622 286 LINE",
"622 0 LINE",
"655 0 LINE",
"655 529 LINE",
"711 529 LINE",
"711 558 LINE",
"655 558 LINE",
"655 750 LINE",
"622 750 LINE",
"622 558 LINE"
);
},
{
closed = 1;
nodes = (
"622 529 LINE",
"622 315 LINE",
"108 315 LINE",
"108 529 LINE"
);
}
);
width = 730;
}
);
leftKerningGroup = H;
note = Hbar;
rightKerningGroup = H;
unicode = 0126;
},
{
glyphname = I;
lastChange = "2016-07-08 17:06:28 +0000";
layers = (
{
anchors = (
{
name = bottom;
position = "{97, 0}";
},
{
name = ogonek;
position = "{174, 10}";
},
{
name = top;
position = "{97, 750}";
},
{
name = topleft;
position = "{20, 750}";
}
);
layerId = "6418A72B-B7AF-4A99-B2A7-67092BA5BFD7";
paths = (
{
closed = 1;
nodes = (
"113 0 LINE",
"113 750 LINE",
"80 750 LINE",
"80 0 LINE"
);
}
);
width = 193;
}
);
leftKerningGroup = H;
note = I;
rightKerningGroup = H;
unicode = 0049;
},
{
glyphname = Iogonek;
lastChange = "2016-07-08 17:02:49 +0000";
layers = (
{
layerId = "6418A72B-B7AF-4A99-B2A7-67092BA5BFD7";
paths = (
{
closed = 1;
nodes = (
"84 0 LINE",
"-2 -123 LINE",
"-2 -130 LINE SMOOTH",
"-2 -170 OFFCURVE",
"29 -200 OFFCURVE",
"73 -200 CURVE SMOOTH",
"113 -200 LINE",
"113 -175 LINE",
"75 -175 LINE SMOOTH",
"44 -175 OFFCURVE",
"25 -153 OFFCURVE",
"25 -125 CURVE",
"112 0 LINE",
"113 0 LINE",
"113 750 LINE",
"80 750 LINE",
"80 0 LINE"
);
}
);
width = 193;
}
);
leftKerningGroup = H;
note = Iogonek;
rightKerningGroup = H;
unicode = 012E;
},
{
glyphname = J;
lastChange = "2016-07-08 17:42:34 +0000";
layers = (
{
anchors = (
{
name = bottom;
position = "{234, 0}";
},
{
name = top;
position = "{301, 750}";
}
);
layerId = "6418A72B-B7AF-4A99-B2A7-67092BA5BFD7";
paths = (
{
closed = 1;
nodes = (
"359 226 LINE SMOOTH",
"359 82 OFFCURVE",
"288 14 OFFCURVE",
"171 14 CURVE SMOOTH",
"112 14 OFFCURVE",
"62 37 OFFCURVE",
"20 83 CURVE",
"20 42 LINE",
"67 2 OFFCURVE",
"115 -15 OFFCURVE",
"171 -15 CURVE SMOOTH",
"305 -15 OFFCURVE",
"392 65 OFFCURVE",
"392 230 CURVE SMOOTH",
"392 750 LINE",
"174 750 LINE",
"174 721 LINE",
"359 721 LINE"
);
}
);
width = 467;
}
);
leftKerningGroup = J;
note = J;
rightKerningGroup = J;
unicode = 004A;
},
{
glyphname = K;
lastChange = "2016-07-09 16:40:32 +0000";
layers = (
{
anchors = (
{
name = bottom;
position = "{286, 0}";
},
{
name = top;
position = "{286, 750}";
}
);
layerId = "6418A72B-B7AF-4A99-B2A7-67092BA5BFD7";
paths = (
{
closed = 1;
nodes = (
"84 442 LINE",
"505 0 LINE",
"549 0 LINE",
"84 485 LINE"
);
},
{
closed = 1;
nodes = (
"89 426 LINE",
"468 750 LINE",
"421 750 LINE",
"89 461 LINE"
);
},
{
closed = 1;
nodes = (
"108 750 LINE",
"75 750 LINE",
"75 0 LINE",
"108 0 LINE"
);
}
);
width = 572;
}
);
leftKerningGroup = H;
note = K;
rightKerningGroup = K;
unicode = 004B;
},
{
glyphname = L;
lastChange = "2016-07-08 17:46:54 +0000";
layers = (
{
anchors = (
{
name = bottom;
position = "{200, 0}";
},
{
name = center;
position = "{180, 375}";
},
{
name = top;
position = "{180, 750}";
},
{
name = topright;
position = "{340, 750}";
}
);
layerId = "6418A72B-B7AF-4A99-B2A7-67092BA5BFD7";
paths = (
{
closed = 1;
nodes = (
"75 0 LINE",
"340 0 LINE",
"340 29 LINE",
"108 29 LINE",
"108 750 LINE",
"75 750 LINE"
);
}
);
width = 360;
}
);
leftKerningGroup = H;
note = L;
rightKerningGroup = L;
unicode = 004C;
},
{
glyphname = Lcaron;
lastChange = "2016-07-08 17:02:49 +0000";
layers = (
{
layerId = "6418A72B-B7AF-4A99-B2A7-67092BA5BFD7";
paths = (
{
closed = 1;
nodes = (
"75 0 LINE",
"340 0 LINE",
"340 29 LINE",
"108 29 LINE",
"108 750 LINE",
"75 750 LINE"
);
},
{
closed = 1;
nodes = (
"287 702 LINE",
"289 708 OFFCURVE",
"290 713 OFFCURVE",
"290 718 CURVE SMOOTH",
"290 739 OFFCURVE",
"279 749 OFFCURVE",
"256 749 CURVE SMOOTH",
"233 749 OFFCURVE",
"221 739 OFFCURVE",
"221 718 CURVE SMOOTH",
"221 697 OFFCURVE",
"231 687 OFFCURVE",
"252 687 CURVE",
"252 631 LINE",
"256 631 LINE"
);
}
);
width = 360;
}
);
leftKerningGroup = H;
note = Lcaron;
rightKerningGroup = L;
unicode = 013D;
},
{
glyphname = Ldot;
lastChange = "2016-07-08 17:42:53 +0000";
layers = (
{
components = (
{
name = L;
},
{
name = periodcentered;
transform = "{1, 0, 0, 1, 155, 93}";
}
);
layerId = "6418A72B-B7AF-4A99-B2A7-67092BA5BFD7";
width = 360;
},
{
associatedMasterId = "6418A72B-B7AF-4A99-B2A7-67092BA5BFD7";
layerId = "D270B6F6-6BE9-499D-BE0C-FC2F4EF61531";
name = "Regular Jul 8 16, 13:42";
paths = (
{
closed = 1;
nodes = (
"75 0 LINE",
"340 0 LINE",
"340 29 LINE",
"108 29 LINE",
"108 750 LINE",
"75 750 LINE"
);
},
{
closed = 1;
nodes = (
"305 367 OFFCURVE",
"315 377 OFFCURVE",
"315 398 CURVE SMOOTH",
"315 419 OFFCURVE",
"305 429 OFFCURVE",
"284 429 CURVE SMOOTH",
"263 429 OFFCURVE",
"253 419 OFFCURVE",
"253 398 CURVE SMOOTH",
"253 377 OFFCURVE",
"263 367 OFFCURVE",
"284 367 CURVE SMOOTH"
);
}
);
width = 360;
}
);
leftKerningGroup = H;
note = Ldot;
rightKerningGroup = L;
unicode = 013F;
},
{
glyphname = Lslash;
lastChange = "2016-07-08 17:02:49 +0000";
layers = (
{
layerId = "6418A72B-B7AF-4A99-B2A7-67092BA5BFD7";
paths = (
{
closed = 1;
nodes = (
"75 288 LINE",
"8 221 LINE",
"28 201 LINE",
"75 248 LINE",
"75 0 LINE",
"340 0 LINE",
"340 29 LINE",
"108 29 LINE",
"108 281 LINE",
"248 421 LINE",
"228 441 LINE",
"108 321 LINE",
"108 750 LINE",
"75 750 LINE"
);
}
);
width = 360;
}
);
leftKerningGroup = H;
note = Lslash;
rightKerningGroup = L;
unicode = 0141;
},
{
glyphname = M;
lastChange = "2016-07-08 17:02:49 +0000";
layers = (
{
layerId = "6418A72B-B7AF-4A99-B2A7-67092BA5BFD7";
paths = (
{
closed = 1;
nodes = (
"453 45 LINE",
"463 42 LINE",
"119 750 LINE",
"72 750 LINE",
"72 0 LINE",
"105 0 LINE",
"105 711 LINE",
"457 -14 LINE",
"822 724 LINE",
"811 726 LINE",
"811 0 LINE",
"844 0 LINE",
"844 750 LINE",
"798 750 LINE"
);
}
);
width = 919;
}
);
leftKerningGroup = M;
note = M;
rightKerningGroup = M;
unicode = 004D;
},
{
glyphname = N;
lastChange = "2016-07-08 17:47:01 +0000";
layers = (
{
anchors = (
{
name = bottom;
position = "{346, 0}";
},
{
name = top;
position = "{366, 750}";
}
);
layerId = "6418A72B-B7AF-4A99-B2A7-67092BA5BFD7";
paths = (
{
closed = 1;
nodes = (
"75 761 LINE",
"75 0 LINE",
"104 0 LINE",
"104 675 LINE",
"656 -11 LINE",
"656 750 LINE",
"627 750 LINE",
"627 76 LINE"
);
}
);
width = 731;
}
);
leftKerningGroup = H;
note = N;
rightKerningGroup = H;
unicode = 004E;
},
{
glyphname = O;
lastChange = "2016-07-08 17:02:49 +0000";
layers = (
{
anchors = (
{
name = bottom;
position = "{435, 0}";
},
{
name = center;
position = "{435, 375}";
},
{
name = ogonek;
position = "{783, 10}";
},
{
name = top;
position = "{435, 750}";
},
{
name = topleft;
position = "{20, 750}";
},
{
name = topright;
position = "{850, 750}";
}
);
layerId = "6418A72B-B7AF-4A99-B2A7-67092BA5BFD7";
paths = (
{
closed = 1;
nodes = (
"651 -20 OFFCURVE",
"825 158 OFFCURVE",
"825 378 CURVE SMOOTH",
"825 592 OFFCURVE",
"651 770 OFFCURVE",
"436 770 CURVE SMOOTH",
"221 770 OFFCURVE",
"45 590 OFFCURVE",
"45 378 CURVE SMOOTH",
"45 165 OFFCURVE",
"220 -20 OFFCURVE",
"435 -20 CURVE SMOOTH"
);
},
{
closed = 1;
nodes = (
"792 175 OFFCURVE",
"631 9 OFFCURVE",
"435 9 CURVE SMOOTH",
"239 9 OFFCURVE",
"78 175 OFFCURVE",
"78 376 CURVE SMOOTH",
"78 576 OFFCURVE",
"239 741 OFFCURVE",
"436 741 CURVE SMOOTH",
"632 741 OFFCURVE",
"792 576 OFFCURVE",
"792 376 CURVE SMOOTH"
);
}
);
width = 870;
},
{
anchors = (
{
name = bottom;
position = "{435, 0}";
},
{
name = center;
position = "{435, 375}";
},
{
name = ogonek;
position = "{783, 10}";
},
{
name = top;
position = "{435, 750}";
},
{
name = topleft;
position = "{20, 750}";
},
{
name = topright;
position = "{850, 750}";
}
);
associatedMasterId = "6418A72B-B7AF-4A99-B2A7-67092BA5BFD7";
layerId = "0EF912AA-9EA3-4978-A993-E43EAD3DDE19";
name = "Regular Jul 8 16, 12:06";
paths = (
{
closed = 1;
nodes = (
"651 -13 OFFCURVE",
"825 168 OFFCURVE",
"825 378 CURVE SMOOTH",
"825 588 OFFCURVE",
"651 763 OFFCURVE",
"436 763 CURVE SMOOTH",
"221 763 OFFCURVE",
"45 586 OFFCURVE",
"45 378 CURVE SMOOTH",
"45 169 OFFCURVE",
"220 -13 OFFCURVE",
"427 -13 CURVE SMOOTH",
"442 -13 LINE SMOOTH"
);
},
{
closed = 1;
nodes = (
"792 179 OFFCURVE",
"631 16 OFFCURVE",
"435 16 CURVE SMOOTH",
"239 16 OFFCURVE",
"78 179 OFFCURVE",
"78 376 CURVE SMOOTH",
"78 572 OFFCURVE",
"239 734 OFFCURVE",
"436 734 CURVE SMOOTH",
"632 734 OFFCURVE",
"792 572 OFFCURVE",
"792 376 CURVE SMOOTH"
);
}
);
width = 870;
}
);
leftKerningGroup = O;
note = O;
rightKerningGroup = O;
unicode = 004F;
},
{
glyphname = Oslash;
lastChange = "2016-07-08 17:07:30 +0000";
layers = (
{
background = {
components = (
{
name = O;
}
);
paths = (
{
closed = 1;
nodes = (
"740 748 LINE",
"701 748 LINE",
"144 0 LINE",
"181 0 LINE"
);
}
);
};
components = (
{
name = O;
}
);
layerId = "6418A72B-B7AF-4A99-B2A7-67092BA5BFD7";
paths = (
{
closed = 1;
nodes = (
"740 748 LINE",
"701 748 LINE",
"144 0 LINE",
"181 0 LINE"
);
}
);
width = 880;
}
);
leftKerningGroup = O;
note = Oslash;
rightKerningGroup = O;
unicode = 00D8;
},
{
glyphname = OE;
lastChange = "2016-07-08 17:02:49 +0000";
layers = (
{
layerId = "6418A72B-B7AF-4A99-B2A7-67092BA5BFD7";
paths = (
{
closed = 1;
nodes = (
"435 750 LINE SMOOTH",
"220 750 OFFCURVE",
"50 587 OFFCURVE",
"50 379 CURVE SMOOTH",
"50 171 OFFCURVE",
"219 0 OFFCURVE",
"427 0 CURVE SMOOTH",
"724 0 LINE",
"724 29 LINE",
"488 29 LINE",
"488 284 LINE",
"685 284 LINE",
"685 313 LINE",
"488 313 LINE",
"488 721 LINE",
"724 721 LINE",
"724 750 LINE"
);
},
{
closed = 1;
nodes = (
"239 29 OFFCURVE",
"83 181 OFFCURVE",
"83 377 CURVE SMOOTH",
"83 573 OFFCURVE",
"238 721 OFFCURVE",
"435 721 CURVE SMOOTH",
"455 721 LINE",
"455 29 LINE",
"435 29 LINE SMOOTH"
);
}
);
width = 759;
}
);
leftKerningGroup = O;
note = OE;
rightKerningGroup = E;
unicode = 0152;
},
{
glyphname = P;
lastChange = "2016-07-08 17:02:49 +0000";
layers = (
{
layerId = "6418A72B-B7AF-4A99-B2A7-67092BA5BFD7";
paths = (
{
closed = 1;
nodes = (
"107 0 LINE",
"107 273 LINE",
"115 273 LINE SMOOTH",
"251 273 OFFCURVE",
"357 377 OFFCURVE",
"357 510 CURVE SMOOTH",
"357 664 OFFCURVE",
"267 750 OFFCURVE",
"107 750 CURVE SMOOTH",
"74 750 LINE",
"74 0 LINE"
);
},
{
closed = 1;
nodes = (
"115 721 LINE SMOOTH",
"249 721 OFFCURVE",
"324 645 OFFCURVE",
"324 510 CURVE SMOOTH",
"324 393 OFFCURVE",
"232 301 OFFCURVE",
"115 301 CURVE SMOOTH",
"107 301 LINE",
"107 721 LINE"
);
}
);
width = 390;
}
);
leftKerningGroup = H;
note = P;
rightKerningGroup = P;
unicode = 0050;
},
{
glyphname = Thorn;
lastChange = "2016-07-09 16:39:32 +0000";
layers = (
{
layerId = "6418A72B-B7AF-4A99-B2A7-67092BA5BFD7";
paths = (
{
closed = 1;
nodes = (
"107 153 LINE",
"116 153 LINE SMOOTH",
"253 153 OFFCURVE",
"360 258 OFFCURVE",
"360 391 CURVE SMOOTH",
"360 545 OFFCURVE",
"272 631 OFFCURVE",
"116 631 CURVE SMOOTH",
"107 631 LINE",
"107 749 LINE",
"75 749 LINE",
"75 0 LINE",
"107 0 LINE"
);
},
{
closed = 1;
nodes = (
"252 602 OFFCURVE",
"328 526 OFFCURVE",
"328 390 CURVE SMOOTH",
"328 274 OFFCURVE",
"235 182 OFFCURVE",
"116 182 CURVE SMOOTH",
"107 182 LINE",
"107 602 LINE",
"116 602 LINE SMOOTH"
);
}
);
width = 410;
}
);
leftKerningGroup = H;
note = Thorn;
rightKerningGroup = Thorn;
unicode = 00DE;
},
{
glyphname = Q;
lastChange = "2016-07-08 17:02:49 +0000";
layers = (
{
background = {
components = (
{
name = O;
}
);
paths = (
{
closed = 1;
nodes = (
"710 -12 LINE",
"754 -12 LINE",
"496 243 LINE",
"453 243 LINE"
);
}
);
};
components = (
{
name = O;
}
);
layerId = "6418A72B-B7AF-4A99-B2A7-67092BA5BFD7";
paths = (
{
closed = 1;
nodes = (
"710 -12 LINE",
"754 -12 LINE",
"496 243 LINE",
"453 243 LINE"
);
}
);
width = 870;
}
);
leftKerningGroup = O;
note = Q;
rightKerningGroup = O;
unicode = 0051;
},
{
glyphname = R;
lastChange = "2016-07-08 17:47:08 +0000";
layers = (
{
anchors = (
{
name = bottom;
position = "{194, 0}";
},
{
name = top;
position = "{168, 750}";
}
);
layerId = "6418A72B-B7AF-4A99-B2A7-67092BA5BFD7";
paths = (
{
closed = 1;
nodes = (
"107 0 LINE",
"107 238 LINE",
"334 0 LINE",
"377 0 LINE",
"119 272 LINE",
"126 272 LINE SMOOTH",
"258 272 OFFCURVE",
"362 377 OFFCURVE",
"362 511 CURVE SMOOTH",
"362 664 OFFCURVE",
"274 750 OFFCURVE",
"118 750 CURVE SMOOTH",
"75 750 LINE",
"75 0 LINE"
);
},
{
closed = 1;
nodes = (
"120 721 LINE SMOOTH",
"254 721 OFFCURVE",
"330 645 OFFCURVE",
"330 510 CURVE SMOOTH",
"330 393 OFFCURVE",
"240 301 OFFCURVE",
"125 301 CURVE SMOOTH",
"107 301 LINE",
"107 721 LINE"
);
}
);
width = 407;
}
);
leftKerningGroup = H;
note = R;
rightKerningGroup = R;
unicode = 0052;
},
{
glyphname = S;
lastChange = "2016-07-08 17:47:16 +0000";
layers = (
{
anchors = (
{
name = bottom;
position = "{239, 0}";
},
{
name = top;
position = "{249, 750}";
}
);
layerId = "6418A72B-B7AF-4A99-B2A7-67092BA5BFD7";
paths = (
{
closed = 1;
nodes = (
"341 740 OFFCURVE",
"292 763 OFFCURVE",
"231 763 CURVE SMOOTH",
"143 763 OFFCURVE",
"75 712 OFFCURVE",
"75 619 CURVE SMOOTH",
"75 583 OFFCURVE",
"83 556 OFFCURVE",
"101 529 CURVE SMOOTH",
"136 478 OFFCURVE",
"190 451 OFFCURVE",
"251 412 CURVE SMOOTH",
"385 330 OFFCURVE",
"427 285 OFFCURVE",
"427 191 CURVE SMOOTH",
"427 84 OFFCURVE",
"342 15 OFFCURVE",
"242 15 CURVE SMOOTH",
"142 15 OFFCURVE",
"75 67 OFFCURVE",
"40 143 CURVE",
"40 89 LINE",
"86 20 OFFCURVE",
"151 -14 OFFCURVE",
"234 -14 CURVE SMOOTH",
"361 -14 OFFCURVE",
"458 66 OFFCURVE",
"458 193 CURVE SMOOTH",
"458 258 OFFCURVE",
"437 310 OFFCURVE",
"389 355 CURVE SMOOTH",
"348 391 OFFCURVE",
"296 424 OFFCURVE",
"246 453 CURVE SMOOTH",
"149 508 OFFCURVE",
"108 550 OFFCURVE",
"108 620 CURVE SMOOTH",
"108 691 OFFCURVE",
"161 734 OFFCURVE",
"226 734 CURVE SMOOTH",
"291 734 OFFCURVE",
"346 700 OFFCURVE",
"377 644 CURVE",
"377 695 LINE"
);
}
);
width = 498;
}
);
leftKerningGroup = S;
note = S;
rightKerningGroup = S;
unicode = 0053;
},
{
glyphname = T;
lastChange = "2016-07-08 17:02:49 +0000";
layers = (
{
anchors = (
{
name = bottom;
position = "{209, 0}";
},
{
name = center;
position = "{209, 375}";
},
{
name = top;
position = "{209, 750}";
}
);
layerId = "6418A72B-B7AF-4A99-B2A7-67092BA5BFD7";
paths = (
{
closed = 1;
nodes = (
"20 721 LINE",
"193 721 LINE",
"193 0 LINE",
"226 0 LINE",
"226 721 LINE",
"397 721 LINE",
"397 750 LINE",
"20 750 LINE"
);
}
);
width = 417;
}
);
leftKerningGroup = T;
note = T;
rightKerningGroup = T;
unicode = 0054;
},
{
glyphname = Tbar;
lastChange = "2016-07-09 03:56:52 +0000";
layers = (
{
layerId = "6418A72B-B7AF-4A99-B2A7-67092BA5BFD7";
paths = (
{
closed = 1;
nodes = (
"20 721 LINE",
"193 721 LINE",
"193 304 LINE",
"75 304 LINE",
"75 275 LINE",
"193 275 LINE",
"193 0 LINE",
"226 0 LINE",
"226 275 LINE",
"344 275 LINE",
"344 304 LINE",
"226 304 LINE",
"226 721 LINE",
"397 721 LINE",
"397 750 LINE",
"20 750 LINE"
);
}
);
width = 417;
}
);
leftKerningGroup = T;
note = Tbar;
rightKerningGroup = T;
unicode = 0166;
},
{
glyphname = Tcedilla;
lastChange = "2016-07-09 03:56:52 +0000";
layers = (
{
layerId = "6418A72B-B7AF-4A99-B2A7-67092BA5BFD7";
paths = (
{
closed = 1;
nodes = (
"20 721 LINE",
"193 721 LINE",
"193 0 LINE",
"226 0 LINE",
"226 721 LINE",
"397 721 LINE",
"397 750 LINE",
"20 750 LINE"
);
},
{
closed = 1;
nodes = (
"240 -124 LINE",
"242 -118 OFFCURVE",
"243 -113 OFFCURVE",
"243 -108 CURVE SMOOTH",
"243 -87 OFFCURVE",
"232 -77 OFFCURVE",
"209 -77 CURVE SMOOTH",
"186 -77 OFFCURVE",
"174 -87 OFFCURVE",
"174 -108 CURVE SMOOTH",
"174 -129 OFFCURVE",
"184 -139 OFFCURVE",
"205 -139 CURVE",
"205 -195 LINE",
"209 -195 LINE"
);
}
);
width = 417;
}
);
leftKerningGroup = T;
note = uni0162;
rightKerningGroup = T;
unicode = 0162;
},
{
glyphname = U;
lastChange = "2016-07-08 17:02:49 +0000";
layers = (
{
anchors = (
{
name = bottom;
position = "{299, 0}";
},
{
name = ogonek;
position = "{299, 9}";
},
{
name = top;
position = "{299, 750}";
},
{
name = topright;
position = "{577, 750}";
}
);
layerId = "6418A72B-B7AF-4A99-B2A7-67092BA5BFD7";
paths = (
{
closed = 1;
nodes = (
"430 -20 OFFCURVE",
"522 76 OFFCURVE",
"522 207 CURVE SMOOTH",
"522 750 LINE",
"489 750 LINE",
"489 206 LINE SMOOTH",
"489 91 OFFCURVE",
"407 9 OFFCURVE",
"299 9 CURVE SMOOTH",
"191 9 OFFCURVE",
"108 93 OFFCURVE",
"108 206 CURVE SMOOTH",
"108 750 LINE",
"75 750 LINE",
"75 205 LINE SMOOTH",
"75 76 OFFCURVE",
"171 -20 OFFCURVE",
"299 -20 CURVE SMOOTH"
);
}
);
width = 597;
}
);
leftKerningGroup = U;
note = U;
rightKerningGroup = U;
unicode = 0055;
},
{
glyphname = V;
lastChange = "2016-07-09 15:30:37 +0000";
layers = (
{
background = {
paths = (
{
closed = 1;
nodes = (
"343 -17 LINE",
"686 750 LINE",
"650 750 LINE",
"329 34 LINE",
"348 42 LINE",
"34 750 LINE",
"0 750 LINE"
);
}
);
};
layerId = "6418A72B-B7AF-4A99-B2A7-67092BA5BFD7";
paths = (
{
closed = 1;
nodes = (
"652 750 LINE",
"338 42 LINE",
"357 34 LINE",
"36 750 LINE",
"0 750 LINE",
"343 -17 LINE",
"686 750 LINE"
);
}
);
width = 686;
}
);
leftKerningGroup = V;
note = V;
rightKerningGroup = V;
unicode = 0056;
},
{
glyphname = W;
lastChange = "2016-07-09 16:39:15 +0000";
layers = (
{
anchors = (
{
name = bottom;
position = "{490, 0}";
},
{
name = top;
position = "{490, 750}";
}
);
layerId = "6418A72B-B7AF-4A99-B2A7-67092BA5BFD7";
paths = (
{
closed = 1;
nodes = (
"473 397 LINE",
"322 50 LINE",
"338 50 LINE",
"35 750 LINE",
"0 750 LINE",
"329 -13 LINE",
"492 362 LINE"
);
},
{
closed = 1;
nodes = (
"504 381 LINE",
"664 750 LINE",
"633 750 LINE",
"486 413 LINE"
);
},
{
closed = 1;
nodes = (
"352 750 LINE",
"318 750 LINE",
"647 -13 LINE",
"980 750 LINE",
"945 750 LINE",
"641 47 LINE",
"657 47 LINE"
);
}
);
width = 980;
}
);
leftKerningGroup = W;
note = W;
rightKerningGroup = W;
unicode = 0057;
},
{
glyphname = X;
lastChange = "2016-07-09 16:41:05 +0000";
layers = (
{
anchors = (
{
name = bottom;
position = "{242, 0}";
},
{
name = bottomright;
position = "{442, 0}";
},
{
name = top;
position = "{242, 750}";
}
);
layerId = "6418A72B-B7AF-4A99-B2A7-67092BA5BFD7";
paths = (
{
closed = 1;
nodes = (
"225 427 LINE",
"18 0 LINE",
"51 0 LINE",
"243 393 LINE"
);
},
{
closed = 1;
nodes = (
"254 412 LINE",
"419 750 LINE",
"384 750 LINE",
"233 440 LINE"
);
},
{
closed = 1;
nodes = (
"242 445 LINE",
"93 750 LINE",
"55 750 LINE",
"224 411 LINE",
"237 393 LINE",
"428 0 LINE",
"465 0 LINE",
"256 428 LINE"
);
}
);
width = 485;
}
);
leftKerningGroup = X;
note = X;
rightKerningGroup = X;
unicode = 0058;
},
{
glyphname = Y;
lastChange = "2016-07-08 18:04:18 +0000";
layers = (
{
anchors = (
{
name = bottom;
position = "{242, 0}";
},
{
name = top;
position = "{242, 750}";
},
{
name = topleft;
position = "{20, 750}";
}
);
layerId = "6418A72B-B7AF-4A99-B2A7-67092BA5BFD7";
paths = (
{
closed = 1;
nodes = (
"484 750 LINE",
"450 750 LINE",
"236 322 LINE",
"256 317 LINE",
"36 750 LINE",
"0 750 LINE",
"228 300 LINE",
"228 0 LINE",
"261 0 LINE",
"261 300 LINE"
);
}
);
width = 484;
}
);
leftKerningGroup = Y;
note = Y;
rightKerningGroup = Y;
unicode = 0059;
},
{
glyphname = Z;
lastChange = "2016-07-08 17:02:49 +0000";
layers = (
{
anchors = (
{
name = bottom;
position = "{214, 0}";
},
{
name = top;
position = "{236, 750}";
}
);
layerId = "6418A72B-B7AF-4A99-B2A7-67092BA5BFD7";
paths = (
{
closed = 1;
nodes = (
"405 750 LINE",
"25 750 LINE",
"25 721 LINE",
"355 721 LINE",
"25 0 LINE",
"402 0 LINE",
"402 29 LINE",
"74 29 LINE"
);
}
);
width = 427;
}
);
leftKerningGroup = Z;
note = Z;
rightKerningGroup = Z;
unicode = 005A;
},
{
glyphname = a;
lastChange = "2016-07-08 17:09:27 +0000";
layers = (
{
anchors = (
{
name = bottom;
position = "{285, 0}";
},
{
name = ogonek;
position = "{512, 10}";
},
{
name = top;
position = "{285, 450}";
}
);
layerId = "6418A72B-B7AF-4A99-B2A7-67092BA5BFD7";
paths = (
{
closed = 1;
nodes = (
"477 337 LINE",
"446 412 OFFCURVE",
"358 461 OFFCURVE",
"273 461 CURVE SMOOTH",
"142 461 OFFCURVE",
"35 354 OFFCURVE",
"35 225 CURVE SMOOTH",
"35 96 OFFCURVE",
"142 -11 OFFCURVE",
"273 -11 CURVE SMOOTH",
"358 -11 OFFCURVE",
"440 36 OFFCURVE",
"477 112 CURVE",
"477 0 LINE",
"509 0 LINE",
"509 450 LINE",
"477 450 LINE"
);
},
{
closed = 1;
nodes = (
"67 336 OFFCURVE",
"162 433 OFFCURVE",
"274 433 CURVE SMOOTH",
"386 433 OFFCURVE",
"479 337 OFFCURVE",
"479 225 CURVE SMOOTH",
"479 112 OFFCURVE",
"387 17 OFFCURVE",
"275 17 CURVE SMOOTH",
"162 17 OFFCURVE",
"67 112 OFFCURVE",
"67 224 CURVE SMOOTH"
);
}
);
width = 569;
}
);
leftKerningGroup = a;
note = a;
rightKerningGroup = n;
unicode = 0061;
},
{
glyphname = ae;
lastChange = "2016-07-08 17:02:49 +0000";
layers = (
{
anchors = (
{
name = bottom;
position = "{466, 0}";
},
{
name = top;
position = "{466, 450}";
}
);
background = {
paths = (
{
closed = 1;
nodes = (
"509 255 LINE",
"483 384 OFFCURVE",
"404 461 OFFCURVE",
"273 461 CURVE SMOOTH",
"138 461 OFFCURVE",
"35 364 OFFCURVE",
"35 225 CURVE SMOOTH",
"35 96 OFFCURVE",
"142 -11 OFFCURVE",
"273 -11 CURVE SMOOTH",
"358 -11 OFFCURVE",
"440 36 OFFCURVE",
"477 112 CURVE",
"477 0 LINE",
"509 0 LINE"
);
},
{
closed = 1;
nodes = (
"67 346 OFFCURVE",
"150 433 OFFCURVE",
"274 433 CURVE SMOOTH",
"406 433 OFFCURVE",
"479 337 OFFCURVE",
"479 225 CURVE SMOOTH",
"479 112 OFFCURVE",
"387 17 OFFCURVE",
"275 17 CURVE SMOOTH",
"162 17 OFFCURVE",
"67 112 OFFCURVE",
"67 224 CURVE SMOOTH"
);
},
{
closed = 1;
nodes = (
"789 -12 OFFCURVE",
"847 14 OFFCURVE",
"894 66 CURVE",
"894 117 LINE",
"849 47 OFFCURVE",
"798 16 OFFCURVE",
"708 16 CURVE SMOOTH",
"668 16 OFFCURVE",
"626 33 OFFCURVE",
"583 68 CURVE",
"897 378 LINE",
"848 433 OFFCURVE",
"789 460 OFFCURVE",
"720 460 CURVE SMOOTH",
"576 460 OFFCURVE",
"481 353 OFFCURVE",
"481 226 CURVE SMOOTH",
"481 99 OFFCURVE",
"588 -12 OFFCURVE",
"713 -12 CURVE SMOOTH",
"722 -12 LINE SMOOTH"
);
},
{
closed = 1;
nodes = (
"765 432 OFFCURVE",
"812 415 OFFCURVE",
"855 376 CURVE",
"557 80 LINE",
"569 81 LINE",
"529 123 OFFCURVE",
"509 173 OFFCURVE",
"509 229 CURVE SMOOTH",
"509 336 OFFCURVE",
"611 432 OFFCURVE",
"712 432 CURVE SMOOTH"
);
}
);
};
layerId = "6418A72B-B7AF-4A99-B2A7-67092BA5BFD7";
paths = (
{
closed = 1;
nodes = (
"509 255 LINE",
"483 384 OFFCURVE",
"404 461 OFFCURVE",
"273 461 CURVE SMOOTH",
"138 461 OFFCURVE",
"35 364 OFFCURVE",
"35 225 CURVE SMOOTH",
"35 96 OFFCURVE",
"142 -11 OFFCURVE",
"273 -11 CURVE SMOOTH",
"358 -11 OFFCURVE",
"440 36 OFFCURVE",
"477 112 CURVE",
"477 0 LINE",
"509 0 LINE"
);
},
{
closed = 1;
nodes = (
"67 346 OFFCURVE",
"150 433 OFFCURVE",
"274 433 CURVE SMOOTH",
"406 433 OFFCURVE",
"479 337 OFFCURVE",
"479 225 CURVE SMOOTH",
"479 112 OFFCURVE",
"387 17 OFFCURVE",
"275 17 CURVE SMOOTH",
"162 17 OFFCURVE",
"67 112 OFFCURVE",
"67 224 CURVE SMOOTH"
);
},
{
closed = 1;
nodes = (
"789 -12 OFFCURVE",
"847 14 OFFCURVE",
"894 66 CURVE",
"894 117 LINE",
"849 47 OFFCURVE",
"798 16 OFFCURVE",
"708 16 CURVE SMOOTH",
"668 16 OFFCURVE",
"626 33 OFFCURVE",
"583 68 CURVE",
"897 378 LINE",
"848 433 OFFCURVE",
"789 460 OFFCURVE",
"720 460 CURVE SMOOTH",
"576 460 OFFCURVE",
"481 353 OFFCURVE",
"481 226 CURVE SMOOTH",
"481 99 OFFCURVE",
"588 -12 OFFCURVE",
"713 -12 CURVE SMOOTH",
"722 -12 LINE SMOOTH"
);
},
{
closed = 1;
nodes = (
"765 432 OFFCURVE",
"812 415 OFFCURVE",
"855 376 CURVE",
"557 80 LINE",
"569 81 LINE",
"529 123 OFFCURVE",
"509 173 OFFCURVE",
"509 229 CURVE SMOOTH",
"509 336 OFFCURVE",
"611 432 OFFCURVE",
"712 432 CURVE SMOOTH"
);
}
);
width = 932;
},
{
associatedMasterId = "6418A72B-B7AF-4A99-B2A7-67092BA5BFD7";
layerId = "C0D35BA5-26A5-4B71-8F2C-5712906F408B";
name = "Regular Jul 8 16, 11:53";
paths = (
{
closed = 1;
nodes = (
"789 -11 OFFCURVE",
"847 15 OFFCURVE",
"894 67 CURVE",
"894 118 LINE",
"853 57 OFFCURVE",
"788 17 OFFCURVE",
"708 17 CURVE SMOOTH",
"668 17 OFFCURVE",
"626 34 OFFCURVE",
"583 69 CURVE",
"897 379 LINE",
"848 434 OFFCURVE",
"787 461 OFFCURVE",
"715 461 CURVE SMOOTH",
"627 461 OFFCURVE",
"549 412 OFFCURVE",
"508 339 CURVE",
"508 450 LINE",
"482 450 LINE",
"482 345 LINE",
"439 417 OFFCURVE",
"361 461 OFFCURVE",
"278 461 CURVE SMOOTH",
"147 461 OFFCURVE",
"40 354 OFFCURVE",
"40 225 CURVE SMOOTH",
"40 96 OFFCURVE",
"147 -11 OFFCURVE",
"278 -11 CURVE SMOOTH",
"361 -11 OFFCURVE",
"439 33 OFFCURVE",
"482 105 CURVE",
"482 0 LINE",
"508 0 LINE",
"508 112 LINE",
"549 39 OFFCURVE",
"624 -11 OFFCURVE",
"707 -11 CURVE SMOOTH",
"722 -11 LINE SMOOTH"
);
},
{
closed = 1;
nodes = (
"72 336 OFFCURVE",
"167 433 OFFCURVE",
"279 433 CURVE SMOOTH",
"391 433 OFFCURVE",
"484 337 OFFCURVE",
"484 225 CURVE SMOOTH",
"484 112 OFFCURVE",
"392 17 OFFCURVE",
"280 17 CURVE SMOOTH",
"167 17 OFFCURVE",
"72 112 OFFCURVE",
"72 224 CURVE SMOOTH"
);
},
{
closed = 1;
nodes = (
"764 433 OFFCURVE",
"812 415 OFFCURVE",
"853 379 CURVE",
"562 90 LINE",
"526 131 OFFCURVE",
"508 178 OFFCURVE",
"508 231 CURVE SMOOTH",
"508 337 OFFCURVE",
"604 433 OFFCURVE",
"711 433 CURVE SMOOTH"
);
}
);
width = 932;
}
);
leftKerningGroup = a;
leftMetricsKey = a;
note = ae;
rightKerningGroup = e;
rightMetricsKey = e;
unicode = 00E6;
},
{
glyphname = b;
lastChange = "2016-07-08 17:02:49 +0000";
layers = (
{
layerId = "6418A72B-B7AF-4A99-B2A7-67092BA5BFD7";
paths = (
{
closed = 1;
nodes = (
"92 109 LINE",
"132 36 OFFCURVE",
"216 -11 OFFCURVE",
"296 -11 CURVE SMOOTH",
"428 -11 OFFCURVE",
"534 96 OFFCURVE",
"534 225 CURVE SMOOTH",
"534 354 OFFCURVE",
"428 461 OFFCURVE",
"296 461 CURVE SMOOTH",
"213 461 OFFCURVE",
"128 413 OFFCURVE",
"92 336 CURVE",
"92 750 LINE",
"60 750 LINE",
"60 0 LINE",
"92 0 LINE"
);
},
{
closed = 1;
nodes = (
"90 336 OFFCURVE",
"185 433 OFFCURVE",
"297 433 CURVE SMOOTH",
"409 433 OFFCURVE",
"502 337 OFFCURVE",
"502 225 CURVE SMOOTH",
"502 112 OFFCURVE",
"410 17 OFFCURVE",
"298 17 CURVE SMOOTH",
"185 17 OFFCURVE",
"90 112 OFFCURVE",
"90 224 CURVE SMOOTH"
);
}
);
width = 569;
}
);
leftKerningGroup = h;
note = b;
rightKerningGroup = o;
unicode = 0062;
},
{
glyphname = c;
lastChange = "2016-07-08 17:09:53 +0000";
layers = (
{
anchors = (
{
name = bottom;
position = "{258, 0}";
},
{
name = top;
position = "{278, 450}";
}
);
background = {
components = (
{
name = o;
}
);
};
layerId = "6418A72B-B7AF-4A99-B2A7-67092BA5BFD7";
paths = (
{
closed = 1;
nodes = (
"346 -13 OFFCURVE",
"403 11 OFFCURVE",
"451 62 CURVE",
"451 116 LINE",
"410 53 OFFCURVE",
"352 15 OFFCURVE",
"273 15 CURVE SMOOTH",
"162 15 OFFCURVE",
"67 100 OFFCURVE",
"67 223 CURVE SMOOTH",
"67 336 OFFCURVE",
"166 431 OFFCURVE",
"277 431 CURVE SMOOTH",
"361 431 OFFCURVE",
"410 392 OFFCURVE",
"451 331 CURVE",
"451 385 LINE",
"403 433 OFFCURVE",
"355 459 OFFCURVE",
"277 459 CURVE SMOOTH",
"141 459 OFFCURVE",
"35 352 OFFCURVE",
"35 225 CURVE SMOOTH",
"35 87 OFFCURVE",
"141 -13 OFFCURVE",
"273 -13 CURVE SMOOTH"
);
}
);
width = 476;
}
);
leftKerningGroup = o;
note = c;
rightKerningGroup = c;
unicode = 0063;
},
{
glyphname = d;
lastChange = "2016-07-08 17:02:49 +0000";
layers = (
{
layerId = "6418A72B-B7AF-4A99-B2A7-67092BA5BFD7";
paths = (
{
closed = 1;
nodes = (
"477 340 LINE",
"441 413 OFFCURVE",
"356 461 OFFCURVE",
"273 461 CURVE SMOOTH",
"141 461 OFFCURVE",
"35 354 OFFCURVE",
"35 225 CURVE SMOOTH",
"35 96 OFFCURVE",
"141 -11 OFFCURVE",
"273 -11 CURVE SMOOTH",
"353 -11 OFFCURVE",
"437 36 OFFCURVE",
"477 109 CURVE",
"477 0 LINE",
"509 0 LINE",
"509 750 LINE",
"477 750 LINE"
);
},
{
closed = 1;
nodes = (
"67 337 OFFCURVE",
"160 433 OFFCURVE",
"272 433 CURVE SMOOTH",
"384 433 OFFCURVE",
"479 336 OFFCURVE",
"479 224 CURVE SMOOTH",
"479 112 OFFCURVE",
"384 17 OFFCURVE",
"272 17 CURVE SMOOTH",
"159 17 OFFCURVE",
"67 112 OFFCURVE",
"67 225 CURVE SMOOTH"
);
}
);
width = 569;
}
);
leftKerningGroup = o;
note = d;
rightKerningGroup = l;
unicode = 0064;
},
{
glyphname = eth;
lastChange = "2016-07-09 16:38:36 +0000";
layers = (
{
background = {
components = (
{
name = "be-cy";
transform = "{-1, 0, 0, 1, 586, 0}";
}
);
paths = (
{
closed = 1;
nodes = (
"127 583 LINE",
"127 554 LINE",
"480 701 LINE",
"480 732 LINE"
);
}
);
};
components = (
{
name = "be-cy";
transform = "{-1, 0, 0, 1, 586, 0}";
}
);
layerId = "6418A72B-B7AF-4A99-B2A7-67092BA5BFD7";
paths = (
{
closed = 1;
nodes = (
"127 583 LINE",
"127 554 LINE",
"480 701 LINE",
"480 732 LINE"
);
}
);
width = 571;
}
);
leftKerningGroup = eth;
note = eth;
rightKerningGroup = eth;
unicode = 00F0;
},
{
glyphname = dcaron;
lastChange = "2016-07-08 17:02:49 +0000";
layers = (
{
layerId = "6418A72B-B7AF-4A99-B2A7-67092BA5BFD7";
paths = (
{
closed = 1;
nodes = (
"477 340 LINE",
"441 413 OFFCURVE",
"356 461 OFFCURVE",
"273 461 CURVE SMOOTH",
"141 461 OFFCURVE",
"35 354 OFFCURVE",
"35 225 CURVE SMOOTH",
"35 96 OFFCURVE",
"141 -11 OFFCURVE",
"273 -11 CURVE SMOOTH",
"353 -11 OFFCURVE",
"437 36 OFFCURVE",
"477 109 CURVE",
"477 0 LINE",
"509 0 LINE",
"509 750 LINE",
"477 750 LINE"
);
},
{
closed = 1;
nodes = (
"67 337 OFFCURVE",
"160 433 OFFCURVE",
"272 433 CURVE SMOOTH",
"384 433 OFFCURVE",
"479 336 OFFCURVE",
"479 224 CURVE SMOOTH",
"479 112 OFFCURVE",
"384 17 OFFCURVE",
"272 17 CURVE SMOOTH",
"159 17 OFFCURVE",
"67 112 OFFCURVE",
"67 225 CURVE SMOOTH"
);
},
{
closed = 1;
nodes = (
"625 704 LINE",
"627 710 OFFCURVE",
"628 715 OFFCURVE",
"628 720 CURVE SMOOTH",
"628 741 OFFCURVE",
"617 751 OFFCURVE",
"594 751 CURVE SMOOTH",
"571 751 OFFCURVE",
"559 741 OFFCURVE",
"559 720 CURVE SMOOTH",
"559 699 OFFCURVE",
"569 689 OFFCURVE",
"590 689 CURVE",
"590 633 LINE",
"594 633 LINE"
);
}
);
width = 645;
}
);
leftKerningGroup = o;
note = dcaron;
rightKerningGroup = l;
unicode = 010F;
},
{
glyphname = dcroat;
lastChange = "2016-07-08 17:02:49 +0000";
layers = (
{
layerId = "6418A72B-B7AF-4A99-B2A7-67092BA5BFD7";
paths = (
{
closed = 1;
nodes = (
"477 595 LINE",
"360 595 LINE",
"360 566 LINE",
"477 566 LINE",
"477 340 LINE",
"441 413 OFFCURVE",
"356 461 OFFCURVE",
"273 461 CURVE SMOOTH",
"141 461 OFFCURVE",
"35 354 OFFCURVE",
"35 225 CURVE SMOOTH",
"35 96 OFFCURVE",
"141 -11 OFFCURVE",
"273 -11 CURVE SMOOTH",
"353 -11 OFFCURVE",
"437 36 OFFCURVE",
"477 109 CURVE",
"477 0 LINE",
"509 0 LINE",
"509 566 LINE",
"576 566 LINE",
"576 595 LINE",
"509 595 LINE",
"509 750 LINE",
"477 750 LINE"
);
},
{
closed = 1;
nodes = (
"67 337 OFFCURVE",
"160 433 OFFCURVE",
"272 433 CURVE SMOOTH",
"384 433 OFFCURVE",
"479 336 OFFCURVE",
"479 224 CURVE SMOOTH",
"479 112 OFFCURVE",
"384 17 OFFCURVE",
"272 17 CURVE SMOOTH",
"159 17 OFFCURVE",
"67 112 OFFCURVE",
"67 225 CURVE SMOOTH"
);
}
);
width = 595;
}
);
leftKerningGroup = o;
note = dcroat;
rightKerningGroup = l;
unicode = 0111;
},
{
glyphname = e;
lastChange = "2016-07-08 17:10:11 +0000";
layers = (
{
anchors = (
{
name = bottom;
position = "{309, 0}";
},
{
name = ogonek;
position = "{358, 10}";
},
{
name = top;
position = "{268, 450}";
}
);
background = {
components = (
{
name = o;
transform = "{1, 0, 0, 1, 4, 0}";
}
);
};
layerId = "6418A72B-B7AF-4A99-B2A7-67092BA5BFD7";
paths = (
{
closed = 1;
nodes = (
"349 -12 OFFCURVE",
"407 10 OFFCURVE",
"457 66 CURVE",
"457 117 LINE",
"416 56 OFFCURVE",
"351 16 OFFCURVE",
"280 16 CURVE SMOOTH",
"227 16 OFFCURVE",
"189 33 OFFCURVE",
"146 68 CURVE",
"460 378 LINE",
"411 433 OFFCURVE",
"352 460 OFFCURVE",
"283 460 CURVE SMOOTH",
"146 460 OFFCURVE",
"40 363 OFFCURVE",
"40 226 CURVE SMOOTH",
"40 99 OFFCURVE",
"149 -12 OFFCURVE",
"276 -12 CURVE SMOOTH"
);
},
{
closed = 1;
nodes = (
"340 432 OFFCURVE",
"377 416 OFFCURVE",
"420 378 CURVE",
"120 80 LINE",
"132 81 LINE",
"92 123 OFFCURVE",
"72 173 OFFCURVE",
"72 229 CURVE SMOOTH",
"72 346 OFFCURVE",
"159 432 OFFCURVE",
"282 432 CURVE SMOOTH"
);
}
);
width = 495;
}
);
leftKerningGroup = o;
note = e;
rightKerningGroup = e;
unicode = 0065;
},
{
glyphname = f;
lastChange = "2016-07-09 17:07:16 +0000";
layers = (
{
background = {
paths = (
{
closed = 1;
nodes = (
"231 637 LINE",
"136 637 OFFCURVE",
"60 577 OFFCURVE",
"60 468 CURVE SMOOTH",
"60 0 LINE",
"92 0 LINE",
"92 181 LINE",
"230 181 LINE",
"230 209 LINE",
"92 209 LINE",
"92 468 LINE SMOOTH",
"92 559 OFFCURVE",
"154 609 OFFCURVE",
"231 609 CURVE"
);
}
);
};
guideLines = (
{
angle = 90;
position = "{231, 507}";
}
);
layerId = "6418A72B-B7AF-4A99-B2A7-67092BA5BFD7";
paths = (
{
closed = 1;
nodes = (
"135 638 OFFCURVE",
"60 564 OFFCURVE",
"60 469 CURVE SMOOTH",
"60 0 LINE",
"92 0 LINE",
"92 469 LINE",
"92 548 OFFCURVE",
"153 610 OFFCURVE",
"231 610 CURVE",
"231 638 LINE"
);
},
{
closed = 1;
nodes = (
"231 422 LINE",
"231 450 LINE",
"92 450 LINE",
"92 422 LINE"
);
}
);
width = 252;
}
);
leftKerningGroup = f;
note = f;
rightKerningGroup = f;
unicode = 0066;
},
{
glyphname = g;
lastChange = "2016-07-08 17:14:43 +0000";
layers = (
{
anchors = (
{
name = bottom;
position = "{285, 0}";
},
{
name = top;
position = "{285, 450}";
}
);
layerId = "6418A72B-B7AF-4A99-B2A7-67092BA5BFD7";
paths = (
{
closed = 1;
nodes = (
"442 414 OFFCURVE",
"360 460 OFFCURVE",
"273 460 CURVE SMOOTH",
"142 460 OFFCURVE",
"35 353 OFFCURVE",
"35 224 CURVE SMOOTH",
"35 95 OFFCURVE",
"142 -12 OFFCURVE",
"273 -12 CURVE SMOOTH",
"356 -12 OFFCURVE",
"442 36 OFFCURVE",
"478 109 CURVE",
"478 42 LINE SMOOTH",
"478 -105 OFFCURVE",
"405 -180 OFFCURVE",
"278 -180 CURVE SMOOTH",
"201 -180 OFFCURVE",
"118 -132 OFFCURVE",
"83 -68 CURVE",
"83 -114 LINE",
"123 -170 OFFCURVE",
"202 -208 OFFCURVE",
"278 -208 CURVE SMOOTH",
"427 -208 OFFCURVE",
"510 -123 OFFCURVE",
"510 42 CURVE SMOOTH",
"510 450 LINE",
"478 450 LINE",
"478 338 LINE"
);
},
{
closed = 1;
nodes = (
"67 337 OFFCURVE",
"162 432 OFFCURVE",
"275 432 CURVE SMOOTH",
"387 432 OFFCURVE",
"479 337 OFFCURVE",
"479 224 CURVE SMOOTH",
"479 111 OFFCURVE",
"387 16 OFFCURVE",
"275 16 CURVE SMOOTH",
"162 16 OFFCURVE",
"67 111 OFFCURVE",
"67 224 CURVE SMOOTH"
);
}
);
width = 570;
}
);
leftKerningGroup = g;
note = g;
rightKerningGroup = g;
unicode = 0067;
},
{
glyphname = gcommaaccent;
lastChange = "2016-07-09 03:56:52 +0000";
layers = (
{
layerId = "6418A72B-B7AF-4A99-B2A7-67092BA5BFD7";
paths = (
{
closed = 1;
nodes = (
"273 619 OFFCURVE",
"293 650 OFFCURVE",
"332 668 CURVE",
"332 703 LINE",
"275 686 OFFCURVE",
"237 639 OFFCURVE",
"237 576 CURVE SMOOTH",
"237 529 LINE",
"273 529 LINE",
"273 576 LINE SMOOTH"
);
},
{
closed = 1;
nodes = (
"442 414 OFFCURVE",
"360 460 OFFCURVE",
"273 460 CURVE SMOOTH",
"142 460 OFFCURVE",
"35 353 OFFCURVE",
"35 224 CURVE SMOOTH",
"35 95 OFFCURVE",
"142 -12 OFFCURVE",
"273 -12 CURVE SMOOTH",
"356 -12 OFFCURVE",
"442 36 OFFCURVE",
"478 109 CURVE",
"478 42 LINE SMOOTH",
"478 -95 OFFCURVE",
"395 -180 OFFCURVE",
"278 -180 CURVE SMOOTH",
"201 -180 OFFCURVE",
"118 -132 OFFCURVE",
"83 -68 CURVE",
"83 -114 LINE",
"123 -170 OFFCURVE",
"202 -208 OFFCURVE",
"278 -208 CURVE SMOOTH",
"417 -208 OFFCURVE",
"510 -113 OFFCURVE",
"510 42 CURVE SMOOTH",
"510 450 LINE",
"478 450 LINE",
"478 338 LINE"
);
},
{
closed = 1;
nodes = (
"67 337 OFFCURVE",
"162 432 OFFCURVE",
"275 432 CURVE SMOOTH",
"387 432 OFFCURVE",
"479 337 OFFCURVE",
"479 224 CURVE SMOOTH",
"479 111 OFFCURVE",
"387 16 OFFCURVE",
"275 16 CURVE SMOOTH",
"162 16 OFFCURVE",
"67 111 OFFCURVE",
"67 224 CURVE SMOOTH"
);
}
);
width = 570;
},
{
associatedMasterId = "6418A72B-B7AF-4A99-B2A7-67092BA5BFD7";
layerId = "6380945A-62DE-4A94-AAE3-6420529E32D8";
name = "Regular Jul 8 16, 13:47";
paths = (
{
closed = 1;
nodes = (
"273 619 OFFCURVE",
"293 650 OFFCURVE",
"332 668 CURVE",
"332 703 LINE",
"275 686 OFFCURVE",
"237 639 OFFCURVE",
"237 576 CURVE SMOOTH",
"237 529 LINE",
"273 529 LINE",
"273 576 LINE SMOOTH"
);
},
{
closed = 1;
nodes = (
"442 414 OFFCURVE",
"360 460 OFFCURVE",
"273 460 CURVE SMOOTH",
"142 460 OFFCURVE",
"35 353 OFFCURVE",
"35 224 CURVE SMOOTH",
"35 95 OFFCURVE",
"142 -12 OFFCURVE",
"273 -12 CURVE SMOOTH",
"356 -12 OFFCURVE",
"442 36 OFFCURVE",
"478 109 CURVE",
"478 42 LINE SMOOTH",
"478 -95 OFFCURVE",
"395 -180 OFFCURVE",
"278 -180 CURVE SMOOTH",
"201 -180 OFFCURVE",
"118 -132 OFFCURVE",
"83 -68 CURVE",
"83 -114 LINE",
"123 -170 OFFCURVE",
"202 -208 OFFCURVE",
"278 -208 CURVE SMOOTH",
"417 -208 OFFCURVE",
"510 -113 OFFCURVE",
"510 42 CURVE SMOOTH",
"510 450 LINE",
"478 450 LINE",
"478 338 LINE"
);
},
{
closed = 1;
nodes = (
"67 337 OFFCURVE",
"162 432 OFFCURVE",
"275 432 CURVE SMOOTH",
"387 432 OFFCURVE",
"479 337 OFFCURVE",
"479 224 CURVE SMOOTH",
"479 111 OFFCURVE",
"387 16 OFFCURVE",
"275 16 CURVE SMOOTH",
"162 16 OFFCURVE",
"67 111 OFFCURVE",
"67 224 CURVE SMOOTH"
);
}
);
width = 570;
}
);
leftKerningGroup = g;
note = uni0123;
rightKerningGroup = g;
unicode = 0123;
},
{
glyphname = h;
lastChange = "2016-07-08 17:15:30 +0000";
layers = (
{
anchors = (
{
name = bottom;
position = "{262, 0}";
},
{
name = center;
position = "{262, 225}";
},
{
name = top;
position = "{162, 750}";
}
);
background = {
paths = (
{
closed = 1;
nodes = (
"92 358 OFFCURVE",
"169 433 OFFCURVE",
"266 433 CURVE SMOOTH",
"372 433 OFFCURVE",
"432 371 OFFCURVE",
"432 262 CURVE SMOOTH",
"432 0 LINE",
"464 0 LINE",
"464 262 LINE SMOOTH",
"464 389 OFFCURVE",
"393 461 OFFCURVE",
"266 461 CURVE SMOOTH",
"197 461 OFFCURVE",
"121 416 OFFCURVE",
"92 359 CURVE",
"92 750 LINE",
"60 750 LINE",
"60 0 LINE",
"92 0 LINE",
"92 262 LINE SMOOTH"
);
}
);
};
layerId = "6418A72B-B7AF-4A99-B2A7-67092BA5BFD7";
paths = (
{
closed = 1;
nodes = (
"92 358 OFFCURVE",
"169 433 OFFCURVE",
"266 433 CURVE SMOOTH",
"372 433 OFFCURVE",
"432 371 OFFCURVE",
"432 262 CURVE SMOOTH",
"432 0 LINE",
"464 0 LINE",
"464 262 LINE SMOOTH",
"464 389 OFFCURVE",
"393 461 OFFCURVE",
"266 461 CURVE SMOOTH",
"197 461 OFFCURVE",
"121 418 OFFCURVE",
"92 357 CURVE",
"92 750 LINE",
"60 750 LINE",
"60 0 LINE",
"92 0 LINE",
"92 262 LINE SMOOTH"
);
}
);
width = 524;
}
);
leftKerningGroup = h;
leftMetricsKey = l;
note = h;
rightKerningGroup = n;
rightMetricsKey = n;
unicode = 0068;
},
{
glyphname = hbar;
lastChange = "2016-07-09 16:56:19 +0000";
layers = (
{
components = (
{
name = h;
transform = "{1, 0, 0, 1, 35, 0}";
}
);
layerId = "6418A72B-B7AF-4A99-B2A7-67092BA5BFD7";
paths = (
{
closed = 1;
nodes = (
"0 610 LINE",
"0 582 LINE",
"266 582 LINE",
"266 610 LINE"
);
}
);
width = 559;
}
);
leftKerningGroup = h;
note = hbar;
rightKerningGroup = n;
unicode = 0127;
},
{
glyphname = i;
lastChange = "2016-07-09 17:09:15 +0000";
layers = (
{
background = {
components = (
{
name = periodcentered;
transform = "{1, 0, 0, 1, -10, 297}";
}
);
};
components = (
{
name = periodcentered;
transform = "{1, 0, 0, 1, -10, 297}";
}
);
layerId = "6418A72B-B7AF-4A99-B2A7-67092BA5BFD7";
paths = (
{
closed = 1;
nodes = (
"83 0 LINE",
"115 0 LINE",
"115 450 LINE",
"83 450 LINE"
);
}
);
width = 198;
}
);
leftKerningGroup = i;
note = i;
rightKerningGroup = i;
unicode = 0069;
},
{
glyphname = idotless;
lastChange = "2016-07-09 03:56:52 +0000";
layers = (
{
anchors = (
{
name = bottom;
position = "{89, 0}";
},
{
name = ogonek;
position = "{160, 10}";
},
{
name = top;
position = "{89, 450}";
}
);
layerId = "6418A72B-B7AF-4A99-B2A7-67092BA5BFD7";
paths = (
{
closed = 1;
nodes = (
"73 0 LINE",
"105 0 LINE",
"105 449 LINE",
"73 449 LINE"
);
}
);
width = 178;
}
);
leftKerningGroup = idotless;
note = dotlessi;
rightKerningGroup = idotless;
unicode = 0131;
},
{
glyphname = iacute;
lastChange = "2016-07-08 17:10:57 +0000";
layers = (
{
anchors = (
{
name = _top;
position = "{106, 450}";
},
{
name = top;
position = "{106, 644}";
}
);
components = (
{
name = idotless;
}
);
layerId = "6418A72B-B7AF-4A99-B2A7-67092BA5BFD7";
paths = (
{
closed = 1;
nodes = (
"110 529 LINE",
"199 644 LINE",
"158 644 LINE",
"68 529 LINE"
);
}
);
width = 199;
}
);
leftKerningGroup = i;
note = iacute;
rightKerningGroup = i;
unicode = 00ED;
},
{
glyphname = icircumflex;
lastChange = "2016-07-08 17:11:26 +0000";
layers = (
{
anchors = (
{
name = _top;
position = "{89.2, 450}";
},
{
name = top;
position = "{89.2, 644}";
}
);
components = (
{
name = idotless;
}
);
layerId = "6418A72B-B7AF-4A99-B2A7-67092BA5BFD7";
paths = (
{
closed = 1;
nodes = (
"-14.4 529 LINE",
"21 529 LINE",
"90 615 LINE",
"157 529 LINE",
"192.8 529 LINE",
"100.4 644 LINE",
"79.4 644 LINE"
);
}
);
width = 178;
}
);
leftKerningGroup = i;
note = icircumflex;
rightKerningGroup = i;
unicode = 00EE;
},
{
glyphname = itilde;
lastChange = "2016-07-08 17:42:09 +0000";
layers = (
{
anchors = (
{
name = _top;
position = "{88.8, 450}";
},
{
name = top;
position = "{88.8, 628}";
}
);
components = (
{
name = idotless;
}
);
layerId = "6418A72B-B7AF-4A99-B2A7-67092BA5BFD7";
paths = (
{
closed = 1;
nodes = (
"136 551 OFFCURVE",
"152 551 CURVE SMOOTH",
"176 551 OFFCURVE",
"194 574 OFFCURVE",
"215 624 CURVE",
"187 624 LINE",
"176 591 OFFCURVE",
"167 577 OFFCURVE",
"152 577 CURVE SMOOTH",
"137 577 OFFCURVE",
"118 586 OFFCURVE",
"95.2 602 CURVE SMOOTH",
"71.2 619 OFFCURVE",
"57 627 OFFCURVE",
"32 627 CURVE SMOOTH",
"7 627 OFFCURVE",
"-21 609 OFFCURVE",
"-38 548 CURVE",
"-10 548 LINE",
"1 585 OFFCURVE",
"15 602 OFFCURVE",
"33 602 CURVE SMOOTH",
"49 602 OFFCURVE",
"68 590 OFFCURVE",
"90.4 575 CURVE SMOOTH",
"118 557 OFFCURVE"
);
}
);
width = 178;
}
);
leftKerningGroup = i;
note = itilde;
rightKerningGroup = i;
unicode = 0129;
},
{
glyphname = j;
lastChange = "2016-07-09 03:36:10 +0000";
layers = (
{
layerId = "6418A72B-B7AF-4A99-B2A7-67092BA5BFD7";
paths = (
{
closed = 1;
nodes = (
"66 -198 OFFCURVE",
"143 -128 OFFCURVE",
"143 -29 CURVE SMOOTH",
"143 450 LINE",
"111 450 LINE",
"111 -29 LINE SMOOTH",
"111 -110 OFFCURVE",
"49 -170 OFFCURVE",
"-30 -170 CURVE",
"-30 -198 LINE"
);
},
{
closed = 1;
nodes = (
"147 559 OFFCURVE",
"157 568 OFFCURVE",
"157 586 CURVE SMOOTH",
"157 604 OFFCURVE",
"147 613 OFFCURVE",
"128 613 CURVE SMOOTH",
"109 613 OFFCURVE",
"99 604 OFFCURVE",
"99 586 CURVE SMOOTH",
"99 568 OFFCURVE",
"109 559 OFFCURVE",
"128 559 CURVE SMOOTH"
);
}
);
width = 227;
}
);
leftKerningGroup = j;
note = j;
rightKerningGroup = j;
unicode = 006A;
},
{
glyphname = jcircumflex;
lastChange = "2016-07-08 17:02:49 +0000";
layers = (
{
layerId = "6418A72B-B7AF-4A99-B2A7-67092BA5BFD7";
paths = (
{
closed = 1;
nodes = (
"91 -198 OFFCURVE",
"168 -128 OFFCURVE",
"168 -29 CURVE SMOOTH",
"168 450 LINE",
"136 450 LINE",
"136 -29 LINE SMOOTH",
"136 -110 OFFCURVE",
"74 -170 OFFCURVE",
"-5 -170 CURVE",
"-5 -198 LINE"
);
},
{
closed = 1;
nodes = (
"0 529 LINE",
"42 529 LINE",
"148 620 LINE",
"255 529 LINE",
"296 529 LINE",
"164 644 LINE",
"134 644 LINE"
);
}
);
width = 242;
}
);
leftKerningGroup = j;
note = jcircumflex;
rightKerningGroup = j;
unicode = 0135;
},
{
glyphname = k;
lastChange = "2016-07-08 17:47:37 +0000";
layers = (
{
anchors = (
{
name = bottom;
position = "{194, 0}";
},
{
name = top;
position = "{194, 450}";
}
);
layerId = "6418A72B-B7AF-4A99-B2A7-67092BA5BFD7";
paths = (
{
closed = 1;
nodes = (
"92 0 LINE",
"92 244 LINE",
"323 0 LINE",
"363 0 LINE",
"105 270 LINE",
"311 450 LINE",
"270 450 LINE",
"92 294 LINE",
"92 748 LINE",
"60 748 LINE",
"60 0 LINE"
);
}
);
width = 388;
}
);
leftKerningGroup = h;
note = k;
rightKerningGroup = k;
unicode = 006B;
},
{
glyphname = l;
lastChange = "2016-07-09 16:36:39 +0000";
layers = (
{
anchors = (
{
name = bottom;
position = "{126, 0}";
},
{
name = center;
position = "{126, 225}";
},
{
name = top;
position = "{126, 750}";
},
{
name = topright;
position = "{231, 750}";
}
);
layerId = "6418A72B-B7AF-4A99-B2A7-67092BA5BFD7";
paths = (
{
closed = 1;
nodes = (
"154 19 OFFCURVE",
"92 79 OFFCURVE",
"92 160 CURVE SMOOTH",
"92 750 LINE",
"60 750 LINE",
"60 160 LINE SMOOTH",
"60 61 OFFCURVE",
"136 -9 OFFCURVE",
"231 -9 CURVE",
"231 19 LINE"
);
}
);
width = 251;
}
);
leftKerningGroup = h;
note = l;
rightKerningGroup = l;
unicode = 006C;
},
{
glyphname = lcaron;
lastChange = "2016-07-08 17:02:49 +0000";
layers = (
{
layerId = "6418A72B-B7AF-4A99-B2A7-67092BA5BFD7";
paths = (
{
closed = 1;
nodes = (
"154 19 OFFCURVE",
"92 79 OFFCURVE",
"92 160 CURVE SMOOTH",
"92 750 LINE",
"60 750 LINE",
"60 160 LINE SMOOTH",
"60 61 OFFCURVE",
"136 -9 OFFCURVE",
"231 -9 CURVE",
"231 19 LINE"
);
},
{
closed = 1;
nodes = (
"247 703 LINE",
"249 709 OFFCURVE",
"250 714 OFFCURVE",
"250 719 CURVE SMOOTH",
"250 740 OFFCURVE",
"239 750 OFFCURVE",
"216 750 CURVE SMOOTH",
"193 750 OFFCURVE",
"181 740 OFFCURVE",
"181 719 CURVE SMOOTH",
"181 698 OFFCURVE",
"191 688 OFFCURVE",
"212 688 CURVE",
"212 632 LINE",
"216 632 LINE"
);
}
);
width = 265;
}
);
leftKerningGroup = h;
note = lcaron;
rightKerningGroup = l;
unicode = 013E;
},
{
glyphname = ldot;
lastChange = "2016-07-08 17:42:58 +0000";
layers = (
{
components = (
{
name = l;
},
{
name = periodcentered;
transform = "{1, 0, 0, 1, 90, 18}";
}
);
layerId = "6418A72B-B7AF-4A99-B2A7-67092BA5BFD7";
width = 289;
},
{
associatedMasterId = "6418A72B-B7AF-4A99-B2A7-67092BA5BFD7";
layerId = "6FCFECA9-63F9-4C7F-9907-8598C00BFB0F";
name = "Regular Jul 8 16, 13:42";
paths = (
{
closed = 1;
nodes = (
"154 19 OFFCURVE",
"92 79 OFFCURVE",
"92 160 CURVE SMOOTH",
"92 750 LINE",
"60 750 LINE",
"60 160 LINE SMOOTH",
"60 61 OFFCURVE",
"136 -9 OFFCURVE",
"231 -9 CURVE",
"231 19 LINE"
);
},
{
closed = 1;
nodes = (
"234 261 OFFCURVE",
"244 271 OFFCURVE",
"244 292 CURVE SMOOTH",
"244 313 OFFCURVE",
"234 323 OFFCURVE",
"213 323 CURVE SMOOTH",
"192 323 OFFCURVE",
"182 313 OFFCURVE",
"182 292 CURVE SMOOTH",
"182 271 OFFCURVE",
"192 261 OFFCURVE",
"213 261 CURVE SMOOTH"
);
}
);
width = 289;
}
);
leftKerningGroup = h;
note = ldot;
rightKerningGroup = l;
unicode = 0140;
},
{
glyphname = lslash;
lastChange = "2016-07-08 17:02:49 +0000";
layers = (
{
layerId = "6418A72B-B7AF-4A99-B2A7-67092BA5BFD7";
paths = (
{
closed = 1;
nodes = (
"183 19 OFFCURVE",
"121 79 OFFCURVE",
"121 160 CURVE SMOOTH",
"121 294 LINE",
"248 421 LINE",
"228 441 LINE",
"121 334 LINE",
"121 750 LINE",
"89 750 LINE",
"89 302 LINE",
"8 221 LINE",
"28 201 LINE",
"89 262 LINE",
"89 160 LINE SMOOTH",
"89 61 OFFCURVE",
"165 -9 OFFCURVE",
"260 -9 CURVE",
"260 19 LINE"
);
}
);
width = 282;
}
);
leftKerningGroup = lslash;
note = lslash;
rightKerningGroup = lslash;
unicode = 0142;
},
{
glyphname = m;
lastChange = "2016-07-08 17:02:49 +0000";
layers = (
{
background = {
components = (
{
name = n;
transform = "{1, 0, 0, 1, -70, 0}";
}
);
};
layerId = "6418A72B-B7AF-4A99-B2A7-67092BA5BFD7";
paths = (
{
closed = 1;
nodes = (
"355 428 OFFCURVE",
"302 461 OFFCURVE",
"240 461 CURVE SMOOTH",
"168 461 OFFCURVE",
"120 430 OFFCURVE",
"92 382 CURVE",
"92 450 LINE",
"60 450 LINE",
"60 0 LINE",
"92 0 LINE",
"92 300 LINE SMOOTH",
"92 374 OFFCURVE",
"162 433 OFFCURVE",
"234 433 CURVE SMOOTH",
"304 433 OFFCURVE",
"356 378 OFFCURVE",
"356 280 CURVE SMOOTH",
"356 0 LINE",
"388 0 LINE",
"388 288 LINE SMOOTH",
"388 369 OFFCURVE",
"455 433 OFFCURVE",
"536 433 CURVE SMOOTH",
"605 433 OFFCURVE",
"654 384 OFFCURVE",
"654 298 CURVE SMOOTH",
"654 0 LINE",
"686 0 LINE",
"686 298 LINE SMOOTH",
"686 402 OFFCURVE",
"631 461 OFFCURVE",
"533 461 CURVE SMOOTH",
"458 461 OFFCURVE",
"392 416 OFFCURVE",
"375 351 CURVE"
);
}
);
width = 746;
},
{
associatedMasterId = "6418A72B-B7AF-4A99-B2A7-67092BA5BFD7";
layerId = "CD976AB7-4CBA-4FD2-BCC3-177901E3DA16";
name = "Regular Jul 8 16, 11:05";
paths = (
{
closed = 1;
nodes = (
"348 418 OFFCURVE",
"290 461 OFFCURVE",
"234 461 CURVE SMOOTH",
"177 461 OFFCURVE",
"119 427 OFFCURVE",
"92 387 CURVE",
"92 450 LINE",
"60 450 LINE",
"60 0 LINE",
"92 0 LINE",
"92 300 LINE SMOOTH",
"92 371 OFFCURVE",
"154 433 OFFCURVE",
"226 433 CURVE SMOOTH",
"298 433 OFFCURVE",
"356 372 OFFCURVE",
"356 300 CURVE SMOOTH",
"356 0 LINE",
"388 0 LINE",
"388 300 LINE SMOOTH",
"388 371 OFFCURVE",
"453 433 OFFCURVE",
"525 433 CURVE SMOOTH",
"596 433 OFFCURVE",
"654 375 OFFCURVE",
"654 298 CURVE SMOOTH",
"654 0 LINE",
"686 0 LINE",
"686 298 LINE SMOOTH",
"686 398 OFFCURVE",
"614 461 OFFCURVE",
"533 461 CURVE SMOOTH",
"452 461 OFFCURVE",
"392 419 OFFCURVE",
"372 355 CURVE"
);
}
);
width = 746;
}
);
leftKerningGroup = n;
note = m;
rightKerningGroup = n;
unicode = 006D;
},
{
glyphname = n;
lastChange = "2016-07-09 03:20:56 +0000";
layers = (
{
anchors = (
{
name = bottom;
position = "{262, 0}";
},
{
name = top;
position = "{281, 450}";
}
);
layerId = "6418A72B-B7AF-4A99-B2A7-67092BA5BFD7";
paths = (
{
closed = 1;
nodes = (
"92 358 OFFCURVE",
"178 433 OFFCURVE",
"278 433 CURVE SMOOTH",
"376 433 OFFCURVE",
"432 371 OFFCURVE",
"432 262 CURVE SMOOTH",
"432 0 LINE",
"464 0 LINE",
"464 262 LINE SMOOTH",
"464 389 OFFCURVE",
"393 461 OFFCURVE",
"268 461 CURVE SMOOTH",
"198 461 OFFCURVE",
"121 416 OFFCURVE",
"92 350 CURVE",
"92 450 LINE",
"60 450 LINE",
"60 0 LINE",
"92 0 LINE",
"92 252 LINE SMOOTH"
);
}
);
width = 524;
},
{
associatedMasterId = "6418A72B-B7AF-4A99-B2A7-67092BA5BFD7";
layerId = "649D6E2A-993D-4E72-B353-0706BBC0A8F7";
name = "Regular Jul 8 16, 10:03";
paths = (
{
closed = 1;
nodes = (
"92 354 OFFCURVE",
"174 433 OFFCURVE",
"266 433 CURVE SMOOTH",
"358 433 OFFCURVE",
"432 354 OFFCURVE",
"432 262 CURVE SMOOTH",
"432 0 LINE",
"464 0 LINE",
"464 262 LINE SMOOTH",
"464 373 OFFCURVE",
"378 461 OFFCURVE",
"266 461 CURVE SMOOTH",
"184 461 OFFCURVE",
"126 427 OFFCURVE",
"92 359 CURVE",
"92 450 LINE",
"60 450 LINE",
"60 0 LINE",
"92 0 LINE",
"92 262 LINE SMOOTH"
);
}
);
width = 524;
}
);
leftKerningGroup = n;
note = n;
rightKerningGroup = n;
unicode = 006E;
},
{
glyphname = napostrophe;
lastChange = "2016-07-08 17:02:49 +0000";
layers = (
{
layerId = "6418A72B-B7AF-4A99-B2A7-67092BA5BFD7";
paths = (
{
closed = 1;
nodes = (
"92 354 OFFCURVE",
"174 433 OFFCURVE",
"266 433 CURVE SMOOTH",
"358 433 OFFCURVE",
"432 354 OFFCURVE",
"432 262 CURVE SMOOTH",
"432 0 LINE",
"464 0 LINE",
"464 262 LINE SMOOTH",
"464 373 OFFCURVE",
"378 461 OFFCURVE",
"266 461 CURVE SMOOTH",
"184 461 OFFCURVE",
"126 427 OFFCURVE",
"92 359 CURVE",
"92 450 LINE",
"60 450 LINE",
"60 0 LINE",
"92 0 LINE",
"92 262 LINE SMOOTH"
);
},
{
closed = 1;
nodes = (
"125 600 LINE",
"127 606 OFFCURVE",
"128 611 OFFCURVE",
"128 616 CURVE SMOOTH",
"128 637 OFFCURVE",
"117 647 OFFCURVE",
"94 647 CURVE SMOOTH",
"71 647 OFFCURVE",
"59 637 OFFCURVE",
"59 616 CURVE SMOOTH",
"59 595 OFFCURVE",
"69 585 OFFCURVE",
"90 585 CURVE",
"90 529 LINE",
"94 529 LINE"
);
}
);
width = 524;
}
);
leftKerningGroup = n;
note = napostrophe;
rightKerningGroup = n;
unicode = 0149;
},
{
glyphname = o;
lastChange = "2016-07-08 18:08:29 +0000";
layers = (
{
anchors = (
{
name = bottom;
position = "{273, 0}";
},
{
name = center;
position = "{273, 225}";
},
{
name = ogonek;
position = "{491, 10}";
},
{
name = top;
position = "{273, 450}";
},
{
name = topright;
position = "{526, 450}";
}
);
layerId = "6418A72B-B7AF-4A99-B2A7-67092BA5BFD7";
paths = (
{
closed = 1;
nodes = (
"416 -16 OFFCURVE",
"511 92 OFFCURVE",
"511 227 CURVE SMOOTH",
"511 357 OFFCURVE",
"410 466 OFFCURVE",
"274 466 CURVE SMOOTH",
"137 466 OFFCURVE",
"35 357 OFFCURVE",
"35 227 CURVE SMOOTH",
"35 97 OFFCURVE",
"136 -16 OFFCURVE",
"275 -16 CURVE SMOOTH"
);
},
{
closed = 1;
nodes = (
"479 109 OFFCURVE",
"392 12 OFFCURVE",
"275 12 CURVE SMOOTH",
"157 12 OFFCURVE",
"67 109 OFFCURVE",
"67 224 CURVE SMOOTH",
"67 339 OFFCURVE",
"157 438 OFFCURVE",
"274 438 CURVE SMOOTH",
"391 438 OFFCURVE",
"479 340 OFFCURVE",
"479 225 CURVE SMOOTH"
);
}
);
width = 546;
}
);
leftKerningGroup = o;
note = o;
rightKerningGroup = o;
unicode = 006F;
},
{
glyphname = oslash;
lastChange = "2016-07-08 17:12:26 +0000";
layers = (
{
anchors = (
{
name = top;
position = "{278, 450}";
}
);
background = {
components = (
{
name = o;
}
);
};
components = (
{
name = o;
}
);
layerId = "6418A72B-B7AF-4A99-B2A7-67092BA5BFD7";
paths = (
{
closed = 1;
nodes = (
"467 450 LINE",
"428 450 LINE",
"93 0 LINE",
"130 0 LINE"
);
}
);
width = 556;
}
);
leftKerningGroup = o;
note = oslash;
rightKerningGroup = o;
unicode = 00F8;
},
{
glyphname = oe;
lastChange = "2016-07-08 17:02:49 +0000";
layers = (
{
layerId = "6418A72B-B7AF-4A99-B2A7-67092BA5BFD7";
paths = (
{
closed = 1;
nodes = (
"357 -11 OFFCURVE",
"406 8 OFFCURVE",
"449 47 CURVE",
"492 10 OFFCURVE",
"540 -9 OFFCURVE",
"595 -9 CURVE SMOOTH",
"610 -9 LINE SMOOTH",
"677 -9 OFFCURVE",
"735 17 OFFCURVE",
"782 69 CURVE",
"782 120 LINE",
"741 59 OFFCURVE",
"676 19 OFFCURVE",
"596 19 CURVE SMOOTH",
"556 19 OFFCURVE",
"515 36 OFFCURVE",
"472 70 CURVE",
"785 381 LINE",
"736 436 OFFCURVE",
"675 463 OFFCURVE",
"603 463 CURVE SMOOTH",
"546 463 OFFCURVE",
"494 444 OFFCURVE",
"448 405 CURVE",
"402 442 OFFCURVE",
"348 461 OFFCURVE",
"287 461 CURVE SMOOTH",
"164 461 OFFCURVE",
"55 354 OFFCURVE",
"55 227 CURVE SMOOTH",
"55 100 OFFCURVE",
"161 -11 OFFCURVE",
"285 -11 CURVE SMOOTH",
"300 -11 LINE SMOOTH"
);
},
{
closed = 1;
nodes = (
"499 112 OFFCURVE",
"407 17 OFFCURVE",
"295 17 CURVE SMOOTH",
"182 17 OFFCURVE",
"87 112 OFFCURVE",
"87 224 CURVE SMOOTH",
"87 336 OFFCURVE",
"182 433 OFFCURVE",
"294 433 CURVE SMOOTH",
"406 433 OFFCURVE",
"499 337 OFFCURVE",
"499 225 CURVE SMOOTH"
);
},
{
closed = 1;
nodes = (
"528 181 OFFCURVE",
"531 202 OFFCURVE",
"531 225 CURVE SMOOTH",
"531 285 OFFCURVE",
"510 338 OFFCURVE",
"469 383 CURVE",
"508 418 OFFCURVE",
"553 435 OFFCURVE",
"604 435 CURVE SMOOTH",
"654 435 OFFCURVE",
"700 417 OFFCURVE",
"741 381 CURVE",
"522 161 LINE"
);
}
);
width = 820;
}
);
leftKerningGroup = o;
note = oe;
rightKerningGroup = e;
unicode = 0153;
},
{
glyphname = p;
lastChange = "2016-07-08 17:02:49 +0000";
layers = (
{
layerId = "6418A72B-B7AF-4A99-B2A7-67092BA5BFD7";
paths = (
{
closed = 1;
nodes = (
"92 109 LINE",
"132 36 OFFCURVE",
"216 -11 OFFCURVE",
"296 -11 CURVE SMOOTH",
"428 -11 OFFCURVE",
"534 96 OFFCURVE",
"534 225 CURVE SMOOTH",
"534 354 OFFCURVE",
"428 461 OFFCURVE",
"296 461 CURVE SMOOTH",
"213 461 OFFCURVE",
"128 413 OFFCURVE",
"92 340 CURVE",
"92 450 LINE",
"60 450 LINE",
"60 -200 LINE",
"92 -200 LINE"
);
},
{
closed = 1;
nodes = (
"90 336 OFFCURVE",
"185 433 OFFCURVE",
"297 433 CURVE SMOOTH",
"409 433 OFFCURVE",
"502 337 OFFCURVE",
"502 225 CURVE SMOOTH",
"502 112 OFFCURVE",
"410 17 OFFCURVE",
"298 17 CURVE SMOOTH",
"185 17 OFFCURVE",
"90 112 OFFCURVE",
"90 224 CURVE SMOOTH"
);
}
);
width = 569;
}
);
leftKerningGroup = p;
note = p;
rightKerningGroup = o;
unicode = 0070;
},
{
glyphname = thorn;
lastChange = "2016-07-08 17:02:49 +0000";
layers = (
{
layerId = "6418A72B-B7AF-4A99-B2A7-67092BA5BFD7";
paths = (
{
closed = 1;
nodes = (
"107 103 LINE",
"151 32 OFFCURVE",
"230 -12 OFFCURVE",
"311 -12 CURVE SMOOTH",
"443 -12 OFFCURVE",
"549 95 OFFCURVE",
"549 224 CURVE SMOOTH",
"549 353 OFFCURVE",
"443 460 OFFCURVE",
"311 460 CURVE SMOOTH",
"231 460 OFFCURVE",
"151 416 OFFCURVE",
"107 345 CURVE",
"107 629 LINE",
"75 629 LINE",
"75 -200 LINE",
"107 -200 LINE"
);
},
{
closed = 1;
nodes = (
"517 111 OFFCURVE",
"425 16 OFFCURVE",
"313 16 CURVE SMOOTH",
"200 16 OFFCURVE",
"105 111 OFFCURVE",
"105 224 CURVE SMOOTH",
"105 337 OFFCURVE",
"200 432 OFFCURVE",
"313 432 CURVE SMOOTH",
"425 432 OFFCURVE",
"517 337 OFFCURVE",
"517 224 CURVE SMOOTH"
);
}
);
width = 589;
}
);
leftKerningGroup = h;
note = thorn;
rightKerningGroup = o;
unicode = 00FE;
},
{
glyphname = q;
lastChange = "2016-07-08 17:02:49 +0000";
layers = (
{
layerId = "6418A72B-B7AF-4A99-B2A7-67092BA5BFD7";
paths = (
{
closed = 1;
nodes = (
"477 337 LINE",
"446 412 OFFCURVE",
"358 461 OFFCURVE",
"273 461 CURVE SMOOTH",
"142 461 OFFCURVE",
"35 354 OFFCURVE",
"35 225 CURVE SMOOTH",
"35 96 OFFCURVE",
"142 -11 OFFCURVE",
"273 -11 CURVE SMOOTH",
"358 -11 OFFCURVE",
"440 36 OFFCURVE",
"477 112 CURVE",
"477 -200 LINE",
"509 -200 LINE",
"509 450 LINE",
"477 450 LINE"
);
},
{
closed = 1;
nodes = (
"67 336 OFFCURVE",
"162 433 OFFCURVE",
"274 433 CURVE SMOOTH",
"386 433 OFFCURVE",
"479 337 OFFCURVE",
"479 225 CURVE SMOOTH",
"479 112 OFFCURVE",
"387 17 OFFCURVE",
"275 17 CURVE SMOOTH",
"162 17 OFFCURVE",
"67 112 OFFCURVE",
"67 224 CURVE SMOOTH"
);
}
);
width = 569;
}
);
leftKerningGroup = o;
note = q;
rightKerningGroup = q;
unicode = 0071;
},
{
glyphname = r;
lastChange = "2016-07-09 03:31:32 +0000";
layers = (
{
anchors = (
{
name = bottom;
position = "{151, 0}";
},
{
name = top;
position = "{181, 450}";
}
);
background = {
components = (
{
name = n;
}
);
};
layerId = "6418A72B-B7AF-4A99-B2A7-67092BA5BFD7";
paths = (
{
closed = 1;
nodes = (
"279 447 OFFCURVE",
"258 451 OFFCURVE",
"238 451 CURVE SMOOTH",
"173 451 OFFCURVE",
"118 411 OFFCURVE",
"92 346 CURVE",
"92 450 LINE",
"60 450 LINE",
"60 0 LINE",
"92 0 LINE",
"92 263 LINE SMOOTH",
"92 349 OFFCURVE",
"163 423 OFFCURVE",
"236 423 CURVE SMOOTH",
"258 423 OFFCURVE",
"281 416 OFFCURVE",
"301 401 CURVE",
"301 438 LINE"
);
}
);
width = 316;
}
);
leftKerningGroup = n;
note = r;
rightKerningGroup = r;
unicode = 0072;
},
{
glyphname = s;
lastChange = "2016-07-08 17:50:01 +0000";
layers = (
{
anchors = (
{
name = bottom;
position = "{172, 0}";
},
{
name = top;
position = "{172, 450}";
}
);
background = {
paths = (
{
closed = 1;
nodes = (
"196 434 OFFCURVE",
"218 418 OFFCURVE",
"239 386 CURVE",
"239 429 LINE",
"218 450 OFFCURVE",
"192 462 OFFCURVE",
"162 462 CURVE SMOOTH",
"102 462 OFFCURVE",
"60 427 OFFCURVE",
"60 376 CURVE SMOOTH",
"60 310 OFFCURVE",
"112 286 OFFCURVE",
"200 233 CURVE SMOOTH",
"243 207 OFFCURVE",
"277 173 OFFCURVE",
"277 121 CURVE SMOOTH",
"277 58 OFFCURVE",
"236 17 OFFCURVE",
"157 17 CURVE SMOOTH",
"101 17 OFFCURVE",
"57 45 OFFCURVE",
"32 101 CURVE",
"32 51 LINE",
"53 14 OFFCURVE",
"105 -11 OFFCURVE",
"158 -11 CURVE SMOOTH",
"245 -11 OFFCURVE",
"309 42 OFFCURVE",
"309 121 CURVE SMOOTH",
"309 206 OFFCURVE",
"259 241 OFFCURVE",
"169 291 CURVE SMOOTH",
"127 314 OFFCURVE",
"93 340 OFFCURVE",
"93 378 CURVE SMOOTH",
"93 414 OFFCURVE",
"124 434 OFFCURVE",
"161 434 CURVE SMOOTH"
);
}
);
};
layerId = "6418A72B-B7AF-4A99-B2A7-67092BA5BFD7";
paths = (
{
closed = 1;
nodes = (
"205 433 OFFCURVE",
"233 420 OFFCURVE",
"254 392 CURVE",
"254 436 LINE",
"235 449 OFFCURVE",
"208 461 OFFCURVE",
"162 461 CURVE SMOOTH",
"102 461 OFFCURVE",
"61 427 OFFCURVE",
"61 373 CURVE SMOOTH",
"61 310 OFFCURVE",
"118 288 OFFCURVE",
"205 235 CURVE SMOOTH",
"249 208 OFFCURVE",
"277 186 OFFCURVE",
"277 126 CURVE SMOOTH",
"277 63 OFFCURVE",
"234 17 OFFCURVE",
"168 17 CURVE SMOOTH",
"99 17 OFFCURVE",
"57 45 OFFCURVE",
"32 101 CURVE",
"32 48 LINE",
"53 14 OFFCURVE",
"105 -11 OFFCURVE",
"170 -11 CURVE SMOOTH",
"245 -11 OFFCURVE",
"309 40 OFFCURVE",
"309 126 CURVE SMOOTH",
"309 195 OFFCURVE",
"272 230 OFFCURVE",
"210 265 CURVE SMOOTH",
"130 310 OFFCURVE",
"93 330 OFFCURVE",
"93 376 CURVE SMOOTH",
"93 410 OFFCURVE",
"123 433 OFFCURVE",
"165 433 CURVE SMOOTH"
);
}
);
width = 344;
}
);
leftKerningGroup = s;
note = s;
rightKerningGroup = s;
unicode = 0073;
},
{
glyphname = germandbls;
lastChange = "2016-07-09 16:53:46 +0000";
layers = (
{
background = {
paths = (
{
closed = 1;
nodes = (
"224 678 LINE",
"286 678 OFFCURVE",
"329 636 OFFCURVE",
"329 570 CURVE SMOOTH",
"329 489 OFFCURVE",
"289 434 OFFCURVE",
"215 434 CURVE SMOOTH",
"200 434 LINE",
"200 406 LINE",
"215 406 LINE SMOOTH",
"344 406 OFFCURVE",
"416 332 OFFCURVE",
"416 216 CURVE SMOOTH",
"416 104 OFFCURVE",
"347 20 OFFCURVE",
"255 20 CURVE SMOOTH",
"212 20 OFFCURVE",
"185 31 OFFCURVE",
"149 53 CURVE",
"149 6 LINE",
"179 -5 OFFCURVE",
"202 -11 OFFCURVE",
"248 -11 CURVE SMOOTH",
"361 -11 OFFCURVE",
"449 80 OFFCURVE",
"449 213 CURVE SMOOTH",
"449 333 OFFCURVE",
"378 413 OFFCURVE",
"277 424 CURVE",
"315 433 OFFCURVE",
"362 491 OFFCURVE",
"362 570 CURVE SMOOTH",
"362 649 OFFCURVE",
"303 706 OFFCURVE",
"222 706 CURVE"
);
}
);
};
layerId = "6418A72B-B7AF-4A99-B2A7-67092BA5BFD7";
paths = (
{
closed = 1;
nodes = (
"361 -11 OFFCURVE",
"449 80 OFFCURVE",
"449 213 CURVE SMOOTH",
"449 333 OFFCURVE",
"378 413 OFFCURVE",
"277 424 CURVE",
"315 435 OFFCURVE",
"362 491 OFFCURVE",
"362 570 CURVE SMOOTH",
"362 649 OFFCURVE",
"303 707 OFFCURVE",
"217 707 CURVE SMOOTH",
"137 707 OFFCURVE",
"75 645 OFFCURVE",
"75 567 CURVE SMOOTH",
"75 0 LINE",
"107 0 LINE",
"107 567 LINE SMOOTH",
"107 629 OFFCURVE",
"155 679 OFFCURVE",
"217 679 CURVE SMOOTH",
"286 679 OFFCURVE",
"330 636 OFFCURVE",
"330 568 CURVE SMOOTH",
"330 489 OFFCURVE",
"289 434 OFFCURVE",
"215 434 CURVE SMOOTH",
"200 434 LINE",
"200 407 LINE",
"215 407 LINE SMOOTH",
"344 407 OFFCURVE",
"417 332 OFFCURVE",
"417 216 CURVE SMOOTH",
"417 104 OFFCURVE",
"347 17 OFFCURVE",
"255 17 CURVE SMOOTH",
"212 17 OFFCURVE",
"185 31 OFFCURVE",
"149 53 CURVE",
"149 8 LINE",
"179 -5 OFFCURVE",
"212 -11 OFFCURVE",
"248 -11 CURVE SMOOTH"
);
}
);
width = 489;
}
);
leftKerningGroup = h;
note = germandbls;
rightKerningGroup = germandbls;
unicode = 00DF;
},
{
glyphname = t;
lastChange = "2016-07-08 17:02:49 +0000";
layers = (
{
layerId = "6418A72B-B7AF-4A99-B2A7-67092BA5BFD7";
paths = (
{
closed = 1;
nodes = (
"144 22 OFFCURVE",
"82 72 OFFCURVE",
"82 163 CURVE SMOOTH",
"82 422 LINE",
"220 422 LINE",
"220 450 LINE",
"82 450 LINE",
"82 631 LINE",
"50 631 LINE",
"50 163 LINE SMOOTH",
"50 54 OFFCURVE",
"126 -6 OFFCURVE",
"221 -6 CURVE",
"221 22 LINE"
);
}
);
width = 241;
}
);
leftKerningGroup = t;
note = t;
rightKerningGroup = t;
unicode = 0074;
},
{
glyphname = tbar;
lastChange = "2016-07-09 03:56:52 +0000";
layers = (
{
layerId = "6418A72B-B7AF-4A99-B2A7-67092BA5BFD7";
paths = (
{
closed = 1;
nodes = (
"155 22 OFFCURVE",
"93 82 OFFCURVE",
"93 163 CURVE SMOOTH",
"93 421 LINE",
"231 421 LINE",
"231 449 LINE",
"93 449 LINE",
"93 524 LINE",
"219 524 LINE",
"219 550 LINE",
"93 550 LINE",
"93 631 LINE",
"61 631 LINE",
"61 550 LINE",
"10 550 LINE",
"10 524 LINE",
"61 524 LINE",
"61 163 LINE SMOOTH",
"61 64 OFFCURVE",
"137 -6 OFFCURVE",
"232 -6 CURVE",
"232 22 LINE"
);
}
);
width = 250;
}
);
leftKerningGroup = t;
note = tbar;
rightKerningGroup = t;
unicode = 0167;
},
{
glyphname = tcaron;
lastChange = "2016-07-09 03:56:52 +0000";
layers = (
{
layerId = "6418A72B-B7AF-4A99-B2A7-67092BA5BFD7";
paths = (
{
closed = 1;
nodes = (
"144 22 OFFCURVE",
"82 82 OFFCURVE",
"82 163 CURVE SMOOTH",
"82 421 LINE",
"220 421 LINE",
"220 449 LINE",
"82 449 LINE",
"82 631 LINE",
"50 631 LINE",
"50 163 LINE SMOOTH",
"50 64 OFFCURVE",
"126 -6 OFFCURVE",
"221 -6 CURVE",
"221 22 LINE"
);
},
{
closed = 1;
nodes = (
"226 584 LINE",
"228 590 OFFCURVE",
"229 595 OFFCURVE",
"229 600 CURVE SMOOTH",
"229 621 OFFCURVE",
"218 631 OFFCURVE",
"195 631 CURVE SMOOTH",
"172 631 OFFCURVE",
"160 621 OFFCURVE",
"160 600 CURVE SMOOTH",
"160 579 OFFCURVE",
"170 569 OFFCURVE",
"191 569 CURVE",
"191 513 LINE",
"195 513 LINE"
);
}
);
width = 274;
}
);
leftKerningGroup = t;
note = tcaron;
rightKerningGroup = t;
unicode = 0165;
},
{
glyphname = tcedilla;
lastChange = "2016-07-09 03:56:52 +0000";
layers = (
{
layerId = "6418A72B-B7AF-4A99-B2A7-67092BA5BFD7";
paths = (
{
closed = 1;
nodes = (
"144 22 OFFCURVE",
"82 82 OFFCURVE",
"82 163 CURVE SMOOTH",
"82 421 LINE",
"220 421 LINE",
"220 449 LINE",
"82 449 LINE",
"82 631 LINE",
"50 631 LINE",
"50 163 LINE SMOOTH",
"50 64 OFFCURVE",
"126 -6 OFFCURVE",
"221 -6 CURVE",
"221 22 LINE"
);
},
{
closed = 1;
nodes = (
"171 -124 LINE",
"173 -118 OFFCURVE",
"174 -113 OFFCURVE",
"174 -108 CURVE SMOOTH",
"174 -87 OFFCURVE",
"163 -77 OFFCURVE",
"140 -77 CURVE SMOOTH",
"117 -77 OFFCURVE",
"105 -87 OFFCURVE",
"105 -108 CURVE SMOOTH",
"105 -129 OFFCURVE",
"115 -139 OFFCURVE",
"136 -139 CURVE",
"136 -195 LINE",
"140 -195 LINE"
);
}
);
width = 241;
}
);
leftKerningGroup = t;
note = uni0163;
rightKerningGroup = t;
unicode = 0163;
},
{
glyphname = u;
lastChange = "2016-07-09 03:36:20 +0000";
layers = (
{
anchors = (
{
name = bottom;
position = "{262, 0}";
},
{
name = bottomright;
position = "{442, 0}";
},
{
name = ogonek;
position = "{464, 10}";
},
{
name = top;
position = "{272, 450}";
},
{
name = topright;
position = "{494, 450}";
}
);
layerId = "6418A72B-B7AF-4A99-B2A7-67092BA5BFD7";
paths = (
{
closed = 1;
nodes = (
"432 85 OFFCURVE",
"355 17 OFFCURVE",
"258 17 CURVE SMOOTH",
"152 17 OFFCURVE",
"92 79 OFFCURVE",
"92 188 CURVE SMOOTH",
"92 450 LINE",
"60 450 LINE",
"60 188 LINE SMOOTH",
"60 61 OFFCURVE",
"131 -11 OFFCURVE",
"258 -11 CURVE SMOOTH",
"339 -11 OFFCURVE",
"403 30 OFFCURVE",
"432 84 CURVE",
"432 0 LINE",
"464 0 LINE",
"464 450 LINE",
"432 450 LINE",
"432 188 LINE SMOOTH"
);
}
);
width = 524;
},
{
anchors = (
{
name = bottom;
position = "{252, 0}";
},
{
name = bottomright;
position = "{432, 0}";
},
{
name = ogonek;
position = "{454, 10}";
},
{
name = top;
position = "{252, 450}";
},
{
name = topright;
position = "{484, 450}";
}
);
associatedMasterId = "6418A72B-B7AF-4A99-B2A7-67092BA5BFD7";
layerId = "EED2F148-47E7-4DCB-ADAE-608EDCEBFB67";
name = "Regular Jul 8 16, 11:05";
paths = (
{
closed = 1;
nodes = (
"422 96 OFFCURVE",
"340 17 OFFCURVE",
"248 17 CURVE SMOOTH",
"156 17 OFFCURVE",
"82 96 OFFCURVE",
"82 188 CURVE SMOOTH",
"82 450 LINE",
"50 450 LINE",
"50 188 LINE SMOOTH",
"50 77 OFFCURVE",
"136 -11 OFFCURVE",
"248 -11 CURVE SMOOTH",
"330 -11 OFFCURVE",
"388 23 OFFCURVE",
"422 91 CURVE",
"422 0 LINE",
"454 0 LINE",
"454 450 LINE",
"422 450 LINE",
"422 188 LINE SMOOTH"
);
}
);
width = 504;
}
);
leftKerningGroup = u;
note = u;
rightKerningGroup = u;
rightMetricsKey = "=|n";
unicode = 0075;
},
{
glyphname = uogonek;
lastChange = "2016-07-09 03:56:52 +0000";
layers = (
{
components = (
{
name = u;
},
{
name = ogonekcomb;
transform = "{1, 0, 0, 1, 334, 0}";
}
);
layerId = "6418A72B-B7AF-4A99-B2A7-67092BA5BFD7";
width = 524;
},
{
associatedMasterId = "6418A72B-B7AF-4A99-B2A7-67092BA5BFD7";
layerId = "8A709EF0-674A-4C96-A260-85E6DDB9746C";
name = "Regular Jul 8 16, 12:38";
paths = (
{
closed = 1;
nodes = (
"422 96 OFFCURVE",
"340 17 OFFCURVE",
"248 17 CURVE SMOOTH",
"156 17 OFFCURVE",
"82 96 OFFCURVE",
"82 188 CURVE SMOOTH",
"82 450 LINE",
"50 450 LINE",
"50 188 LINE SMOOTH",
"50 77 OFFCURVE",
"136 -11 OFFCURVE",
"248 -11 CURVE SMOOTH",
"330 -11 OFFCURVE",
"388 23 OFFCURVE",
"422 91 CURVE",
"422 0 LINE",
"425 0 LINE",
"339 -123 LINE",
"339 -130 LINE SMOOTH",
"339 -170 OFFCURVE",
"370 -200 OFFCURVE",
"414 -200 CURVE SMOOTH",
"454 -200 LINE",
"454 -175 LINE",
"416 -175 LINE SMOOTH",
"385 -175 OFFCURVE",
"366 -153 OFFCURVE",
"366 -125 CURVE",
"453 0 LINE",
"454 0 LINE",
"454 450 LINE",
"422 450 LINE",
"422 188 LINE SMOOTH"
);
}
);
width = 504;
}
);
leftKerningGroup = u;
note = uogonek;
rightKerningGroup = u;
unicode = 0173;
},
{
glyphname = v;
lastChange = "2016-07-08 17:02:49 +0000";
layers = (
{
layerId = "6418A72B-B7AF-4A99-B2A7-67092BA5BFD7";
paths = (
{
closed = 1;
nodes = (
"40 450 LINE",
"5 450 LINE",
"227 -13 LINE",
"448 450 LINE",
"413 450 LINE",
"215 34 LINE",
"240 34 LINE"
);
}
);
width = 453;
}
);
leftKerningGroup = v;
note = v;
rightKerningGroup = v;
unicode = 0076;
},
{
glyphname = w;
lastChange = "2016-07-08 17:02:49 +0000";
layers = (
{
anchors = (
{
name = bottom;
position = "{322, 0}";
},
{
name = top;
position = "{322, 450}";
}
);
layerId = "6418A72B-B7AF-4A99-B2A7-67092BA5BFD7";
paths = (
{
closed = 1;
nodes = (
"324 208 LINE",
"426 -11 LINE",
"639 449 LINE",
"610 449 LINE",
"427 55 LINE",
"341 240 LINE",
"439 450 LINE",
"409 450 LINE",
"326 271 LINE",
"245 448 LINE",
"213 448 LINE",
"310 240 LINE",
"223 57 LINE",
"38 450 LINE",
"5 450 LINE",
"221 -11 LINE"
);
}
);
width = 644;
}
);
leftKerningGroup = w;
note = w;
rightKerningGroup = w;
unicode = 0077;
},
{
glyphname = x;
lastChange = "2016-07-08 17:02:49 +0000";
layers = (
{
layerId = "6418A72B-B7AF-4A99-B2A7-67092BA5BFD7";
paths = (
{
closed = 1;
nodes = (
"216 291 LINE",
"111 450 LINE",
"74 450 LINE",
"198 263 LINE"
);
},
{
closed = 1;
nodes = (
"212 252 LINE",
"379 0 LINE",
"416 0 LINE",
"230 280 LINE"
);
},
{
closed = 1;
nodes = (
"348 450 LINE",
"316 450 LINE",
"21 0 LINE",
"53 0 LINE"
);
}
);
width = 433;
}
);
leftKerningGroup = x;
note = x;
rightKerningGroup = x;
unicode = 0078;
},
{
glyphname = y;
lastChange = "2016-07-08 17:02:49 +0000";
layers = (
{
anchors = (
{
name = bottom;
position = "{252, 0}";
},
{
name = top;
position = "{252, 450}";
}
);
layerId = "6418A72B-B7AF-4A99-B2A7-67092BA5BFD7";
paths = (
{
closed = 1;
nodes = (
"422 96 OFFCURVE",
"344 17 OFFCURVE",
"252 17 CURVE SMOOTH",
"160 17 OFFCURVE",
"82 96 OFFCURVE",
"82 188 CURVE SMOOTH",
"82 450 LINE",
"50 450 LINE",
"50 188 LINE SMOOTH",
"50 79 OFFCURVE",
"140 -11 OFFCURVE",
"251 -11 CURVE SMOOTH",
"332 -11 OFFCURVE",
"389 22 OFFCURVE",
"422 87 CURVE",
"422 11 LINE SMOOTH",
"422 -89 OFFCURVE",
"339 -171 OFFCURVE",
"240 -171 CURVE SMOOTH",
"173 -171 OFFCURVE",
"108 -130 OFFCURVE",
"69 -66 CURVE",
"69 -116 LINE",
"111 -171 OFFCURVE",
"168 -199 OFFCURVE",
"240 -199 CURVE SMOOTH",
"360 -199 OFFCURVE",
"454 -105 OFFCURVE",
"454 14 CURVE SMOOTH",
"454 450 LINE",
"422 450 LINE",
"422 188 LINE SMOOTH"
);
}
);
width = 504;
}
);
leftKerningGroup = y;
note = y;
rightKerningGroup = y;
unicode = 0079;
},
{
glyphname = z;
lastChange = "2016-07-08 17:02:49 +0000";
layers = (
{
anchors = (
{
name = bottom;
position = "{182, 0}";
},
{
name = top;
position = "{182, 450}";
}
);
layerId = "6418A72B-B7AF-4A99-B2A7-67092BA5BFD7";
paths = (
{
closed = 1;
nodes = (
"338 450 LINE",
"52 450 LINE",
"52 422 LINE",
"281 422 LINE",
"25 0 LINE",
"335 0 LINE",
"335 28 LINE",
"81 28 LINE"
);
}
);
width = 363;
}
);
leftKerningGroup = z;
note = z;
rightKerningGroup = z;
unicode = 007A;
},
{
glyphname = f_f;
lastChange = "2016-07-09 17:13:06 +0000";
layers = (
{
components = (
{
name = f;
transform = "{1, 0, 0, 1, 233, 0}";
}
);
layerId = "6418A72B-B7AF-4A99-B2A7-67092BA5BFD7";
paths = (
{
closed = 1;
nodes = (
"135 638 OFFCURVE",
"60 564 OFFCURVE",
"60 469 CURVE SMOOTH",
"60 0 LINE",
"92 0 LINE",
"92 469 LINE",
"92 548 OFFCURVE",
"153 610 OFFCURVE",
"231 610 CURVE",
"231 638 LINE"
);
},
{
closed = 1;
nodes = (
"325 422 LINE",
"325 450 LINE",
"92 450 LINE",
"92 422 LINE"
);
}
);
width = 485;
}
);
leftKerningGroup = f;
leftMetricsKey = f;
note = f_f;
rightKerningGroup = f;
rightMetricsKey = f;
},
{
glyphname = f_f_i;
lastChange = "2016-07-09 17:10:25 +0000";
layers = (
{
background = {
components = (
{
name = fi;
transform = "{1, 0, 0, 1, 234, 0}";
}
);
paths = (
{
closed = 1;
nodes = (
"135 638 OFFCURVE",
"60 564 OFFCURVE",
"60 469 CURVE SMOOTH",
"60 0 LINE",
"92 0 LINE",
"92 469 LINE",
"92 548 OFFCURVE",
"153 610 OFFCURVE",
"231 610 CURVE",
"231 638 LINE"
);
},
{
closed = 1;
nodes = (
"311 422 LINE",
"311 450 LINE",
"92 450 LINE",
"92 422 LINE"
);
}
);
};
components = (
{
name = fi;
transform = "{1, 0, 0, 1, 234, 0}";
}
);
layerId = "6418A72B-B7AF-4A99-B2A7-67092BA5BFD7";
paths = (
{
closed = 1;
nodes = (
"135 638 OFFCURVE",
"60 564 OFFCURVE",
"60 469 CURVE SMOOTH",
"60 0 LINE",
"92 0 LINE",
"92 469 LINE",
"92 548 OFFCURVE",
"153 610 OFFCURVE",
"231 610 CURVE",
"231 638 LINE"
);
},
{
closed = 1;
nodes = (
"311 422 LINE",
"311 450 LINE",
"92 450 LINE",
"92 422 LINE"
);
}
);
width = 654;
}
);
leftKerningGroup = f;
leftMetricsKey = f;
note = f_f_i;
rightKerningGroup = i;
rightMetricsKey = i;
},
{
glyphname = f_f_l;
lastChange = "2016-07-09 17:12:16 +0000";
layers = (
{
components = (
{
name = fl;
transform = "{1, 0, 0, 1, 233, 0}";
}
);
layerId = "6418A72B-B7AF-4A99-B2A7-67092BA5BFD7";
paths = (
{
closed = 1;
nodes = (
"135 638 OFFCURVE",
"60 564 OFFCURVE",
"60 469 CURVE SMOOTH",
"60 0 LINE",
"92 0 LINE",
"92 469 LINE",
"92 548 OFFCURVE",
"153 610 OFFCURVE",
"231 610 CURVE",
"231 638 LINE"
);
},
{
closed = 1;
nodes = (
"325 422 LINE",
"325 450 LINE",
"92 450 LINE",
"92 422 LINE"
);
}
);
width = 717;
}
);
leftKerningGroup = f;
leftMetricsKey = f;
note = f_f_l;
rightKerningGroup = l;
rightMetricsKey = l;
},
{
glyphname = fi;
lastChange = "2016-07-09 17:09:33 +0000";
layers = (
{
components = (
{
name = i;
transform = "{1, 0, 0, 1, 222, 0}";
}
);
layerId = "6418A72B-B7AF-4A99-B2A7-67092BA5BFD7";
paths = (
{
closed = 1;
nodes = (
"135 638 OFFCURVE",
"60 564 OFFCURVE",
"60 469 CURVE SMOOTH",
"60 0 LINE",
"92 0 LINE",
"92 469 LINE",
"92 548 OFFCURVE",
"153 610 OFFCURVE",
"231 610 CURVE",
"231 638 LINE"
);
},
{
closed = 1;
nodes = (
"337 422 LINE",
"337 450 LINE",
"92 450 LINE",
"92 422 LINE"
);
}
);
width = 410;
}
);
leftKerningGroup = f;
note = fi;
rightKerningGroup = i;
unicode = FB01;
},
{
glyphname = fl;
lastChange = "2016-07-09 17:11:56 +0000";
layers = (
{
background = {
components = (
{
name = f;
},
{
name = l;
transform = "{1, 0, 0, 1, 233, 0}";
}
);
};
components = (
{
alignment = -1;
name = l;
transform = "{1, 0, 0, 1, 233, 0}";
}
);
layerId = "6418A72B-B7AF-4A99-B2A7-67092BA5BFD7";
paths = (
{
closed = 1;
nodes = (
"135 638 OFFCURVE",
"60 564 OFFCURVE",
"60 469 CURVE SMOOTH",
"60 0 LINE",
"92 0 LINE",
"92 469 LINE",
"92 548 OFFCURVE",
"153 610 OFFCURVE",
"231 610 CURVE",
"231 638 LINE"
);
},
{
closed = 1;
nodes = (
"325 422 LINE",
"325 450 LINE",
"92 450 LINE",
"92 422 LINE"
);
}
);
width = 503;
}
);
leftKerningGroup = f;
note = fl;
rightKerningGroup = l;
unicode = FB02;
},
{
glyphname = "Be-cy";
lastChange = "2016-07-08 17:50:58 +0000";
layers = (
{
layerId = "6418A72B-B7AF-4A99-B2A7-67092BA5BFD7";
paths = (
{
closed = 1;
nodes = (
"248 0 OFFCURVE",
"358 105 OFFCURVE",
"358 238 CURVE SMOOTH",
"358 391 OFFCURVE",
"271 477 OFFCURVE",
"117 477 CURVE SMOOTH",
"108 477 LINE",
"108 721 LINE",
"315 721 LINE",
"315 750 LINE",
"75 750 LINE",
"75 0 LINE",
"108 0 LINE SMOOTH"
);
},
{
closed = 1;
nodes = (
"250 449 OFFCURVE",
"325 373 OFFCURVE",
"325 239 CURVE SMOOTH",
"325 121 OFFCURVE",
"233 28 OFFCURVE",
"116 28 CURVE SMOOTH",
"108 28 LINE",
"108 449 LINE",
"116 449 LINE SMOOTH"
);
}
);
width = 393;
}
);
leftKerningGroup = H;
note = uni0411;
rightKerningGroup = "Be-cy";
unicode = 0411;
},
{
glyphname = "Ge-cy";
lastChange = "2016-07-08 17:02:49 +0000";
layers = (
{
anchors = (
{
name = bottomright;
position = "{108, 0}";
},
{
name = center;
position = "{108, 370}";
},
{
name = top;
position = "{254, 750}";
}
);
layerId = "6418A72B-B7AF-4A99-B2A7-67092BA5BFD7";
paths = (
{
closed = 1;
nodes = (
"75 750 LINE",
"75 0 LINE",
"108 0 LINE",
"108 721 LINE",
"342 721 LINE",
"342 750 LINE"
);
}
);
width = 367;
}
);
leftKerningGroup = H;
note = uni0413;
rightKerningGroup = "Ge-cy";
unicode = 0413;
},
{
glyphname = "Gheupturn-cy";
lastChange = "2016-07-09 03:57:35 +0000";
layers = (
{
layerId = "6418A72B-B7AF-4A99-B2A7-67092BA5BFD7";
paths = (
{
closed = 1;
nodes = (
"342 849 LINE",
"309 849 LINE",
"309 750 LINE",
"75 750 LINE",
"75 0 LINE",
"108 0 LINE",
"108 721 LINE",
"342 721 LINE"
);
}
);
width = 367;
}
);
leftKerningGroup = H;
note = uni0490;
rightKerningGroup = "Ge-cy";
unicode = 0490;
},
{
glyphname = "De-cy";
lastChange = "2016-07-08 17:51:07 +0000";
layers = (
{
layerId = "6418A72B-B7AF-4A99-B2A7-67092BA5BFD7";
paths = (
{
closed = 1;
nodes = (
"64 0 LINE",
"829 0 LINE",
"829 -97 LINE",
"860 -97 LINE",
"860 29 LINE",
"812 29 LINE",
"451 767 LINE",
"90 29 LINE",
"35 29 LINE",
"35 -97 LINE",
"64 -97 LINE"
);
},
{
closed = 1;
nodes = (
"121 29 LINE",
"448 698 LINE",
"778 29 LINE"
);
}
);
width = 895;
}
);
leftKerningGroup = "De-cy";
note = uni0414;
rightKerningGroup = "De-cy";
unicode = 0414;
},
{
glyphname = "Zhe-cy";
lastChange = "2016-07-09 15:28:46 +0000";
layers = (
{
anchors = (
{
name = bottomright;
position = "{852, 0}";
},
{
name = top;
position = "{459, 750}";
}
);
layerId = "6418A72B-B7AF-4A99-B2A7-67092BA5BFD7";
paths = (
{
closed = 1;
nodes = (
"194 750 LINE",
"158 750 LINE",
"442 441 LINE",
"447 463 LINE",
"30 0 LINE",
"67 0 LINE",
"443 417 LINE",
"443 0 LINE",
"475 0 LINE",
"475 417 LINE",
"852 0 LINE",
"889 0 LINE",
"471 463 LINE",
"477 441 LINE",
"761 750 LINE",
"724 750 LINE",
"475 479 LINE",
"475 750 LINE",
"443 750 LINE",
"443 479 LINE"
);
}
);
width = 918;
}
);
leftKerningGroup = X;
note = uni0416;
rightKerningGroup = K;
unicode = 0416;
},
{
glyphname = "Ze-cy";
lastChange = "2016-07-09 15:29:41 +0000";
layers = (
{
anchors = (
{
name = bottom;
position = "{268, 0}";
},
{
name = top;
position = "{253, 750}";
}
);
layerId = "6418A72B-B7AF-4A99-B2A7-67092BA5BFD7";
paths = (
{
closed = 1;
nodes = (
"407 719 OFFCURVE",
"344 770 OFFCURVE",
"252 770 CURVE SMOOTH",
"194 770 OFFCURVE",
"146 749 OFFCURVE",
"116 712 CURVE",
"116 660 LINE",
"132 708 OFFCURVE",
"189 741 OFFCURVE",
"250 741 CURVE SMOOTH",
"324 741 OFFCURVE",
"374 696 OFFCURVE",
"374 632 CURVE SMOOTH",
"374 551 OFFCURVE",
"313 491 OFFCURVE",
"234 491 CURVE SMOOTH",
"202 491 LINE",
"202 463 LINE",
"250 463 LINE SMOOTH",
"374 463 OFFCURVE",
"462 370 OFFCURVE",
"462 239 CURVE SMOOTH",
"462 102 OFFCURVE",
"371 9 OFFCURVE",
"244 9 CURVE SMOOTH",
"148 9 OFFCURVE",
"78 60 OFFCURVE",
"35 144 CURVE",
"35 88 LINE",
"80 24 OFFCURVE",
"155 -20 OFFCURVE",
"247 -20 CURVE SMOOTH",
"386 -20 OFFCURVE",
"495 85 OFFCURVE",
"495 241 CURVE SMOOTH",
"495 374 OFFCURVE",
"412 463 OFFCURVE",
"302 482 CURVE",
"369 508 OFFCURVE",
"407 555 OFFCURVE",
"407 632 CURVE SMOOTH"
);
}
);
width = 535;
}
);
leftKerningGroup = "Ze-cy";
note = uni0417;
rightKerningGroup = B;
rightMetricsKey = B;
unicode = 0417;
},
{
glyphname = "Ii-cy";
lastChange = "2016-07-08 17:53:15 +0000";
layers = (
{
anchors = (
{
name = bottomright;
position = "{662, 0}";
},
{
name = top;
position = "{372, 750}";
}
);
layerId = "6418A72B-B7AF-4A99-B2A7-67092BA5BFD7";
paths = (
{
closed = 1;
nodes = (
"108 51 LINE",
"108 750 LINE",
"75 750 LINE",
"75 0 LINE",
"106 0 LINE",
"629 701 LINE",
"629 0 LINE",
"662 0 LINE",
"662 750 LINE",
"629 750 LINE"
);
}
);
width = 737;
}
);
leftKerningGroup = H;
note = uni0418;
rightKerningGroup = H;
unicode = 0418;
},
{
glyphname = "Ka-cy";
lastChange = "2016-07-08 17:02:49 +0000";
layers = (
{
anchors = (
{
name = bottomright;
position = "{508, 0}";
},
{
name = top;
position = "{277, 750}";
},
{
name = topright;
position = "{91, 750}";
}
);
background = {
paths = (
{
closed = 1;
nodes = (
"98 469 LINE",
"98 440 LINE",
"212 440 LINE",
"212 469 LINE"
);
}
);
};
components = (
{
name = K;
}
);
layerId = "6418A72B-B7AF-4A99-B2A7-67092BA5BFD7";
width = 572;
}
);
leftKerningGroup = H;
note = uni041A;
rightKerningGroup = K;
unicode = 041A;
},
{
glyphname = "El-cy";
lastChange = "2016-07-09 15:40:33 +0000";
layers = (
{
background = {
components = (
{
name = V;
transform = "{1, 0, 0, -1, 19, 733}";
}
);
};
layerId = "6418A72B-B7AF-4A99-B2A7-67092BA5BFD7";
paths = (
{
closed = 1;
nodes = (
"49 0 LINE",
"371 708 LINE",
"353 708 LINE",
"680 0 LINE",
"716 0 LINE",
"363 767 LINE",
"10 0 LINE"
);
}
);
width = 726;
}
);
leftKerningGroup = "El-cy";
note = uni041B;
rightKerningGroup = "El-cy";
unicode = 041B;
},
{
glyphname = "Pe-cy";
lastChange = "2016-07-08 17:02:49 +0000";
layers = (
{
anchors = (
{
name = bottomright;
position = "{547, 0}";
}
);
layerId = "6418A72B-B7AF-4A99-B2A7-67092BA5BFD7";
paths = (
{
closed = 1;
nodes = (
"108 0 LINE",
"108 721 LINE",
"514 721 LINE",
"514 0 LINE",
"547 0 LINE",
"547 750 LINE",
"75 750 LINE",
"75 0 LINE"
);
}
);
width = 622;
}
);
leftKerningGroup = H;
note = uni041F;
rightKerningGroup = H;
unicode = 041F;
},
{
glyphname = "U-cy";
lastChange = "2016-07-09 15:31:23 +0000";
layers = (
{
anchors = (
{
name = top;
position = "{311, 750}";
}
);
layerId = "6418A72B-B7AF-4A99-B2A7-67092BA5BFD7";
paths = (
{
closed = 1;
nodes = (
"322 207 LINE",
"36 750 LINE",
"0 750 LINE",
"304 172 LINE"
);
},
{
closed = 1;
nodes = (
"304 190 LINE",
"209 0 LINE",
"245 0 LINE",
"621 750 LINE",
"585 750 LINE",
"314 207 LINE"
);
}
);
width = 621;
}
);
leftKerningGroup = "U-cy";
note = uni0423;
rightKerningGroup = V;
unicode = 0423;
},
{
glyphname = "Ef-cy";
lastChange = "2016-07-09 15:31:37 +0000";
layers = (
{
layerId = "6418A72B-B7AF-4A99-B2A7-67092BA5BFD7";
paths = (
{
closed = 1;
nodes = (
"440 35 LINE",
"447 35 LINE SMOOTH",
"636 35 OFFCURVE",
"797 192 OFFCURVE",
"797 375 CURVE SMOOTH",
"797 558 OFFCURVE",
"638 717 OFFCURVE",
"447 717 CURVE SMOOTH",
"440 717 LINE",
"440 775 LINE",
"407 775 LINE",
"407 717 LINE",
"399 717 LINE SMOOTH",
"210 717 OFFCURVE",
"50 562 OFFCURVE",
"50 378 CURVE SMOOTH",
"50 194 OFFCURVE",
"209 35 OFFCURVE",
"400 35 CURVE SMOOTH",
"407 35 LINE",
"407 -25 LINE",
"440 -25 LINE"
);
},
{
closed = 1;
nodes = (
"227 62 OFFCURVE",
"83 207 OFFCURVE",
"83 377 CURVE SMOOTH",
"83 547 OFFCURVE",
"227 690 OFFCURVE",
"399 690 CURVE SMOOTH",
"407 690 LINE",
"407 62 LINE",
"400 62 LINE SMOOTH"
);
},
{
closed = 1;
nodes = (
"616 690 OFFCURVE",
"765 544 OFFCURVE",
"765 375 CURVE SMOOTH",
"765 206 OFFCURVE",
"619 62 OFFCURVE",
"447 62 CURVE SMOOTH",
"440 62 LINE",
"440 690 LINE",
"448 690 LINE SMOOTH"
);
}
);
width = 847;
}
);
leftKerningGroup = O;
note = uni0424;
rightKerningGroup = O;
unicode = 0424;
},
{
glyphname = "Che-cy";
lastChange = "2016-07-08 18:04:45 +0000";
layers = (
{
anchors = (
{
name = bottomright;
position = "{491, 0}";
},
{
name = center;
position = "{282, 300}";
},
{
name = top;
position = "{291, 750}";
}
);
background = {
paths = (
{
closed = 1;
nodes = (
"60 388 OFFCURVE",
"160 284 OFFCURVE",
"279 284 CURVE SMOOTH",
"289 284 LINE SMOOTH",
"369 284 OFFCURVE",
"441 335 OFFCURVE",
"474 406 CURVE",
"474 0 LINE",
"507 0 LINE",
"507 750 LINE",
"474 750 LINE",
"474 512 LINE SMOOTH",
"474 403 OFFCURVE",
"390 313 OFFCURVE",
"284 313 CURVE SMOOTH",
"178 313 OFFCURVE",
"93 403 OFFCURVE",
"93 512 CURVE SMOOTH",
"93 750 LINE",
"60 750 LINE",
"60 505 LINE SMOOTH"
);
}
);
};
layerId = "6418A72B-B7AF-4A99-B2A7-67092BA5BFD7";
paths = (
{
closed = 1;
nodes = (
"60 364 OFFCURVE",
"135 284 OFFCURVE",
"283 284 CURVE SMOOTH",
"371 284 OFFCURVE",
"440 331 OFFCURVE",
"474 394 CURVE",
"474 0 LINE",
"507 0 LINE",
"507 750 LINE",
"474 750 LINE",
"474 512 LINE SMOOTH",
"474 389 OFFCURVE",
"385 313 OFFCURVE",
"283 313 CURVE SMOOTH",
"161 313 OFFCURVE",
"93 383 OFFCURVE",
"93 510 CURVE SMOOTH",
"93 750 LINE",
"60 750 LINE",
"60 505 LINE SMOOTH"
);
}
);
width = 582;
},
{
anchors = (
{
name = bottomright;
position = "{491, 0}";
},
{
name = center;
position = "{282, 300}";
},
{
name = top;
position = "{291, 750}";
}
);
associatedMasterId = "6418A72B-B7AF-4A99-B2A7-67092BA5BFD7";
layerId = "5E25F252-0571-4AB6-B2E6-A297D1DF4435";
name = "Regular Jul 8 16, 13:55";
paths = (
{
closed = 1;
nodes = (
"60 388 OFFCURVE",
"160 284 OFFCURVE",
"279 284 CURVE SMOOTH",
"289 284 LINE SMOOTH",
"369 284 OFFCURVE",
"441 335 OFFCURVE",
"474 406 CURVE",
"474 0 LINE",
"507 0 LINE",
"507 750 LINE",
"474 750 LINE",
"474 512 LINE SMOOTH",
"474 403 OFFCURVE",
"390 313 OFFCURVE",
"284 313 CURVE SMOOTH",
"178 313 OFFCURVE",
"93 403 OFFCURVE",
"93 512 CURVE SMOOTH",
"93 750 LINE",
"60 750 LINE",
"60 505 LINE SMOOTH"
);
}
);
width = 582;
}
);
leftKerningGroup = "Che-cy";
note = uni0427;
rightKerningGroup = H;
unicode = 0427;
},
{
glyphname = "Tse-cy";
lastChange = "2016-07-08 17:02:49 +0000";
layers = (
{
anchors = (
{
name = topcenter;
position = "{91, 750}";
}
);
layerId = "6418A72B-B7AF-4A99-B2A7-67092BA5BFD7";
paths = (
{
closed = 1;
nodes = (
"623 -97 LINE",
"623 29 LINE",
"546 29 LINE",
"546 750 LINE",
"513 750 LINE",
"513 29 LINE",
"108 29 LINE",
"108 750 LINE",
"75 750 LINE",
"75 0 LINE",
"594 0 LINE",
"594 -97 LINE"
);
}
);
width = 648;
}
);
leftKerningGroup = H;
note = uni0426;
rightKerningGroup = "De-cy";
unicode = 0426;
},
{
glyphname = "Sha-cy";
lastChange = "2016-07-09 15:31:55 +0000";
layers = (
{
background = {
anchors = (
{
name = bottomright;
position = "{735, 0}";
}
);
components = (
{
name = H;
transform = "{1, 0, 0, 1, 80, 0}";
}
);
};
layerId = "6418A72B-B7AF-4A99-B2A7-67092BA5BFD7";
paths = (
{
closed = 1;
nodes = (
"766 750 LINE",
"766 29 LINE",
"453 29 LINE",
"453 750 LINE",
"421 750 LINE",
"421 29 LINE",
"108 29 LINE",
"108 750 LINE",
"75 750 LINE",
"75 0 LINE",
"799 0 LINE",
"799 750 LINE"
);
}
);
width = 874;
}
);
leftKerningGroup = H;
leftMetricsKey = H;
note = uni0428;
rightKerningGroup = H;
rightMetricsKey = H;
unicode = 0428;
},
{
glyphname = "Shcha-cy";
lastChange = "2016-07-09 15:32:21 +0000";
layers = (
{
layerId = "6418A72B-B7AF-4A99-B2A7-67092BA5BFD7";
paths = (
{
closed = 1;
nodes = (
"877 -97 LINE",
"877 29 LINE",
"800 29 LINE",
"800 750 LINE",
"766 750 LINE",
"766 29 LINE",
"453 29 LINE",
"453 750 LINE",
"421 750 LINE",
"421 29 LINE",
"108 29 LINE",
"108 750 LINE",
"75 750 LINE",
"75 0 LINE",
"848 0 LINE",
"848 -97 LINE"
);
}
);
width = 912;
}
);
leftKerningGroup = H;
leftMetricsKey = H;
note = uni0429;
rightKerningGroup = "De-cy";
rightMetricsKey = "De-cy";
unicode = 0429;
},
{
glyphname = "Dzhe-cy";
lastChange = "2016-07-08 17:02:49 +0000";
layers = (
{
layerId = "6418A72B-B7AF-4A99-B2A7-67092BA5BFD7";
paths = (
{
closed = 1;
nodes = (
"327 -97 LINE",
"327 0 LINE",
"546 0 LINE",
"546 750 LINE",
"513 750 LINE",
"513 29 LINE",
"108 29 LINE",
"108 750 LINE",
"75 750 LINE",
"75 0 LINE",
"296 0 LINE",
"296 -97 LINE"
);
}
);
width = 621;
}
);
leftKerningGroup = H;
note = uni040F;
rightKerningGroup = H;
unicode = 040F;
},
{
glyphname = "Softsign-cy";
lastChange = "2016-07-08 17:02:49 +0000";
layers = (
{
layerId = "6418A72B-B7AF-4A99-B2A7-67092BA5BFD7";
paths = (
{
closed = 1;
nodes = (
"108 0 LINE SMOOTH",
"243 0 OFFCURVE",
"343 86 OFFCURVE",
"343 229 CURVE SMOOTH",
"343 361 OFFCURVE",
"250 457 OFFCURVE",
"108 457 CURVE",
"108 750 LINE",
"75 750 LINE",
"75 0 LINE"
);
},
{
closed = 1;
nodes = (
"229 428 OFFCURVE",
"310 348 OFFCURVE",
"310 229 CURVE SMOOTH",
"310 110 OFFCURVE",
"228 29 OFFCURVE",
"108 29 CURVE",
"108 428 LINE"
);
}
);
width = 393;
}
);
leftKerningGroup = H;
note = uni042C;
rightKerningGroup = "Softsign-cy";
unicode = 042C;
},
{
glyphname = "Hardsign-cy";
lastChange = "2016-07-08 17:57:28 +0000";
layers = (
{
layerId = "6418A72B-B7AF-4A99-B2A7-67092BA5BFD7";
paths = (
{
closed = 1;
nodes = (
"150 0 LINE",
"183 0 LINE SMOOTH",
"325 0 OFFCURVE",
"418 91 OFFCURVE",
"418 229 CURVE SMOOTH",
"418 375 OFFCURVE",
"337 457 OFFCURVE",
"192 457 CURVE SMOOTH",
"183 457 LINE",
"183 750 LINE",
"25 750 LINE",
"25 721 LINE",
"150 721 LINE"
);
},
{
closed = 1;
nodes = (
"315 428 OFFCURVE",
"385 356 OFFCURVE",
"385 229 CURVE SMOOTH",
"385 107 OFFCURVE",
"310 29 OFFCURVE",
"191 29 CURVE SMOOTH",
"183 29 LINE",
"183 428 LINE",
"191 428 LINE SMOOTH"
);
}
);
width = 468;
}
);
leftKerningGroup = T;
note = uni042A;
rightKerningGroup = "Softsign-cy";
unicode = 042A;
},
{
glyphname = "Yeru-cy";
lastChange = "2016-07-08 17:57:39 +0000";
layers = (
{
anchors = (
{
name = top;
position = "{271, 750}";
}
);
layerId = "6418A72B-B7AF-4A99-B2A7-67092BA5BFD7";
paths = (
{
closed = 1;
nodes = (
"467 750 LINE",
"434 750 LINE",
"434 0 LINE",
"467 0 LINE"
);
},
{
closed = 1;
nodes = (
"108 0 LINE SMOOTH",
"250 0 OFFCURVE",
"343 91 OFFCURVE",
"343 229 CURVE SMOOTH",
"343 375 OFFCURVE",
"262 457 OFFCURVE",
"117 457 CURVE SMOOTH",
"108 457 LINE",
"108 750 LINE",
"75 750 LINE",
"75 0 LINE"
);
},
{
closed = 1;
nodes = (
"240 428 OFFCURVE",
"310 356 OFFCURVE",
"310 229 CURVE SMOOTH",
"310 107 OFFCURVE",
"235 29 OFFCURVE",
"116 29 CURVE SMOOTH",
"108 29 LINE",
"108 428 LINE",
"116 428 LINE SMOOTH"
);
}
);
width = 542;
}
);
leftKerningGroup = H;
note = uni042B;
rightKerningGroup = H;
unicode = 042B;
},
{
glyphname = "Lje-cy";
lastChange = "2016-07-09 15:40:18 +0000";
layers = (
{
background = {
paths = (
{
closed = 1;
nodes = (
"495 457 LINE",
"495 428 LINE",
"685 428 LINE",
"820 432 OFFCURVE",
"905 351 OFFCURVE",
"905 229 CURVE SMOOTH",
"905 110 OFFCURVE",
"823 29 OFFCURVE",
"703 29 CURVE",
"703 0 LINE SMOOTH",
"838 0 OFFCURVE",
"938 86 OFFCURVE",
"938 229 CURVE SMOOTH",
"938 364 OFFCURVE",
"841 461 OFFCURVE",
"685 457 CURVE"
);
}
);
};
components = (
{
name = "El-cy";
}
);
layerId = "6418A72B-B7AF-4A99-B2A7-67092BA5BFD7";
paths = (
{
closed = 1;
nodes = (
"495 457 LINE",
"495 428 LINE",
"685 428 LINE",
"820 432 OFFCURVE",
"905 351 OFFCURVE",
"905 229 CURVE SMOOTH",
"905 110 OFFCURVE",
"823 29 OFFCURVE",
"703 29 CURVE",
"703 0 LINE SMOOTH",
"838 0 OFFCURVE",
"938 86 OFFCURVE",
"938 229 CURVE SMOOTH",
"938 364 OFFCURVE",
"841 461 OFFCURVE",
"685 457 CURVE"
);
}
);
width = 988;
}
);
leftMetricsKey = "El-cy";
rightMetricsKey = "Softsign-cy";
unicode = 0409;
},
{
glyphname = "Nje-cy";
lastChange = "2016-07-09 15:41:57 +0000";
layers = (
{
layerId = "6418A72B-B7AF-4A99-B2A7-67092BA5BFD7";
paths = (
{
closed = 1;
nodes = (
"445 458 LINE",
"108 458 LINE",
"108 750 LINE",
"75 750 LINE",
"75 0 LINE",
"108 0 LINE",
"108 427 LINE",
"445 427 LINE",
"445 0 LINE",
"481 0 LINE SMOOTH",
"610 0 OFFCURVE",
"712 101 OFFCURVE",
"712 229 CURVE SMOOTH",
"712 376 OFFCURVE",
"631 458 OFFCURVE",
"486 458 CURVE SMOOTH",
"477 458 LINE",
"477 750 LINE",
"445 750 LINE"
);
},
{
closed = 1;
nodes = (
"485 428 LINE SMOOTH",
"611 428 OFFCURVE",
"682 356 OFFCURVE",
"682 229 CURVE SMOOTH",
"682 118 OFFCURVE",
"594 30 OFFCURVE",
"482 30 CURVE SMOOTH",
"477 30 LINE",
"477 428 LINE"
);
}
);
width = 762;
}
);
leftKerningGroup = H;
leftMetricsKey = H;
note = uni040A;
rightKerningGroup = "Softsign-cy";
rightMetricsKey = "Softsign-cy";
unicode = 040A;
},
{
glyphname = "E-cy";
lastChange = "2016-07-08 17:58:44 +0000";
layers = (
{
components = (
{
name = C;
}
);
layerId = "6418A72B-B7AF-4A99-B2A7-67092BA5BFD7";
paths = (
{
closed = 1;
nodes = (
"462 286 LINE",
"462 315 LINE",
"74 315 LINE",
"80 286 LINE"
);
}
);
width = 678;
}
);
leftKerningGroup = O;
note = uni0404;
rightKerningGroup = C;
unicode = 0404;
},
{
glyphname = "Tshe-cy";
lastChange = "2016-07-08 17:59:40 +0000";
layers = (
{
layerId = "6418A72B-B7AF-4A99-B2A7-67092BA5BFD7";
paths = (
{
closed = 1;
nodes = (
"203 362 OFFCURVE",
"278 435 OFFCURVE",
"384 435 CURVE SMOOTH",
"482 435 OFFCURVE",
"543 373 OFFCURVE",
"543 262 CURVE SMOOTH",
"543 0 LINE",
"575 0 LINE",
"575 262 LINE SMOOTH",
"575 391 OFFCURVE",
"504 463 OFFCURVE",
"382 463 CURVE SMOOTH",
"295 463 OFFCURVE",
"233 426 OFFCURVE",
"203 368 CURVE",
"203 721 LINE",
"394 721 LINE",
"394 750 LINE",
"20 750 LINE",
"20 721 LINE",
"170 721 LINE",
"170 0 LINE",
"203 0 LINE",
"203 269 LINE SMOOTH"
);
}
);
width = 635;
}
);
leftKerningGroup = T;
leftMetricsKey = "Te-cy";
note = uni040B;
rightKerningGroup = "Tshe-cy";
unicode = 040B;
},
{
glyphname = "Iu-cy";
lastChange = "2016-07-09 15:42:16 +0000";
layers = (
{
background = {
components = (
{
name = O;
transform = "{1, 0, 0, 1, 244, 0}";
}
);
};
components = (
{
name = O;
transform = "{1, 0, 0, 1, 244, 0}";
}
);
layerId = "6418A72B-B7AF-4A99-B2A7-67092BA5BFD7";
paths = (
{
closed = 1;
nodes = (
"299 315 LINE",
"108 315 LINE",
"108 750 LINE",
"75 750 LINE",
"75 0 LINE",
"108 0 LINE",
"108 286 LINE",
"304 286 LINE"
);
}
);
width = 1114;
}
);
leftKerningGroup = H;
leftMetricsKey = H;
note = uni042E;
rightKerningGroup = O;
rightMetricsKey = O;
unicode = 042E;
},
{
glyphname = "Ia-cy";
lastChange = "2016-07-09 15:42:20 +0000";
layers = (
{
layerId = "6418A72B-B7AF-4A99-B2A7-67092BA5BFD7";
paths = (
{
closed = 1;
nodes = (
"151 750 OFFCURVE",
"44 645 OFFCURVE",
"44 511 CURVE SMOOTH",
"44 361 OFFCURVE",
"134 272 OFFCURVE",
"280 272 CURVE SMOOTH",
"293 272 LINE",
"35 0 LINE",
"76 0 LINE",
"299 237 LINE",
"299 0 LINE",
"331 0 LINE",
"331 750 LINE",
"288 750 LINE SMOOTH"
);
},
{
closed = 1;
nodes = (
"155 301 OFFCURVE",
"76 376 OFFCURVE",
"76 510 CURVE SMOOTH",
"76 628 OFFCURVE",
"168 721 OFFCURVE",
"286 721 CURVE SMOOTH",
"299 721 LINE",
"299 301 LINE",
"281 301 LINE SMOOTH"
);
}
);
width = 406;
}
);
leftKerningGroup = "Ia-cy";
note = uni042F;
rightKerningGroup = H;
rightMetricsKey = H;
unicode = 042F;
},
{
glyphname = "Dje-cy";
lastChange = "2016-07-08 18:01:53 +0000";
layers = (
{
background = {
paths = (
{
closed = 1;
nodes = (
"295 463 OFFCURVE",
"233 426 OFFCURVE",
"203 368 CURVE",
"203 721 LINE",
"394 721 LINE",
"394 750 LINE",
"20 750 LINE",
"20 721 LINE",
"170 721 LINE",
"170 0 LINE",
"203 0 LINE",
"203 269 LINE SMOOTH",
"203 362 OFFCURVE",
"278 435 OFFCURVE",
"384 435 CURVE SMOOTH",
"482 435 OFFCURVE",
"543 373 OFFCURVE",
"543 262 CURVE SMOOTH",
"543 -29 LINE SMOOTH",
"543 -112 OFFCURVE",
"482 -172 OFFCURVE",
"403 -172 CURVE",
"403 -198 LINE",
"499 -198 OFFCURVE",
"576 -129 OFFCURVE",
"576 -29 CURVE SMOOTH",
"576 262 LINE SMOOTH",
"576 391 OFFCURVE",
"504 463 OFFCURVE",
"382 463 CURVE SMOOTH"
);
}
);
};
layerId = "6418A72B-B7AF-4A99-B2A7-67092BA5BFD7";
paths = (
{
closed = 1;
nodes = (
"295 463 OFFCURVE",
"233 426 OFFCURVE",
"203 368 CURVE",
"203 721 LINE",
"394 721 LINE",
"394 750 LINE",
"20 750 LINE",
"20 721 LINE",
"170 721 LINE",
"170 0 LINE",
"203 0 LINE",
"203 269 LINE SMOOTH",
"203 362 OFFCURVE",
"278 435 OFFCURVE",
"384 435 CURVE SMOOTH",
"482 435 OFFCURVE",
"543 373 OFFCURVE",
"543 262 CURVE SMOOTH",
"543 -29 LINE SMOOTH",
"543 -112 OFFCURVE",
"482 -172 OFFCURVE",
"403 -172 CURVE",
"403 -198 LINE",
"499 -198 OFFCURVE",
"576 -129 OFFCURVE",
"576 -29 CURVE SMOOTH",
"576 262 LINE SMOOTH",
"576 391 OFFCURVE",
"504 463 OFFCURVE",
"382 463 CURVE SMOOTH"
);
}
);
width = 636;
}
);
leftKerningGroup = T;
leftMetricsKey = "Te-cy";
note = uni0402;
rightKerningGroup = "Dje-cy";
unicode = 0402;
},
{
color = 4;
glyphname = "Yusbig-cy";
lastChange = "2016-07-09 15:42:40 +0000";
layers = (
{
background = {
paths = (
{
closed = 1;
nodes = (
"191 750 LINE",
"191 721 LINE",
"727 721 LINE",
"727 750 LINE"
);
}
);
};
layerId = "6418A72B-B7AF-4A99-B2A7-67092BA5BFD7";
paths = (
{
closed = 1;
nodes = (
"194 750 LINE",
"158 750 LINE",
"432 452 LINE",
"25 0 LINE",
"67 0 LINE",
"443 417 LINE",
"443 0 LINE",
"475 0 LINE",
"475 417 LINE",
"852 0 LINE",
"893 0 LINE",
"487 452 LINE",
"761 750 LINE",
"724 750 LINE",
"454 456 LINE",
"469 452 LINE"
);
},
{
closed = 1;
nodes = (
"191 750 LINE",
"191 721 LINE",
"727 721 LINE",
"727 750 LINE"
);
}
);
width = 918;
}
);
leftKerningGroup = X;
rightKerningGroup = X;
unicode = 046A;
},
{
color = 4;
glyphname = "Fita-cy";
lastChange = "2016-07-09 15:42:44 +0000";
layers = (
{
background = {
paths = (
{
closed = 1;
nodes = (
"68 315 LINE",
"68 286 LINE",
"812 286 LINE",
"812 315 LINE"
);
}
);
};
components = (
{
name = O;
}
);
layerId = "6418A72B-B7AF-4A99-B2A7-67092BA5BFD7";
paths = (
{
closed = 1;
nodes = (
"68 315 LINE",
"68 286 LINE",
"812 286 LINE",
"812 315 LINE"
);
}
);
width = 870;
}
);
leftKerningGroup = O;
rightKerningGroup = O;
unicode = 0472;
},
{
color = 4;
glyphname = "Izhitsa-cy";
lastChange = "2016-07-09 15:42:48 +0000";
layers = (
{
background = {
paths = (
{
closed = 1;
nodes = (
"662 578 LINE",
"706 665 OFFCURVE",
"735 721 OFFCURVE",
"786 721 CURVE",
"786 750 LINE",
"725 750 OFFCURVE",
"689 711 OFFCURVE",
"645 609 CURVE"
);
}
);
};
layerId = "6418A72B-B7AF-4A99-B2A7-67092BA5BFD7";
paths = (
{
closed = 1;
nodes = (
"365 39 LINE",
"387 33 LINE",
"36 750 LINE",
"0 750 LINE",
"373 -17 LINE",
"643 578 LINE SMOOTH",
"693 681 OFFCURVE",
"715 721 OFFCURVE",
"766 721 CURVE",
"766 750 LINE",
"705 750 OFFCURVE",
"667 710 OFFCURVE",
"622 609 CURVE SMOOTH"
);
}
);
width = 766;
}
);
leftKerningGroup = V;
leftMetricsKey = V;
rightKerningGroup = V;
unicode = 0474;
},
{
color = 4;
glyphname = "Ghestroke-cy";
lastChange = "2016-07-09 15:43:49 +0000";
layers = (
{
background = {
components = (
{
name = F;
transform = "{1, 0, 0, 1, 20, 0}";
}
);
};
components = (
{
name = "Ge-cy";
transform = "{1, 0, 0, 1, 20, 0}";
}
);
layerId = "6418A72B-B7AF-4A99-B2A7-67092BA5BFD7";
paths = (
{
closed = 1;
nodes = (
"20 315 LINE",
"20 286 LINE",
"264 286 LINE",
"264 315 LINE"
);
}
);
width = 387;
}
);
leftKerningGroup = Hbar;
leftMetricsKey = Hbar;
rightKerningGroup = "Ge-cy";
rightMetricsKey = "Ge-cy";
unicode = 0492;
},
{
color = 4;
glyphname = "Kaverticalstroke-cy";
lastChange = "2016-07-09 15:45:22 +0000";
layers = (
{
components = (
{
name = "_part.verticalbar-cy";
transform = "{0.8, 0, 0, 1, 64, 218}";
piece = {
Height = -60;
};
}
);
layerId = "6418A72B-B7AF-4A99-B2A7-67092BA5BFD7";
paths = (
{
closed = 1;
nodes = (
"181 445 LINE",
"608 0 LINE",
"649 0 LINE",
"201 463 LINE"
);
},
{
closed = 1;
nodes = (
"209 436 LINE",
"568 750 LINE",
"527 750 LINE",
"186 451 LINE"
);
},
{
closed = 1;
nodes = (
"108 750 LINE",
"75 750 LINE",
"75 0 LINE",
"108 0 LINE"
);
},
{
closed = 1;
nodes = (
"97 458 LINE",
"97 429 LINE",
"216 429 LINE",
"216 458 LINE"
);
}
);
width = 672;
}
);
leftKerningGroup = H;
leftMetricsKey = H;
rightKerningGroup = K;
rightMetricsKey = K;
unicode = 049C;
},
{
color = 4;
glyphname = "Kastroke-cy";
lastChange = "2016-07-09 15:45:22 +0000";
layers = (
{
components = (
{
name = "Ka-cy";
transform = "{1, 0, 0, 1, 20, 0}";
}
);
layerId = "6418A72B-B7AF-4A99-B2A7-67092BA5BFD7";
paths = (
{
closed = 1;
nodes = (
"20 664 LINE",
"20 636 LINE",
"237 636 LINE",
"237 664 LINE"
);
}
);
width = 592;
}
);
leftKerningGroup = Hbar;
leftMetricsKey = Hbar;
rightKerningGroup = K;
rightMetricsKey = K;
unicode = 049E;
},
{
color = 4;
glyphname = "Haabkhasian-cy";
lastChange = "2016-07-09 16:34:23 +0000";
layers = (
{
background = {
paths = (
{
closed = 1;
nodes = (
"840 38 OFFCURVE",
"755 18 OFFCURVE",
"675 18 CURVE SMOOTH",
"457 18 OFFCURVE",
"303 170 OFFCURVE",
"303 386 CURVE SMOOTH",
"303 576 OFFCURVE",
"421 706 OFFCURVE",
"596 706 CURVE SMOOTH",
"775 706 OFFCURVE",
"890 581 OFFCURVE",
"890 387 CURVE SMOOTH",
"890 102 OFFCURVE",
"669 6 OFFCURVE",
"491 6 CURVE SMOOTH",
"255 6 OFFCURVE",
"79 168 OFFCURVE",
"79 388 CURVE SMOOTH",
"79 592 OFFCURVE",
"217 734 OFFCURVE",
"419 734 CURVE",
"419 763 LINE",
"198 763 OFFCURVE",
"45 608 OFFCURVE",
"45 388 CURVE SMOOTH",
"45 152 OFFCURVE",
"237 -24 OFFCURVE",
"491 -24 CURVE SMOOTH",
"677 -24 OFFCURVE",
"924 84 OFFCURVE",
"924 387 CURVE SMOOTH",
"924 598 OFFCURVE",
"793 735 OFFCURVE",
"596 735 CURVE SMOOTH",
"402 735 OFFCURVE",
"269 593 OFFCURVE",
"269 386 CURVE SMOOTH",
"269 153 OFFCURVE",
"438 -12 OFFCURVE",
"675 -12 CURVE SMOOTH",
"761 -12 OFFCURVE",
"852 10 OFFCURVE",
"943 51 CURVE",
"929 79 LINE"
);
}
);
};
guideLines = (
{
position = "{539, 388}";
}
);
layerId = "6418A72B-B7AF-4A99-B2A7-67092BA5BFD7";
paths = (
{
closed = 1;
nodes = (
"531 -24 OFFCURVE",
"573 -19 OFFCURVE",
"615 -4 CURVE",
"701 -24 OFFCURVE",
"845 4 OFFCURVE",
"943 51 CURVE",
"929 79 LINE",
"842 35 OFFCURVE",
"766 15 OFFCURVE",
"661 12 CURVE",
"805 50 OFFCURVE",
"924 187 OFFCURVE",
"924 387 CURVE SMOOTH",
"924 592 OFFCURVE",
"793 725 OFFCURVE",
"596 725 CURVE SMOOTH",
"402 725 OFFCURVE",
"269 587 OFFCURVE",
"269 386 CURVE SMOOTH",
"269 181 OFFCURVE",
"394 42 OFFCURVE",
"567 8 CURVE",
"538 4 OFFCURVE",
"514 2 OFFCURVE",
"491 2 CURVE SMOOTH",
"255 2 OFFCURVE",
"79 168 OFFCURVE",
"79 388 CURVE SMOOTH",
"79 592 OFFCURVE",
"217 734 OFFCURVE",
"419 734 CURVE",
"419 763 LINE",
"198 763 OFFCURVE",
"45 608 OFFCURVE",
"45 388 CURVE SMOOTH",
"45 152 OFFCURVE",
"237 -24 OFFCURVE",
"491 -24 CURVE SMOOTH"
);
},
{
closed = 1;
nodes = (
"430 47 OFFCURVE",
"303 190 OFFCURVE",
"303 386 CURVE SMOOTH",
"303 570 OFFCURVE",
"421 696 OFFCURVE",
"596 696 CURVE SMOOTH",
"775 696 OFFCURVE",
"890 575 OFFCURVE",
"890 387 CURVE SMOOTH",
"890 167 OFFCURVE",
"758 59 OFFCURVE",
"620 24 CURVE"
);
}
);
width = 988;
}
);
leftKerningGroup = O;
leftMetricsKey = O;
rightKerningGroup = O;
rightMetricsKey = O;
unicode = 04A8;
},
{
color = 4;
glyphname = "Ustraitstroke-cy";
lastChange = "2016-07-09 15:45:52 +0000";
layers = (
{
components = (
{
name = "Ustrait-cy";
}
);
layerId = "6418A72B-B7AF-4A99-B2A7-67092BA5BFD7";
paths = (
{
closed = 1;
nodes = (
"133 298 LINE",
"133 269 LINE",
"350 269 LINE",
"350 298 LINE"
);
}
);
width = 484;
}
);
leftKerningGroup = Y;
leftMetricsKey = Y;
rightKerningGroup = Y;
rightMetricsKey = Y;
unicode = 04B0;
},
{
color = 4;
glyphname = "Cheabkhasian-cy";
lastChange = "2016-07-09 15:50:31 +0000";
layers = (
{
background = {
paths = (
{
closed = 1;
nodes = (
"221 89 LINE",
"205 77 OFFCURVE",
"191 71 OFFCURVE",
"166 71 CURVE SMOOTH",
"118 71 OFFCURVE",
"73 112 OFFCURVE",
"70 160 CURVE",
"42 160 LINE",
"45 96 OFFCURVE",
"98 44 OFFCURVE",
"168 44 CURVE SMOOTH",
"192 44 OFFCURVE",
"218 50 OFFCURVE",
"242 68 CURVE"
);
}
);
};
components = (
{
name = "Schwa-cy";
transform = "{-1, 0, 0, -1, 779, 746}";
}
);
layerId = "6418A72B-B7AF-4A99-B2A7-67092BA5BFD7";
paths = (
{
closed = 1;
nodes = (
"187 186 LINE",
"166 171 OFFCURVE",
"152 165 OFFCURVE",
"127 165 CURVE SMOOTH",
"79 165 OFFCURVE",
"34 206 OFFCURVE",
"31 254 CURVE",
"3 254 LINE",
"6 190 OFFCURVE",
"59 138 OFFCURVE",
"129 138 CURVE SMOOTH",
"153 138 OFFCURVE",
"179 144 OFFCURVE",
"203 162 CURVE"
);
}
);
width = 789;
}
);
rightKerningGroup = C;
rightMetricsKey = C;
unicode = 04BC;
},
{
color = 4;
glyphname = "Schwa-cy";
lastChange = "2016-07-09 15:50:42 +0000";
layers = (
{
background = {
paths = (
{
closed = 1;
nodes = (
"80 49 LINE",
"608 574 LINE",
"587 595 LINE",
"51 64 LINE"
);
},
{
closed = 1;
nodes = (
"213 761 OFFCURVE",
"148 744 OFFCURVE",
"84 705 CURVE",
"84 668 LINE",
"147 711 OFFCURVE",
"214 732 OFFCURVE",
"297 732 CURVE SMOOTH",
"483 732 OFFCURVE",
"644 570 OFFCURVE",
"644 376 CURVE SMOOTH",
"644 180 OFFCURVE",
"483 14 OFFCURVE",
"297 14 CURVE SMOOTH",
"205 14 OFFCURVE",
"147 35 OFFCURVE",
"84 78 CURVE",
"84 41 LINE",
"148 4 OFFCURVE",
"189 -15 OFFCURVE",
"290 -15 CURVE SMOOTH",
"493 -15 OFFCURVE",
"677 149 OFFCURVE",
"677 373 CURVE SMOOTH",
"677 598 OFFCURVE",
"504 761 OFFCURVE",
"293 761 CURVE SMOOTH"
);
}
);
};
layerId = "6418A72B-B7AF-4A99-B2A7-67092BA5BFD7";
paths = (
{
closed = 1;
nodes = (
"76 48 LINE",
"605 573 LINE",
"587 595 LINE",
"50 63 LINE"
);
},
{
closed = 1;
nodes = (
"213 761 OFFCURVE",
"148 744 OFFCURVE",
"84 705 CURVE",
"84 668 LINE",
"147 711 OFFCURVE",
"214 732 OFFCURVE",
"297 732 CURVE SMOOTH",
"483 732 OFFCURVE",
"644 570 OFFCURVE",
"644 376 CURVE SMOOTH",
"644 180 OFFCURVE",
"483 14 OFFCURVE",
"297 14 CURVE SMOOTH",
"205 14 OFFCURVE",
"146 33 OFFCURVE",
"82 78 CURVE",
"50 63 LINE",
"126 11 OFFCURVE",
"173 -15 OFFCURVE",
"290 -15 CURVE SMOOTH",
"493 -15 OFFCURVE",
"677 149 OFFCURVE",
"677 373 CURVE SMOOTH",
"677 598 OFFCURVE",
"504 761 OFFCURVE",
"293 761 CURVE SMOOTH"
);
}
);
width = 722;
}
);
leftMetricsKey = "=|C-10";
rightKerningGroup = O;
rightMetricsKey = O;
unicode = 04D8;
},
{
color = 4;
glyphname = "Dzeabkhasian-cy";
lastChange = "2016-07-09 15:45:01 +0000";
layers = (
{
anchors = (
{
name = bottom;
position = "{268, 0}";
},
{
name = top;
position = "{253, 750}";
}
);
background = {
paths = (
{
closed = 1;
nodes = (
"407 719 OFFCURVE",
"344 770 OFFCURVE",
"252 770 CURVE SMOOTH",
"194 770 OFFCURVE",
"146 749 OFFCURVE",
"116 712 CURVE",
"116 660 LINE",
"132 708 OFFCURVE",
"189 741 OFFCURVE",
"250 741 CURVE SMOOTH",
"324 741 OFFCURVE",
"374 696 OFFCURVE",
"374 632 CURVE SMOOTH",
"374 551 OFFCURVE",
"313 491 OFFCURVE",
"234 491 CURVE SMOOTH",
"202 491 LINE",
"202 463 LINE",
"250 463 LINE SMOOTH",
"374 463 OFFCURVE",
"462 370 OFFCURVE",
"462 239 CURVE SMOOTH",
"462 102 OFFCURVE",
"371 9 OFFCURVE",
"244 9 CURVE SMOOTH",
"148 9 OFFCURVE",
"78 60 OFFCURVE",
"35 144 CURVE",
"35 88 LINE",
"80 24 OFFCURVE",
"155 -20 OFFCURVE",
"247 -20 CURVE SMOOTH",
"386 -20 OFFCURVE",
"495 85 OFFCURVE",
"495 241 CURVE SMOOTH",
"495 374 OFFCURVE",
"412 463 OFFCURVE",
"302 482 CURVE",
"369 508 OFFCURVE",
"407 555 OFFCURVE",
"407 632 CURVE SMOOTH"
);
}
);
};
layerId = "6418A72B-B7AF-4A99-B2A7-67092BA5BFD7";
paths = (
{
closed = 1;
nodes = (
"262 491 CURVE SMOOTH",
"202 491 LINE",
"202 463 LINE",
"260 463 LINE SMOOTH",
"384 463 OFFCURVE",
"472 370 OFFCURVE",
"472 248 CURVE SMOOTH",
"472 106 OFFCURVE",
"377 16 OFFCURVE",
"250 16 CURVE SMOOTH",
"148 16 OFFCURVE",
"78 67 OFFCURVE",
"35 151 CURVE",
"35 95 LINE",
"80 31 OFFCURVE",
"155 -13 OFFCURVE",
"250 -13 CURVE SMOOTH",
"392 -13 OFFCURVE",
"505 89 OFFCURVE",
"505 245 CURVE SMOOTH",
"505 396 OFFCURVE",
"403 491 OFFCURVE"
);
},
{
closed = 1;
nodes = (
"456 750 LINE",
"55 750 LINE",
"55 721 LINE",
"395 721 LINE",
"178 463 LINE",
"211 463 LINE"
);
}
);
width = 545;
},
{
anchors = (
{
name = bottom;
position = "{268, 0}";
},
{
name = top;
position = "{253, 750}";
}
);
associatedMasterId = "6418A72B-B7AF-4A99-B2A7-67092BA5BFD7";
background = {
paths = (
{
closed = 1;
nodes = (
"445 750 LINE",
"25 750 LINE",
"25 721 LINE",
"395 721 LINE",
"202 491 LINE",
"229 487 LINE"
);
}
);
};
layerId = "05C5A279-83C0-404A-9034-BFD965A93EF9";
name = "Regular Jul 8 16, 10:13";
paths = (
{
closed = 1;
nodes = (
"242 491 CURVE SMOOTH",
"202 491 LINE",
"202 463 LINE",
"250 463 LINE SMOOTH",
"380 463 OFFCURVE",
"472 370 OFFCURVE",
"472 248 CURVE SMOOTH",
"472 106 OFFCURVE",
"377 16 OFFCURVE",
"250 16 CURVE SMOOTH",
"148 16 OFFCURVE",
"78 67 OFFCURVE",
"35 151 CURVE",
"35 95 LINE",
"80 31 OFFCURVE",
"155 -13 OFFCURVE",
"250 -13 CURVE SMOOTH",
"392 -13 OFFCURVE",
"505 89 OFFCURVE",
"505 245 CURVE SMOOTH",
"505 396 OFFCURVE",
"389 491 OFFCURVE"
);
},
{
closed = 1;
nodes = (
"456 750 LINE",
"55 750 LINE",
"55 721 LINE",
"395 721 LINE",
"202 491 LINE",
"234 487 LINE"
);
}
);
width = 545;
}
);
leftKerningGroup = "Ze-cy";
leftMetricsKey = "Ze-cy";
rightKerningGroup = B;
rightMetricsKey = B;
unicode = 04E0;
},
{
color = 4;
glyphname = "Ef-cy.loclBGR";
lastChange = "2016-07-09 15:44:38 +0000";
layers = (
{
anchors = (
{
name = _center;
position = "{437, 142}";
}
);
background = {
anchors = (
{
name = _center;
position = "{437, 142}";
}
);
components = (
{
name = O;
}
);
paths = (
{
closed = 1;
nodes = (
"418 823 LINE",
"418 -84 LINE",
"451 -84 LINE",
"451 823 LINE"
);
}
);
};
components = (
{
name = O;
}
);
layerId = "6418A72B-B7AF-4A99-B2A7-67092BA5BFD7";
paths = (
{
closed = 1;
nodes = (
"418 823 LINE",
"418 -84 LINE",
"451 -84 LINE",
"451 823 LINE"
);
}
);
width = 870;
}
);
leftKerningGroup = O;
leftMetricsKey = O;
rightKerningGroup = O;
rightMetricsKey = O;
},
{
glyphname = "Lje-cy.ss01";
lastChange = "2016-07-09 15:57:43 +0000";
layers = (
{
layerId = "6418A72B-B7AF-4A99-B2A7-67092BA5BFD7";
paths = (
{
closed = 1;
nodes = (
"620 0 OFFCURVE",
"724 101 OFFCURVE",
"724 229 CURVE",
"724 376 OFFCURVE",
"641 458 OFFCURVE",
"496 458 CURVE",
"487 458 LINE",
"487 750 LINE",
"171 750 LINE",
"171 531 LINE",
"171 160 OFFCURVE",
"132 29 OFFCURVE",
"20 29 CURVE SMOOTH",
"20 0 LINE",
"27 0 LINE",
"158 0 OFFCURVE",
"204 138 OFFCURVE",
"204 531 CURVE",
"204 721 LINE",
"455 721 LINE",
"455 0 LINE",
"491 0 LINE"
);
},
{
closed = 1;
nodes = (
"495 429 LINE",
"621 429 OFFCURVE",
"692 356 OFFCURVE",
"692 229 CURVE",
"692 118 OFFCURVE",
"604 29 OFFCURVE",
"492 29 CURVE",
"487 29 LINE",
"487 429 LINE"
);
}
);
width = 774;
}
);
note = uni0409;
rightKerningGroup = "Softsign-cy";
rightMetricsKey = "Softsign-cy";
},
{
glyphname = "El-cy.sso1";
lastChange = "2016-07-09 15:57:21 +0000";
layers = (
{
layerId = "6418A72B-B7AF-4A99-B2A7-67092BA5BFD7";
paths = (
{
closed = 1;
nodes = (
"507 0 LINE",
"507 750 LINE",
"171 750 LINE",
"171 531 LINE",
"171 160 OFFCURVE",
"132 29 OFFCURVE",
"20 29 CURVE SMOOTH",
"20 0 LINE",
"27 0 LINE",
"158 0 OFFCURVE",
"204 138 OFFCURVE",
"204 531 CURVE",
"204 721 LINE",
"475 721 LINE",
"475 0 LINE"
);
}
);
width = 582;
}
);
rightMetricsKey = H;
},
{
glyphname = "be-cy";
lastChange = "2016-07-09 16:33:53 +0000";
layers = (
{
background = {
components = (
{
name = o;
transform = "{1, 0, 0, 1, 20, 0}";
}
);
paths = (
{
closed = 1;
nodes = (
"86 325 LINE",
"86 410 LINE SMOOTH",
"86 537 OFFCURVE",
"155 594 OFFCURVE",
"294 650 CURVE SMOOTH",
"476 723 LINE",
"476 752 LINE",
"243 659 OFFCURVE",
"247 661 OFFCURVE",
"219 648 CURVE SMOOTH",
"182 631 OFFCURVE",
"126 594 OFFCURVE",
"101 555 CURVE SMOOTH",
"71 508 OFFCURVE",
"55 448 OFFCURVE",
"55 374 CURVE SMOOTH",
"55 225 LINE"
);
}
);
};
components = (
{
name = o;
transform = "{1, 0, 0, 1, 20, 0}";
}
);
layerId = "6418A72B-B7AF-4A99-B2A7-67092BA5BFD7";
paths = (
{
closed = 1;
nodes = (
"86 325 LINE",
"86 410 LINE SMOOTH",
"86 537 OFFCURVE",
"163 598 OFFCURVE",
"294 650 CURVE SMOOTH",
"476 723 LINE",
"476 752 LINE",
"279 673 LINE SMOOTH",
"124 612 OFFCURVE",
"55 545 OFFCURVE",
"55 374 CURVE SMOOTH",
"55 225 LINE"
);
}
);
width = 571;
}
);
leftKerningGroup = "be-cy";
note = uni0431;
rightKerningGroup = o;
unicode = 0431;
},
{
glyphname = "ve-cy";
lastChange = "2016-07-08 18:13:07 +0000";
layers = (
{
background = {
paths = (
{
closed = 1;
nodes = (
"159 0 LINE SMOOTH",
"242 0 OFFCURVE",
"307 69 OFFCURVE",
"307 140 CURVE SMOOTH",
"307 211 OFFCURVE",
"265 269 OFFCURVE",
"212 285 CURVE",
"237 301 OFFCURVE",
"249 324 OFFCURVE",
"249 353 CURVE SMOOTH",
"249 412 OFFCURVE",
"211 450 OFFCURVE",
"159 450 CURVE SMOOTH",
"75 450 LINE",
"75 0 LINE"
);
},
{
closed = 1;
nodes = (
"225 268 OFFCURVE",
"278 215 OFFCURVE",
"278 148 CURVE SMOOTH",
"278 81 OFFCURVE",
"225 27 OFFCURVE",
"161 27 CURVE SMOOTH",
"107 27 LINE",
"107 268 LINE",
"161 268 LINE SMOOTH"
);
},
{
closed = 1;
nodes = (
"192 423 OFFCURVE",
"222 392 OFFCURVE",
"222 358 CURVE SMOOTH",
"222 324 OFFCURVE",
"194 295 OFFCURVE",
"162 295 CURVE SMOOTH",
"107 295 LINE",
"107 423 LINE",
"160 423 LINE SMOOTH"
);
}
);
};
layerId = "6418A72B-B7AF-4A99-B2A7-67092BA5BFD7";
paths = (
{
closed = 1;
nodes = (
"169 0 LINE SMOOTH",
"248 0 OFFCURVE",
"310 62 OFFCURVE",
"310 142 CURVE SMOOTH",
"310 232 OFFCURVE",
"273 273 OFFCURVE",
"205 285 CURVE",
"234 298 OFFCURVE",
"254 323 OFFCURVE",
"254 364 CURVE SMOOTH",
"254 412 OFFCURVE",
"223 450 OFFCURVE",
"167 450 CURVE SMOOTH",
"75 450 LINE",
"75 0 LINE"
);
},
{
closed = 1;
nodes = (
"236 268 OFFCURVE",
"278 224 OFFCURVE",
"278 146 CURVE SMOOTH",
"278 79 OFFCURVE",
"231 27 OFFCURVE",
"171 27 CURVE SMOOTH",
"107 27 LINE",
"107 268 LINE",
"161 268 LINE SMOOTH"
);
},
{
closed = 1;
nodes = (
"200 423 OFFCURVE",
"222 403 OFFCURVE",
"222 364 CURVE SMOOTH",
"222 318 OFFCURVE",
"200 295 OFFCURVE",
"162 295 CURVE SMOOTH",
"107 295 LINE",
"107 423 LINE",
"160 423 LINE SMOOTH"
);
}
);
width = 347;
}
);
leftKerningGroup = n;
leftMetricsKey = "en-cy";
note = uni0432;
rightKerningGroup = "ve-cy";
unicode = 0432;
},
{
glyphname = "ge-cy";
lastChange = "2016-07-08 17:02:49 +0000";
layers = (
{
anchors = (
{
name = bottomright;
position = "{107, 0}";
},
{
name = top;
position = "{186, 450}";
}
);
layerId = "6418A72B-B7AF-4A99-B2A7-67092BA5BFD7";
paths = (
{
closed = 1;
nodes = (
"75 449 LINE",
"75 0 LINE",
"107 0 LINE",
"107 421 LINE",
"274 421 LINE",
"274 449 LINE"
);
}
);
width = 299;
}
);
leftKerningGroup = n;
note = uni0433;
rightKerningGroup = "ge-cy";
unicode = 0433;
},
{
glyphname = "gheupturn-cy";
lastChange = "2016-07-09 03:57:35 +0000";
layers = (
{
layerId = "6418A72B-B7AF-4A99-B2A7-67092BA5BFD7";
paths = (
{
closed = 1;
nodes = (
"274 553 LINE",
"243 553 LINE",
"243 450 LINE",
"75 450 LINE",
"75 0 LINE",
"107 0 LINE",
"107 422 LINE",
"274 422 LINE"
);
}
);
width = 299;
}
);
leftKerningGroup = n;
note = uni0491;
rightKerningGroup = "ge-cy";
unicode = 0491;
},
{
glyphname = "de-cy";
lastChange = "2016-07-08 17:02:49 +0000";
layers = (
{
layerId = "6418A72B-B7AF-4A99-B2A7-67092BA5BFD7";
paths = (
{
closed = 1;
nodes = (
"51 0 LINE",
"483 0 LINE",
"483 -57 LINE",
"511 -57 LINE",
"511 27 LINE",
"478 27 LINE",
"269 463 LINE",
"60 26 LINE",
"25 26 LINE",
"25 -57 LINE",
"51 -57 LINE"
);
},
{
closed = 1;
nodes = (
"90 27 LINE",
"266 395 LINE",
"443 27 LINE"
);
}
);
width = 536;
}
);
leftKerningGroup = "de-cy";
note = uni0434;
rightKerningGroup = "de-cy";
unicode = 0434;
},
{
glyphname = "zhe-cy";
lastChange = "2016-07-08 17:02:49 +0000";
layers = (
{
anchors = (
{
name = bottomright;
position = "{566, 0}";
},
{
name = top;
position = "{308, 450}";
}
);
layerId = "6418A72B-B7AF-4A99-B2A7-67092BA5BFD7";
paths = (
{
closed = 1;
nodes = (
"148 450 LINE",
"112 450 LINE",
"288 270 LINE",
"25 0 LINE",
"68 0 LINE",
"292 231 LINE",
"292 0 LINE",
"324 0 LINE",
"324 231 LINE",
"548 0 LINE",
"591 0 LINE",
"328 270 LINE",
"504 450 LINE",
"468 450 LINE",
"324 305 LINE",
"324 450 LINE",
"292 450 LINE",
"292 305 LINE"
);
}
);
width = 616;
}
);
leftKerningGroup = x;
note = uni0436;
rightKerningGroup = x;
unicode = 0436;
},
{
glyphname = "ze-cy";
lastChange = "2016-07-08 17:02:49 +0000";
layers = (
{
anchors = (
{
name = bottomright;
position = "{179, 0}";
},
{
name = top;
position = "{159, 450}";
}
);
background = {
paths = (
{
closed = 1;
nodes = (
"125 458 OFFCURVE",
"100 446 OFFCURVE",
"79 423 CURVE",
"79 360 LINE",
"94 407 OFFCURVE",
"120 431 OFFCURVE",
"157 431 CURVE SMOOTH",
"193 431 OFFCURVE",
"222 400 OFFCURVE",
"222 364 CURVE SMOOTH",
"222 328 OFFCURVE",
"193 297 OFFCURVE",
"157 297 CURVE SMOOTH",
"137 297 LINE",
"137 270 LINE",
"161 270 LINE SMOOTH",
"228 270 OFFCURVE",
"286 210 OFFCURVE",
"286 142 CURVE SMOOTH",
"286 73 OFFCURVE",
"227 14 OFFCURVE",
"162 14 CURVE SMOOTH",
"97 14 OFFCURVE",
"50 55 OFFCURVE",
"30 115 CURVE",
"30 55 LINE",
"61 10 OFFCURVE",
"104 -13 OFFCURVE",
"161 -13 CURVE SMOOTH",
"246 -13 OFFCURVE",
"318 59 OFFCURVE",
"318 134 CURVE SMOOTH",
"318 209 OFFCURVE",
"269 271 OFFCURVE",
"209 287 CURVE",
"233 299 OFFCURVE",
"254 327 OFFCURVE",
"254 371 CURVE SMOOTH",
"254 414 OFFCURVE",
"211 458 OFFCURVE",
"154 458 CURVE SMOOTH"
);
}
);
};
layerId = "6418A72B-B7AF-4A99-B2A7-67092BA5BFD7";
paths = (
{
closed = 1;
nodes = (
"135 458 OFFCURVE",
"108 443 OFFCURVE",
"89 419 CURVE",
"89 370 LINE",
"104 407 OFFCURVE",
"130 433 OFFCURVE",
"171 433 CURVE SMOOTH",
"213 433 OFFCURVE",
"233 404 OFFCURVE",
"233 368 CURVE SMOOTH",
"233 327 OFFCURVE",
"197 297 OFFCURVE",
"157 297 CURVE SMOOTH",
"137 297 LINE",
"137 269 LINE",
"161 269 LINE SMOOTH",
"228 269 OFFCURVE",
"286 220 OFFCURVE",
"286 142 CURVE SMOOTH",
"286 63 OFFCURVE",
"237 15 OFFCURVE",
"162 15 CURVE SMOOTH",
"97 15 OFFCURVE",
"50 55 OFFCURVE",
"30 110 CURVE",
"30 55 LINE",
"63 11 OFFCURVE",
"105 -13 OFFCURVE",
"168 -13 CURVE SMOOTH",
"255 -13 OFFCURVE",
"318 52 OFFCURVE",
"318 142 CURVE SMOOTH",
"318 226 OFFCURVE",
"264 273 OFFCURVE",
"204 287 CURVE",
"238 300 OFFCURVE",
"262 329 OFFCURVE",
"262 370 CURVE SMOOTH",
"262 415 OFFCURVE",
"225 458 OFFCURVE",
"172 458 CURVE SMOOTH"
);
}
);
width = 358;
},
{
anchors = (
{
name = bottomright;
position = "{179, 0}";
},
{
name = top;
position = "{159, 450}";
}
);
associatedMasterId = "6418A72B-B7AF-4A99-B2A7-67092BA5BFD7";
background = {
paths = (
{
closed = 1;
nodes = (
"125 458 OFFCURVE",
"100 446 OFFCURVE",
"79 423 CURVE",
"79 360 LINE",
"94 407 OFFCURVE",
"120 431 OFFCURVE",
"157 431 CURVE SMOOTH",
"193 431 OFFCURVE",
"222 400 OFFCURVE",
"222 364 CURVE SMOOTH",
"222 328 OFFCURVE",
"193 297 OFFCURVE",
"157 297 CURVE SMOOTH",
"137 297 LINE",
"137 270 LINE",
"161 270 LINE SMOOTH",
"228 270 OFFCURVE",
"286 210 OFFCURVE",
"286 142 CURVE SMOOTH",
"286 73 OFFCURVE",
"227 14 OFFCURVE",
"162 14 CURVE SMOOTH",
"97 14 OFFCURVE",
"50 55 OFFCURVE",
"30 115 CURVE",
"30 55 LINE",
"61 10 OFFCURVE",
"104 -13 OFFCURVE",
"161 -13 CURVE SMOOTH",
"246 -13 OFFCURVE",
"318 59 OFFCURVE",
"318 134 CURVE SMOOTH",
"318 209 OFFCURVE",
"269 271 OFFCURVE",
"209 287 CURVE",
"233 299 OFFCURVE",
"254 327 OFFCURVE",
"254 371 CURVE SMOOTH",
"254 414 OFFCURVE",
"211 458 OFFCURVE",
"154 458 CURVE SMOOTH"
);
}
);
};
layerId = "BEB7FF5A-6D1E-4108-875B-2D2C265F40C4";
name = "Regular Jul 8 16, 09:58";
paths = (
{
closed = 1;
nodes = (
"125 458 OFFCURVE",
"100 446 OFFCURVE",
"79 423 CURVE",
"79 360 LINE",
"94 407 OFFCURVE",
"120 431 OFFCURVE",
"157 431 CURVE SMOOTH",
"193 431 OFFCURVE",
"222 400 OFFCURVE",
"222 364 CURVE SMOOTH",
"222 328 OFFCURVE",
"193 297 OFFCURVE",
"157 297 CURVE SMOOTH",
"137 297 LINE",
"137 270 LINE",
"161 270 LINE SMOOTH",
"228 270 OFFCURVE",
"286 210 OFFCURVE",
"286 142 CURVE SMOOTH",
"286 73 OFFCURVE",
"227 14 OFFCURVE",
"162 14 CURVE SMOOTH",
"97 14 OFFCURVE",
"50 55 OFFCURVE",
"30 115 CURVE",
"30 55 LINE",
"61 10 OFFCURVE",
"104 -13 OFFCURVE",
"161 -13 CURVE SMOOTH",
"246 -13 OFFCURVE",
"318 59 OFFCURVE",
"318 134 CURVE SMOOTH",
"318 209 OFFCURVE",
"269 271 OFFCURVE",
"209 287 CURVE",
"233 299 OFFCURVE",
"254 327 OFFCURVE",
"254 371 CURVE SMOOTH",
"254 414 OFFCURVE",
"211 458 OFFCURVE",
"154 458 CURVE SMOOTH"
);
}
);
width = 358;
},
{
anchors = (
{
name = bottomright;
position = "{179, 0}";
},
{
name = top;
position = "{159, 450}";
}
);
associatedMasterId = "6418A72B-B7AF-4A99-B2A7-67092BA5BFD7";
background = {
paths = (
{
closed = 1;
nodes = (
"125 458 OFFCURVE",
"100 446 OFFCURVE",
"79 423 CURVE",
"79 360 LINE",
"94 407 OFFCURVE",
"120 431 OFFCURVE",
"157 431 CURVE SMOOTH",
"193 431 OFFCURVE",
"222 400 OFFCURVE",
"222 364 CURVE SMOOTH",
"222 328 OFFCURVE",
"193 297 OFFCURVE",
"157 297 CURVE SMOOTH",
"137 297 LINE",
"137 270 LINE",
"161 270 LINE SMOOTH",
"228 270 OFFCURVE",
"286 210 OFFCURVE",
"286 142 CURVE SMOOTH",
"286 73 OFFCURVE",
"227 14 OFFCURVE",
"162 14 CURVE SMOOTH",
"97 14 OFFCURVE",
"50 55 OFFCURVE",
"30 115 CURVE",
"30 55 LINE",
"61 10 OFFCURVE",
"104 -13 OFFCURVE",
"161 -13 CURVE SMOOTH",
"246 -13 OFFCURVE",
"318 59 OFFCURVE",
"318 134 CURVE SMOOTH",
"318 209 OFFCURVE",
"269 271 OFFCURVE",
"209 287 CURVE",
"233 299 OFFCURVE",
"254 327 OFFCURVE",
"254 371 CURVE SMOOTH",
"254 414 OFFCURVE",
"211 458 OFFCURVE",
"154 458 CURVE SMOOTH"
);
}
);
};
layerId = "2412FFF4-05FA-46FE-9F4B-3C9B94F830A0";
name = "Regular Jul 8 16, 10:03";
paths = (
{
closed = 1;
nodes = (
"145 458 OFFCURVE",
"105 441 OFFCURVE",
"89 419 CURVE",
"89 370 LINE",
"102 402 OFFCURVE",
"139 433 OFFCURVE",
"171 433 CURVE SMOOTH",
"210 433 OFFCURVE",
"236 410 OFFCURVE",
"236 368 CURVE SMOOTH",
"236 333 OFFCURVE",
"201 297 OFFCURVE",
"157 297 CURVE SMOOTH",
"137 297 LINE",
"137 269 LINE",
"161 269 LINE SMOOTH",
"236 269 OFFCURVE",
"286 223 OFFCURVE",
"286 142 CURVE SMOOTH",
"286 79 OFFCURVE",
"231 15 OFFCURVE",
"162 15 CURVE SMOOTH",
"104 15 OFFCURVE",
"52 49 OFFCURVE",
"30 110 CURVE",
"30 55 LINE",
"61 14 OFFCURVE",
"112 -13 OFFCURVE",
"168 -13 CURVE SMOOTH",
"243 -13 OFFCURVE",
"318 55 OFFCURVE",
"318 142 CURVE SMOOTH",
"318 213 OFFCURVE",
"277 270 OFFCURVE",
"204 287 CURVE",
"235 299 OFFCURVE",
"265 337 OFFCURVE",
"265 370 CURVE SMOOTH",
"265 423 OFFCURVE",
"232 458 OFFCURVE",
"172 458 CURVE SMOOTH"
);
}
);
width = 358;
}
);
leftKerningGroup = "ze-cy";
note = uni0437;
rightKerningGroup = "ve-cy";
unicode = 0437;
},
{
glyphname = "ii-cy";
lastChange = "2016-07-09 15:15:00 +0000";
layers = (
{
anchors = (
{
name = bottomright;
position = "{444, 0}";
},
{
name = top;
position = "{267, 450}";
}
);
layerId = "6418A72B-B7AF-4A99-B2A7-67092BA5BFD7";
paths = (
{
closed = 1;
nodes = (
"106 45 LINE",
"106 450 LINE",
"75 450 LINE",
"75 0 LINE",
"103 0 LINE",
"427 404 LINE",
"427 0 LINE",
"458 0 LINE",
"458 450 LINE",
"429 450 LINE"
);
}
);
width = 533;
}
);
leftKerningGroup = n;
note = uni0438;
rightKerningGroup = u;
unicode = 0438;
},
{
glyphname = "ka-cy";
lastChange = "2016-07-08 17:02:49 +0000";
layers = (
{
anchors = (
{
name = bottomright;
position = "{335, 0}";
},
{
name = top;
position = "{202, 450}";
},
{
name = topright;
position = "{92, 450}";
}
);
layerId = "6418A72B-B7AF-4A99-B2A7-67092BA5BFD7";
paths = (
{
closed = 1;
nodes = (
"107 0 LINE",
"107 237 LINE",
"335 0 LINE",
"378 0 LINE",
"120 270 LINE",
"326 450 LINE",
"285 450 LINE",
"107 294 LINE",
"107 450 LINE",
"75 450 LINE",
"75 0 LINE"
);
}
);
width = 403;
}
);
leftKerningGroup = n;
note = uni043A;
rightKerningGroup = k;
unicode = 043A;
},
{
glyphname = "el-cy";
lastChange = "2016-07-09 05:22:20 +0000";
layers = (
{
layerId = "6418A72B-B7AF-4A99-B2A7-67092BA5BFD7";
paths = (
{
closed = 1;
nodes = (
"433 0 LINE",
"468 0 LINE",
"246 463 LINE",
"25 0 LINE",
"57 0 LINE",
"253 408 LINE",
"237 408 LINE"
);
}
);
width = 493;
}
);
leftKerningGroup = "el-cy";
note = uni043B;
rightKerningGroup = "el-cy";
unicode = 043B;
},
{
glyphname = "em-cy";
lastChange = "2016-07-09 15:15:13 +0000";
layers = (
{
layerId = "6418A72B-B7AF-4A99-B2A7-67092BA5BFD7";
paths = (
{
closed = 1;
nodes = (
"103 395 LINE",
"305 -12 LINE",
"518 404 LINE",
"506 406 LINE",
"506 0 LINE",
"538 0 LINE",
"538 450 LINE",
"508 450 LINE",
"308 52 LINE",
"111 450 LINE",
"75 450 LINE",
"75 0 LINE",
"103 0 LINE"
);
}
);
width = 613;
}
);
leftKerningGroup = n;
note = uni043C;
rightKerningGroup = u;
unicode = 043C;
},
{
glyphname = "en-cy";
lastChange = "2016-07-09 15:15:18 +0000";
layers = (
{
anchors = (
{
name = bottomright;
position = "{444, 0}";
},
{
name = topleft;
position = "{428, 450}";
}
);
layerId = "6418A72B-B7AF-4A99-B2A7-67092BA5BFD7";
paths = (
{
closed = 1;
nodes = (
"107 197 LINE",
"107 450 LINE",
"75 450 LINE",
"75 0 LINE",
"107 0 LINE",
"107 169 LINE",
"412 169 LINE",
"412 0 LINE",
"444 0 LINE",
"444 450 LINE",
"412 450 LINE",
"412 197 LINE"
);
}
);
width = 519;
}
);
leftKerningGroup = n;
note = uni043D;
rightKerningGroup = n;
unicode = 043D;
},
{
glyphname = "pe-cy";
lastChange = "2016-07-09 15:15:54 +0000";
layers = (
{
anchors = (
{
name = bottomright;
position = "{437, 0}";
}
);
layerId = "6418A72B-B7AF-4A99-B2A7-67092BA5BFD7";
paths = (
{
closed = 1;
nodes = (
"107 0 LINE",
"107 422 LINE",
"405 422 LINE",
"405 0 LINE",
"437 0 LINE",
"437 450 LINE",
"75 450 LINE",
"75 0 LINE"
);
}
);
width = 512;
}
);
leftKerningGroup = n;
note = uni043F;
rightKerningGroup = u;
unicode = 043F;
},
{
glyphname = "te-cy";
lastChange = "2016-07-08 17:02:49 +0000";
layers = (
{
anchors = (
{
name = bottomright;
position = "{229, 0}";
}
);
layerId = "6418A72B-B7AF-4A99-B2A7-67092BA5BFD7";
paths = (
{
closed = 1;
nodes = (
"25 421 LINE",
"197 421 LINE",
"197 0 LINE",
"229 0 LINE",
"229 421 LINE",
"401 421 LINE",
"401 449 LINE",
"25 449 LINE"
);
}
);
width = 426;
}
);
leftKerningGroup = "te-cy";
note = uni0442;
rightKerningGroup = "te-cy";
unicode = 0442;
},
{
glyphname = "u-cy";
lastChange = "2016-07-09 05:22:45 +0000";
layers = (
{
anchors = (
{
name = top;
position = "{234, 450}";
}
);
layerId = "6418A72B-B7AF-4A99-B2A7-67092BA5BFD7";
paths = (
{
closed = 1;
nodes = (
"237 37 LINE",
"39 450 LINE",
"5 450 LINE",
"220 1 LINE",
"125 -200 LINE",
"154 -200 LINE",
"463 450 LINE",
"434 450 LINE"
);
}
);
width = 468;
}
);
leftKerningGroup = v;
note = uni0443;
rightKerningGroup = v;
unicode = 0443;
},
{
glyphname = "ef-cy";
lastChange = "2016-07-08 17:02:49 +0000";
layers = (
{
layerId = "6418A72B-B7AF-4A99-B2A7-67092BA5BFD7";
paths = (
{
closed = 1;
nodes = (
"281 461 LINE SMOOTH",
"150 461 OFFCURVE",
"40 355 OFFCURVE",
"40 229 CURVE SMOOTH",
"40 103 OFFCURVE",
"149 -6 OFFCURVE",
"281 -6 CURVE SMOOTH",
"289 -6 LINE",
"289 -198 LINE",
"321 -198 LINE",
"321 -6 LINE",
"328 -6 LINE SMOOTH",
"459 -6 OFFCURVE",
"561 101 OFFCURVE",
"561 229 CURVE SMOOTH",
"561 356 OFFCURVE",
"457 461 OFFCURVE",
"326 461 CURVE SMOOTH",
"321 461 LINE",
"321 629 LINE",
"289 629 LINE",
"289 461 LINE"
);
},
{
closed = 1;
nodes = (
"281 22 LINE SMOOTH",
"169 22 OFFCURVE",
"70 116 OFFCURVE",
"70 227 CURVE SMOOTH",
"70 338 OFFCURVE",
"169 433 OFFCURVE",
"281 433 CURVE SMOOTH",
"289 433 LINE",
"289 22 LINE"
);
},
{
closed = 1;
nodes = (
"438 433 OFFCURVE",
"530 339 OFFCURVE",
"530 227 CURVE SMOOTH",
"530 115 OFFCURVE",
"439 22 OFFCURVE",
"327 22 CURVE SMOOTH",
"321 22 LINE",
"321 433 LINE",
"326 433 LINE SMOOTH"
);
}
);
width = 601;
}
);
leftKerningGroup = o;
note = uni0444;
rightKerningGroup = o;
unicode = 0444;
},
{
glyphname = "che-cy";
lastChange = "2016-07-09 15:15:41 +0000";
layers = (
{
anchors = (
{
name = bottomright;
position = "{346, 0}";
},
{
name = center;
position = "{200, 163}";
},
{
name = top;
position = "{200, 450}";
}
);
background = {
paths = (
{
closed = 1;
nodes = (
"40 225 OFFCURVE",
"112 151 OFFCURVE",
"199 151 CURVE SMOOTH",
"205 151 LINE SMOOTH",
"258 151 OFFCURVE",
"306 179 OFFCURVE",
"330 222 CURVE",
"330 0 LINE",
"361 0 LINE",
"361 450 LINE",
"329 450 LINE",
"329 313 LINE SMOOTH",
"329 238 OFFCURVE",
"273 177 OFFCURVE",
"201 177 CURVE SMOOTH",
"129 177 OFFCURVE",
"72 238 OFFCURVE",
"72 313 CURVE SMOOTH",
"72 450 LINE",
"40 450 LINE",
"40 310 LINE SMOOTH"
);
}
);
};
layerId = "6418A72B-B7AF-4A99-B2A7-67092BA5BFD7";
paths = (
{
closed = 1;
nodes = (
"40 212 OFFCURVE",
"97 151 OFFCURVE",
"198 151 CURVE SMOOTH",
"253 151 OFFCURVE",
"311 187 OFFCURVE",
"330 232 CURVE",
"330 0 LINE",
"361 0 LINE",
"361 450 LINE",
"329 450 LINE",
"329 313 LINE SMOOTH",
"329 239 OFFCURVE",
"272 181 OFFCURVE",
"199 181 CURVE SMOOTH",
"118 181 OFFCURVE",
"72 229 OFFCURVE",
"72 313 CURVE SMOOTH",
"72 450 LINE",
"40 450 LINE",
"40 320 LINE SMOOTH"
);
}
);
width = 436;
},
{
anchors = (
{
name = bottomright;
position = "{346, 0}";
},
{
name = center;
position = "{200, 163}";
},
{
name = top;
position = "{200, 450}";
}
);
associatedMasterId = "6418A72B-B7AF-4A99-B2A7-67092BA5BFD7";
background = {
paths = (
{
closed = 1;
nodes = (
"40 225 OFFCURVE",
"112 151 OFFCURVE",
"199 151 CURVE SMOOTH",
"205 151 LINE SMOOTH",
"258 151 OFFCURVE",
"306 179 OFFCURVE",
"330 222 CURVE",
"330 0 LINE",
"361 0 LINE",
"361 450 LINE",
"329 450 LINE",
"329 313 LINE SMOOTH",
"329 238 OFFCURVE",
"273 177 OFFCURVE",
"201 177 CURVE SMOOTH",
"129 177 OFFCURVE",
"72 238 OFFCURVE",
"72 313 CURVE SMOOTH",
"72 450 LINE",
"40 450 LINE",
"40 310 LINE SMOOTH"
);
}
);
};
layerId = "C01E3206-6C76-4422-ADFC-EA20B87D16C2";
name = "Regular Jul 8 16, 11:01";
paths = (
{
closed = 1;
nodes = (
"40 215 OFFCURVE",
"107 151 OFFCURVE",
"198 151 CURVE SMOOTH",
"267 151 OFFCURVE",
"312 188 OFFCURVE",
"330 232 CURVE",
"330 0 LINE",
"361 0 LINE",
"361 450 LINE",
"329 450 LINE",
"329 313 LINE SMOOTH",
"329 238 OFFCURVE",
"276 181 OFFCURVE",
"199 181 CURVE SMOOTH",
"129 181 OFFCURVE",
"72 227 OFFCURVE",
"72 313 CURVE SMOOTH",
"72 450 LINE",
"40 450 LINE",
"40 320 LINE SMOOTH"
);
}
);
width = 436;
}
);
leftKerningGroup = "che-cy";
note = uni0447;
rightKerningGroup = u;
unicode = 0447;
},
{
glyphname = "tse-cy";
lastChange = "2016-07-09 05:23:02 +0000";
layers = (
{
anchors = (
{
name = topleft;
position = "{95, 450}";
}
);
layerId = "6418A72B-B7AF-4A99-B2A7-67092BA5BFD7";
paths = (
{
closed = 1;
nodes = (
"107 28 LINE",
"107 450 LINE",
"75 450 LINE",
"75 0 LINE",
"480 0 LINE",
"480 -97 LINE",
"508 -97 LINE",
"508 29 LINE",
"437 29 LINE",
"437 450 LINE",
"405 450 LINE",
"405 28 LINE"
);
}
);
width = 533;
}
);
leftKerningGroup = n;
note = uni0446;
rightKerningGroup = "de-cy";
unicode = 0446;
},
{
glyphname = "sha-cy";
lastChange = "2016-07-09 15:16:08 +0000";
layers = (
{
layerId = "6418A72B-B7AF-4A99-B2A7-67092BA5BFD7";
paths = (
{
closed = 1;
nodes = (
"507 450 LINE",
"507 28 LINE",
"323 28 LINE",
"323 450 LINE",
"291 450 LINE",
"291 28 LINE",
"107 28 LINE",
"107 450 LINE",
"75 450 LINE",
"75 0 LINE",
"539 0 LINE",
"539 450 LINE"
);
}
);
width = 614;
}
);
leftKerningGroup = n;
note = uni0448;
rightKerningGroup = u;
unicode = 0448;
},
{
glyphname = "shcha-cy";
lastChange = "2016-07-09 15:16:13 +0000";
layers = (
{
layerId = "6418A72B-B7AF-4A99-B2A7-67092BA5BFD7";
paths = (
{
closed = 1;
nodes = (
"582 -97 LINE",
"613 -97 LINE",
"613 29 LINE",
"541 29 LINE",
"541 450 LINE",
"509 450 LINE",
"509 28 LINE",
"324 28 LINE",
"324 450 LINE",
"292 450 LINE",
"292 28 LINE",
"107 28 LINE",
"107 450 LINE",
"75 450 LINE",
"75 0 LINE",
"582 0 LINE"
);
}
);
width = 638;
}
);
leftKerningGroup = n;
note = uni0449;
rightKerningGroup = "de-cy";
unicode = 0449;
},
{
glyphname = "dzhe-cy";
lastChange = "2016-07-09 15:16:20 +0000";
layers = (
{
layerId = "6418A72B-B7AF-4A99-B2A7-67092BA5BFD7";
paths = (
{
closed = 1;
nodes = (
"107 28 LINE",
"107 450 LINE",
"75 450 LINE",
"75 0 LINE",
"241 0 LINE",
"241 -97 LINE",
"270 -97 LINE",
"270 0 LINE",
"435 0 LINE",
"435 450 LINE",
"403 450 LINE",
"403 28 LINE"
);
}
);
width = 510;
}
);
leftKerningGroup = n;
note = uni045F;
rightKerningGroup = u;
unicode = 045F;
},
{
glyphname = "softsign-cy";
lastChange = "2016-07-08 17:02:50 +0000";
layers = (
{
background = {
paths = (
{
closed = 1;
nodes = (
"153 0 LINE SMOOTH",
"234 0 OFFCURVE",
"302 67 OFFCURVE",
"302 147 CURVE SMOOTH",
"302 227 OFFCURVE",
"236 295 OFFCURVE",
"156 295 CURVE SMOOTH",
"107 295 LINE",
"107 450 LINE",
"75 450 LINE",
"75 0 LINE"
);
},
{
closed = 1;
nodes = (
"215 268 OFFCURVE",
"271 211 OFFCURVE",
"271 147 CURVE SMOOTH",
"271 82 OFFCURVE",
"217 27 OFFCURVE",
"154 27 CURVE SMOOTH",
"107 27 LINE",
"107 268 LINE",
"154 268 LINE SMOOTH"
);
}
);
};
layerId = "6418A72B-B7AF-4A99-B2A7-67092BA5BFD7";
paths = (
{
closed = 1;
nodes = (
"153 0 LINE SMOOTH",
"236 0 OFFCURVE",
"302 65 OFFCURVE",
"302 147 CURVE SMOOTH",
"302 242 OFFCURVE",
"249 295 OFFCURVE",
"156 295 CURVE SMOOTH",
"107 295 LINE",
"107 450 LINE",
"75 450 LINE",
"75 0 LINE"
);
},
{
closed = 1;
nodes = (
"229 268 OFFCURVE",
"271 224 OFFCURVE",
"271 147 CURVE SMOOTH",
"271 80 OFFCURVE",
"220 27 OFFCURVE",
"154 27 CURVE SMOOTH",
"107 27 LINE",
"107 268 LINE",
"154 268 LINE SMOOTH"
);
}
);
width = 342;
}
);
leftKerningGroup = n;
note = uni044C;
rightKerningGroup = "softsign-cy";
unicode = 044C;
},
{
glyphname = "hardsign-cy";
lastChange = "2016-07-09 05:28:16 +0000";
layers = (
{
components = (
{
name = "_part.topbar-cy";
piece = {
Width = -100;
};
}
);
layerId = "6418A72B-B7AF-4A99-B2A7-67092BA5BFD7";
paths = (
{
closed = 1;
nodes = (
"139 0 LINE",
"217 0 LINE SMOOTH",
"300 0 OFFCURVE",
"366 65 OFFCURVE",
"366 147 CURVE SMOOTH",
"366 242 OFFCURVE",
"313 295 OFFCURVE",
"220 295 CURVE SMOOTH",
"171 295 LINE",
"171 450 LINE",
"139 450 LINE"
);
},
{
closed = 1;
nodes = (
"293 268 OFFCURVE",
"335 224 OFFCURVE",
"335 147 CURVE SMOOTH",
"335 80 OFFCURVE",
"284 27 OFFCURVE",
"218 27 CURVE SMOOTH",
"171 27 LINE",
"171 268 LINE",
"218 268 LINE SMOOTH"
);
}
);
width = 406;
}
);
leftKerningGroup = "te-cy";
note = uni044A;
rightKerningGroup = "softsign-cy";
unicode = 044A;
},
{
glyphname = "yeru-cy";
lastChange = "2016-07-09 15:16:34 +0000";
layers = (
{
anchors = (
{
name = top;
position = "{249, 450}";
}
);
layerId = "6418A72B-B7AF-4A99-B2A7-67092BA5BFD7";
paths = (
{
closed = 1;
nodes = (
"422 0 LINE",
"422 450 LINE",
"391 450 LINE",
"391 0 LINE"
);
},
{
closed = 1;
nodes = (
"153 0 LINE SMOOTH",
"236 0 OFFCURVE",
"302 65 OFFCURVE",
"302 147 CURVE SMOOTH",
"302 242 OFFCURVE",
"249 295 OFFCURVE",
"156 295 CURVE SMOOTH",
"107 295 LINE",
"107 450 LINE",
"75 450 LINE",
"75 0 LINE"
);
},
{
closed = 1;
nodes = (
"229 268 OFFCURVE",
"271 224 OFFCURVE",
"271 147 CURVE SMOOTH",
"271 80 OFFCURVE",
"220 27 OFFCURVE",
"154 27 CURVE SMOOTH",
"107 27 LINE",
"107 268 LINE",
"154 268 LINE SMOOTH"
);
}
);
width = 497;
}
);
leftKerningGroup = n;
leftMetricsKey = "en-cy";
note = uni044B;
rightKerningGroup = u;
rightMetricsKey = "en-cy";
unicode = 044B;
},
{
glyphname = "lje-cy";
lastChange = "2016-07-09 15:18:04 +0000";
layers = (
{
background = {
components = (
{
name = "el-cy";
}
);
paths = (
{
closed = 1;
nodes = (
"318 268 LINE",
"468 268 LINE SMOOTH",
"543 268 OFFCURVE",
"585 224 OFFCURVE",
"585 147 CURVE SMOOTH",
"585 80 OFFCURVE",
"534 27 OFFCURVE",
"468 27 CURVE SMOOTH",
"433 27 LINE",
"433 0 LINE",
"467 0 LINE SMOOTH",
"550 0 OFFCURVE",
"616 65 OFFCURVE",
"616 147 CURVE SMOOTH",
"616 242 OFFCURVE",
"563 295 OFFCURVE",
"470 295 CURVE SMOOTH",
"318 295 LINE"
);
}
);
};
components = (
{
name = "el-cy";
}
);
layerId = "6418A72B-B7AF-4A99-B2A7-67092BA5BFD7";
paths = (
{
closed = 1;
nodes = (
"318 268 LINE",
"468 268 LINE SMOOTH",
"543 268 OFFCURVE",
"585 224 OFFCURVE",
"585 147 CURVE SMOOTH",
"585 80 OFFCURVE",
"534 27 OFFCURVE",
"468 27 CURVE SMOOTH",
"433 27 LINE",
"433 0 LINE",
"467 0 LINE SMOOTH",
"550 0 OFFCURVE",
"616 65 OFFCURVE",
"616 147 CURVE SMOOTH",
"616 242 OFFCURVE",
"563 295 OFFCURVE",
"470 295 CURVE SMOOTH",
"318 295 LINE"
);
}
);
width = 656;
}
);
leftKerningGroup = "el-cy";
leftMetricsKey = "el-cy";
note = uni0459;
rightKerningGroup = "softsign-cy";
rightMetricsKey = "softsign-cy";
unicode = 0459;
},
{
glyphname = "nje-cy";
lastChange = "2016-07-09 17:03:55 +0000";
layers = (
{
background = {
paths = (
{
closed = 1;
nodes = (
"399 0 LINE SMOOTH",
"482 0 OFFCURVE",
"548 65 OFFCURVE",
"548 147 CURVE SMOOTH",
"548 242 OFFCURVE",
"495 295 OFFCURVE",
"402 295 CURVE SMOOTH",
"377 295 LINE",
"377 450 LINE",
"345 450 LINE",
"345 0 LINE"
);
},
{
closed = 1;
nodes = (
"475 268 OFFCURVE",
"517 224 OFFCURVE",
"517 147 CURVE SMOOTH",
"517 80 OFFCURVE",
"466 27 OFFCURVE",
"400 27 CURVE SMOOTH",
"377 27 LINE",
"377 268 LINE",
"400 268 LINE SMOOTH"
);
}
);
};
layerId = "6418A72B-B7AF-4A99-B2A7-67092BA5BFD7";
paths = (
{
closed = 1;
nodes = (
"92 296 LINE",
"92 450 LINE",
"60 450 LINE",
"60 0 LINE",
"92 0 LINE",
"92 268 LINE",
"345 268 LINE",
"345 296 LINE"
);
},
{
closed = 1;
nodes = (
"399 0 LINE SMOOTH",
"482 0 OFFCURVE",
"548 65 OFFCURVE",
"548 147 CURVE SMOOTH",
"548 242 OFFCURVE",
"495 296 OFFCURVE",
"402 296 CURVE SMOOTH",
"377 296 LINE",
"377 450 LINE",
"345 450 LINE",
"345 0 LINE"
);
},
{
closed = 1;
nodes = (
"475 268 OFFCURVE",
"517 224 OFFCURVE",
"517 147 CURVE SMOOTH",
"517 80 OFFCURVE",
"466 27 OFFCURVE",
"400 27 CURVE SMOOTH",
"377 27 LINE",
"377 268 LINE",
"400 268 LINE SMOOTH"
);
}
);
width = 588;
}
);
leftKerningGroup = n;
leftMetricsKey = n;
note = uni045A;
rightKerningGroup = "softsign-cy";
rightMetricsKey = "softsign-cy";
unicode = 045A;
},
{
glyphname = "dze-cy";
lastChange = "2016-07-09 17:02:08 +0000";
layers = (
{
layerId = "6418A72B-B7AF-4A99-B2A7-67092BA5BFD7";
paths = (
{
closed = 1;
nodes = (
"129 435 OFFCURVE",
"161 435 CURVE SMOOTH",
"192 435 OFFCURVE",
"226 419 OFFCURVE",
"247 386 CURVE",
"247 433 LINE",
"225 451 OFFCURVE",
"194 463 OFFCURVE",
"164 463 CURVE SMOOTH",
"113 463 OFFCURVE",
"68 432 OFFCURVE",
"68 381 CURVE SMOOTH",
"68 319 OFFCURVE",
"114 290 OFFCURVE",
"181 251 CURVE SMOOTH",
"259 205 OFFCURVE",
"285 180 OFFCURVE",
"285 121 CURVE SMOOTH",
"285 48 OFFCURVE",
"219 17 OFFCURVE",
"170 17 CURVE SMOOTH",
"108 17 OFFCURVE",
"74 43 OFFCURVE",
"40 93 CURVE",
"40 43 LINE",
"70 10 OFFCURVE",
"112 -11 OFFCURVE",
"168 -11 CURVE SMOOTH",
"249 -11 OFFCURVE",
"317 52 OFFCURVE",
"317 126 CURVE SMOOTH",
"317 210 OFFCURVE",
"258 242 OFFCURVE",
"210 269 CURVE SMOOTH",
"129 314 OFFCURVE",
"100 339 OFFCURVE",
"100 381 CURVE SMOOTH",
"100 416 OFFCURVE"
);
}
);
width = 357;
}
);
leftKerningGroup = s;
note = uni0455;
rightKerningGroup = s;
unicode = 0455;
},
{
glyphname = "e-cy";
lastChange = "2016-07-08 17:02:50 +0000";
layers = (
{
layerId = "6418A72B-B7AF-4A99-B2A7-67092BA5BFD7";
paths = (
{
closed = 1;
nodes = (
"73 206 OFFCURVE",
"72 215 OFFCURVE",
"72 223 CURVE SMOOTH",
"72 336 OFFCURVE",
"167 431 OFFCURVE",
"278 431 CURVE SMOOTH",
"347 431 OFFCURVE",
"415 393 OFFCURVE",
"456 330 CURVE",
"456 382 LINE",
"409 433 OFFCURVE",
"352 459 OFFCURVE",
"285 459 CURVE SMOOTH",
"270 459 LINE SMOOTH",
"146 459 OFFCURVE",
"40 348 OFFCURVE",
"40 221 CURVE SMOOTH",
"40 94 OFFCURVE",
"146 -13 OFFCURVE",
"282 -13 CURVE SMOOTH",
"350 -13 OFFCURVE",
"408 13 OFFCURVE",
"456 64 CURVE",
"456 116 LINE",
"415 53 OFFCURVE",
"350 15 OFFCURVE",
"271 15 CURVE SMOOTH",
"192 15 OFFCURVE",
"106 85 OFFCURVE",
"78 170 CURVE",
"329 170 LINE",
"329 197 LINE",
"74 197 LINE"
);
}
);
width = 491;
}
);
leftKerningGroup = o;
note = uni0454;
rightKerningGroup = c;
unicode = 0454;
},
{
glyphname = "ereversed-cy";
lastChange = "2016-07-08 17:02:50 +0000";
layers = (
{
layerId = "6418A72B-B7AF-4A99-B2A7-67092BA5BFD7";
paths = (
{
closed = 1;
nodes = (
"380 85 OFFCURVE",
"294 15 OFFCURVE",
"215 15 CURVE SMOOTH",
"136 15 OFFCURVE",
"71 53 OFFCURVE",
"30 116 CURVE",
"30 64 LINE",
"78 13 OFFCURVE",
"136 -13 OFFCURVE",
"204 -13 CURVE SMOOTH",
"340 -13 OFFCURVE",
"446 94 OFFCURVE",
"446 221 CURVE SMOOTH",
"446 348 OFFCURVE",
"340 459 OFFCURVE",
"213 459 CURVE SMOOTH",
"204 459 LINE SMOOTH",
"135 459 OFFCURVE",
"77 433 OFFCURVE",
"30 382 CURVE",
"30 330 LINE",
"71 393 OFFCURVE",
"139 431 OFFCURVE",
"208 431 CURVE SMOOTH",
"319 431 OFFCURVE",
"414 336 OFFCURVE",
"414 223 CURVE SMOOTH",
"414 215 OFFCURVE",
"413 206 OFFCURVE",
"412 197 CURVE",
"157 197 LINE",
"157 170 LINE",
"408 170 LINE"
);
}
);
width = 486;
}
);
leftKerningGroup = "ereversed-cy";
note = uni044D;
rightKerningGroup = o;
unicode = 044D;
},
{
glyphname = "tshe-cy";
lastChange = "2016-07-09 16:57:01 +0000";
layers = (
{
anchors = (
{
name = bottom;
position = "{287, 0}";
},
{
name = center;
position = "{287, 225}";
},
{
name = top;
position = "{187, 750}";
}
);
layerId = "6418A72B-B7AF-4A99-B2A7-67092BA5BFD7";
paths = (
{
closed = 1;
nodes = (
"368 549 LINE",
"368 578 LINE",
"0 578 LINE",
"0 549 LINE"
);
},
{
closed = 1;
nodes = (
"117 318 OFFCURVE",
"194 393 OFFCURVE",
"291 393 CURVE SMOOTH",
"397 393 OFFCURVE",
"457 331 OFFCURVE",
"457 222 CURVE SMOOTH",
"457 0 LINE",
"489 0 LINE",
"489 222 LINE SMOOTH",
"489 349 OFFCURVE",
"418 421 OFFCURVE",
"291 421 CURVE SMOOTH",
"222 421 OFFCURVE",
"146 378 OFFCURVE",
"117 317 CURVE",
"117 750 LINE",
"85 750 LINE",
"85 0 LINE",
"117 0 LINE",
"117 222 LINE SMOOTH"
);
}
);
width = 549;
}
);
leftKerningGroup = "te-cy";
leftMetricsKey = hbar;
note = uni045B;
rightKerningGroup = h;
rightMetricsKey = h;
unicode = 045B;
},
{
glyphname = "iu-cy";
lastChange = "2016-07-08 17:02:50 +0000";
layers = (
{
layerId = "6418A72B-B7AF-4A99-B2A7-67092BA5BFD7";
paths = (
{
closed = 1;
nodes = (
"107 169 LINE",
"226 169 LINE",
"257 70 OFFCURVE",
"350 -11 OFFCURVE",
"454 -11 CURVE SMOOTH",
"462 -11 LINE SMOOTH",
"590 -11 OFFCURVE",
"696 100 OFFCURVE",
"696 227 CURVE SMOOTH",
"696 354 OFFCURVE",
"589 461 OFFCURVE",
"458 461 CURVE SMOOTH",
"326 461 OFFCURVE",
"220 354 OFFCURVE",
"220 225 CURVE SMOOTH",
"220 210 OFFCURVE",
"221 201 OFFCURVE",
"222 197 CURVE",
"107 197 LINE",
"107 450 LINE",
"75 450 LINE",
"75 0 LINE",
"107 0 LINE"
);
},
{
closed = 1;
nodes = (
"644 330 OFFCURVE",
"664 281 OFFCURVE",
"664 225 CURVE SMOOTH",
"664 112 OFFCURVE",
"570 17 OFFCURVE",
"458 17 CURVE SMOOTH",
"346 17 OFFCURVE",
"252 112 OFFCURVE",
"252 225 CURVE SMOOTH",
"252 337 OFFCURVE",
"346 433 OFFCURVE",
"458 433 CURVE SMOOTH",
"514 433 OFFCURVE",
"562 412 OFFCURVE",
"603 371 CURVE SMOOTH"
);
}
);
width = 736;
}
);
leftKerningGroup = n;
note = uni044E;
rightKerningGroup = o;
unicode = 044E;
},
{
glyphname = "ia-cy";
lastChange = "2016-07-08 17:02:50 +0000";
layers = (
{
layerId = "6418A72B-B7AF-4A99-B2A7-67092BA5BFD7";
paths = (
{
closed = 1;
nodes = (
"74 0 LINE",
"188 155 LINE",
"221 155 LINE",
"221 0 LINE",
"253 0 LINE",
"253 450 LINE",
"193 450 LINE SMOOTH",
"112 450 OFFCURVE",
"45 382 OFFCURVE",
"45 307 CURVE SMOOTH",
"45 231 OFFCURVE",
"91 174 OFFCURVE",
"156 158 CURVE",
"40 0 LINE"
);
},
{
closed = 1;
nodes = (
"130 182 OFFCURVE",
"74 239 OFFCURVE",
"74 303 CURVE SMOOTH",
"74 366 OFFCURVE",
"130 423 OFFCURVE",
"191 423 CURVE SMOOTH",
"221 423 LINE",
"221 182 LINE",
"191 182 LINE SMOOTH"
);
}
);
width = 328;
}
);
leftKerningGroup = "ia-cy";
note = uni044F;
rightKerningGroup = u;
unicode = 044F;
},
{
glyphname = "dje-cy";
lastChange = "2016-07-09 16:57:34 +0000";
layers = (
{
background = {
components = (
{
name = "tshe-cy";
}
);
paths = (
{
closed = 1;
nodes = (
"490 -128 OFFCURVE",
"414 -198 OFFCURVE",
"319 -198 CURVE",
"319 -170 LINE",
"398 -170 OFFCURVE",
"457 -111 OFFCURVE",
"457 -29 CURVE SMOOTH",
"457 0 LINE",
"489 0 LINE",
"489 -29 LINE"
);
}
);
};
components = (
{
name = "tshe-cy";
}
);
layerId = "6418A72B-B7AF-4A99-B2A7-67092BA5BFD7";
paths = (
{
closed = 1;
nodes = (
"490 -128 OFFCURVE",
"414 -198 OFFCURVE",
"319 -198 CURVE",
"319 -170 LINE",
"398 -170 OFFCURVE",
"457 -111 OFFCURVE",
"457 -29 CURVE SMOOTH",
"457 0 LINE",
"489 0 LINE",
"489 -29 LINE"
);
}
);
width = 549;
}
);
leftKerningGroup = hbar;
leftMetricsKey = hbar;
note = uni0452;
rightKerningGroup = h;
rightMetricsKey = h;
unicode = 0452;
},
{
color = 4;
glyphname = "yat-cy";
lastChange = "2016-07-09 15:19:37 +0000";
layers = (
{
components = (
{
name = "softsign-cy";
},
{
name = "topbar-cy";
transform = "{1, 0, 0, 1, -25, 0}";
piece = {
Group = 1;
Width = 60;
};
}
);
layerId = "6418A72B-B7AF-4A99-B2A7-67092BA5BFD7";
paths = (
{
closed = 1;
nodes = (
"107 450 LINE",
"107 750 LINE",
"75 750 LINE",
"75 450 LINE"
);
}
);
width = 342;
}
);
leftKerningGroup = hbar;
rightKerningGroup = "softsign-cy";
unicode = 0463;
},
{
color = 4;
glyphname = "yusbig-cy";
lastChange = "2016-07-09 16:41:38 +0000";
layers = (
{
background = {
paths = (
{
closed = 1;
nodes = (
"117 437 LINE",
"117 409 LINE",
"422 409 LINE",
"422 437 LINE"
);
}
);
};
layerId = "6418A72B-B7AF-4A99-B2A7-67092BA5BFD7";
paths = (
{
closed = 1;
nodes = (
"148 450 LINE",
"112 450 LINE",
"288 270 LINE",
"25 0 LINE",
"68 0 LINE",
"292 231 LINE",
"292 0 LINE",
"324 0 LINE",
"324 231 LINE",
"548 0 LINE",
"591 0 LINE",
"328 270 LINE",
"504 450 LINE",
"468 450 LINE",
"301 282 LINE",
"321 276 LINE"
);
},
{
closed = 1;
nodes = (
"144 450 LINE",
"144 422 LINE",
"473 422 LINE",
"473 450 LINE"
);
}
);
width = 616;
}
);
leftKerningGroup = x;
rightKerningGroup = x;
unicode = 046B;
},
{
color = 4;
glyphname = "fita-cy";
lastChange = "2016-07-08 17:02:50 +0000";
layers = (
{
components = (
{
name = o;
}
);
layerId = "6418A72B-B7AF-4A99-B2A7-67092BA5BFD7";
paths = (
{
closed = 1;
nodes = (
"58 240 LINE",
"58 212 LINE",
"495 212 LINE",
"495 240 LINE"
);
}
);
width = 546;
}
);
leftKerningGroup = o;
rightKerningGroup = o;
unicode = 0473;
},
{
color = 4;
glyphname = "izhitsa-cy";
lastChange = "2016-07-08 17:02:50 +0000";
layers = (
{
background = {
paths = (
{
closed = 0;
nodes = (
"493 439 LINE",
"455 439 OFFCURVE",
"426 402 OFFCURVE",
"372 284 CURVE"
);
},
{
closed = 1;
nodes = (
"434 383 OFFCURVE",
"465 415 OFFCURVE",
"493 415 CURVE",
"493 450 LINE",
"445 450 OFFCURVE",
"412 410 OFFCURVE",
"355 285 CURVE",
"383 272 LINE"
);
}
);
};
layerId = "6418A72B-B7AF-4A99-B2A7-67092BA5BFD7";
paths = (
{
closed = 1;
nodes = (
"247 60 LINE",
"60 450 LINE",
"25 450 LINE",
"247 -13 LINE",
"372 272 LINE SMOOTH",
"413 365 OFFCURVE",
"442 422 OFFCURVE",
"493 422 CURVE",
"493 450 LINE",
"432 450 OFFCURVE",
"398 410 OFFCURVE",
"354 308 CURVE SMOOTH"
);
}
);
width = 483;
}
);
leftKerningGroup = v;
rightKerningGroup = v;
unicode = 0475;
},
{
color = 4;
glyphname = "ghemiddlehook-cy";
lastChange = "2016-07-09 15:20:02 +0000";
layers = (
{
components = (
{
name = "ge-cy";
}
);
layerId = "6418A72B-B7AF-4A99-B2A7-67092BA5BFD7";
paths = (
{
closed = 1;
nodes = (
"373 -198 OFFCURVE",
"450 -129 OFFCURVE",
"450 -29 CURVE SMOOTH",
"450 102 LINE SMOOTH",
"450 214 OFFCURVE",
"385 305 OFFCURVE",
"268 305 CURVE SMOOTH",
"195 305 OFFCURVE",
"141 275 OFFCURVE",
"107 225 CURVE",
"107 129 LINE",
"107 218 OFFCURVE",
"181 275 OFFCURVE",
"268 275 CURVE SMOOTH",
"358 275 OFFCURVE",
"417 205 OFFCURVE",
"417 102 CURVE SMOOTH",
"417 -29 LINE SMOOTH",
"417 -112 OFFCURVE",
"356 -172 OFFCURVE",
"277 -172 CURVE",
"277 -198 LINE"
);
}
);
width = 510;
}
);
leftKerningGroup = n;
rightKerningGroup = h;
rightMetricsKey = h;
unicode = 0495;
},
{
color = 4;
glyphname = "kaverticalstroke-cy";
lastChange = "2016-07-09 15:21:13 +0000";
layers = (
{
anchors = (
{
name = bottomright;
position = "{454, 0}";
},
{
name = top;
position = "{230, 450}";
},
{
name = topright;
position = "{92, 450}";
}
);
background = {
anchors = (
{
name = bottomright;
position = "{412, 0}";
},
{
name = topleft;
position = "{428, 450}";
}
);
paths = (
{
closed = 1;
nodes = (
"97 282 LINE",
"97 254 LINE",
"209 254 LINE",
"209 282 LINE"
);
}
);
};
components = (
{
name = "_part.verticalbar-cy";
transform = "{0.8, 0, 0, 1, 62, 92}";
piece = {
Height = -100;
};
}
);
layerId = "6418A72B-B7AF-4A99-B2A7-67092BA5BFD7";
paths = (
{
closed = 1;
nodes = (
"107 450 LINE",
"75 450 LINE",
"75 0 LINE",
"107 0 LINE"
);
},
{
closed = 1;
nodes = (
"445 0 LINE",
"486 0 LINE",
"216 279 LINE",
"217 259 LINE",
"436 450 LINE",
"395 450 LINE",
"187 268 LINE"
);
},
{
closed = 1;
nodes = (
"97 282 LINE",
"97 254 LINE",
"209 254 LINE",
"209 282 LINE"
);
}
);
width = 511;
}
);
leftKerningGroup = n;
leftMetricsKey = "en-cy";
rightKerningGroup = k;
rightMetricsKey = "ka-cy";
unicode = 049D;
},
{
color = 4;
glyphname = "pemiddlehook-cy";
lastChange = "2016-07-09 15:22:26 +0000";
layers = (
{
components = (
{
name = "pe-cy";
}
);
layerId = "6418A72B-B7AF-4A99-B2A7-67092BA5BFD7";
paths = (
{
closed = 1;
nodes = (
"713 -198 OFFCURVE",
"790 -129 OFFCURVE",
"790 -29 CURVE SMOOTH",
"790 142 LINE SMOOTH",
"790 254 OFFCURVE",
"720 343 OFFCURVE",
"606 343 CURVE SMOOTH",
"529 343 OFFCURVE",
"472 312 OFFCURVE",
"437 251 CURVE",
"437 169 LINE",
"437 247 OFFCURVE",
"516 315 OFFCURVE",
"608 315 CURVE SMOOTH",
"700 315 OFFCURVE",
"757 235 OFFCURVE",
"757 142 CURVE SMOOTH",
"757 -29 LINE SMOOTH",
"757 -112 OFFCURVE",
"696 -170 OFFCURVE",
"617 -170 CURVE",
"617 -198 LINE"
);
}
);
width = 850;
}
);
leftKerningGroup = n;
rightKerningGroup = h;
rightMetricsKey = h;
unicode = 04A7;
},
{
color = 4;
glyphname = "haabkhasian-cy";
lastChange = "2016-07-09 15:22:37 +0000";
layers = (
{
background = {
components = (
{
name = o;
transform = "{1, 0, 0, 1, 5, 0}";
}
);
};
layerId = "6418A72B-B7AF-4A99-B2A7-67092BA5BFD7";
paths = (
{
closed = 1;
nodes = (
"601 50 LINE",
"545 20 OFFCURVE",
"496 8 OFFCURVE",
"430 6 CURVE",
"427 0 LINE",
"530 27 OFFCURVE",
"601 119 OFFCURVE",
"601 238 CURVE SMOOTH",
"601 367 OFFCURVE",
"516 453 OFFCURVE",
"389 453 CURVE SMOOTH",
"263 453 OFFCURVE",
"177 365 OFFCURVE",
"177 237 CURVE SMOOTH",
"177 112 OFFCURVE",
"258 15 OFFCURVE",
"377 -5 CURVE",
"373 0 LINE",
"354 -2 OFFCURVE",
"340 -3 OFFCURVE",
"326 -3 CURVE SMOOTH",
"180 -3 OFFCURVE",
"67 102 OFFCURVE",
"67 238 CURVE SMOOTH",
"67 367 OFFCURVE",
"147 451 OFFCURVE",
"252 451 CURVE",
"252 480 LINE",
"130 480 OFFCURVE",
"35 382 OFFCURVE",
"35 238 CURVE SMOOTH",
"35 87 OFFCURVE",
"158 -27 OFFCURVE",
"322 -27 CURVE SMOOTH",
"352 -27 OFFCURVE",
"378 -23 OFFCURVE",
"401 -14 CURVE",
"458 -27 OFFCURVE",
"553 -8 OFFCURVE",
"615 23 CURVE"
);
},
{
closed = 1;
nodes = (
"209 349 OFFCURVE",
"281 424 OFFCURVE",
"389 424 CURVE SMOOTH",
"499 424 OFFCURVE",
"569 352 OFFCURVE",
"569 238 CURVE SMOOTH",
"569 122 OFFCURVE",
"508 41 OFFCURVE",
"401 12 CURVE",
"285 28 OFFCURVE",
"209 118 OFFCURVE",
"209 237 CURVE SMOOTH"
);
}
);
width = 650;
}
);
leftKerningGroup = o;
leftMetricsKey = o;
rightKerningGroup = o;
rightMetricsKey = o;
unicode = 04A9;
},
{
color = 4;
glyphname = "ustrait-cy";
lastChange = "2016-07-08 17:02:50 +0000";
layers = (
{
components = (
{
name = v;
}
);
layerId = "6418A72B-B7AF-4A99-B2A7-67092BA5BFD7";
paths = (
{
closed = 1;
nodes = (
"243 40 LINE",
"211 40 LINE",
"211 -200 LINE",
"243 -200 LINE"
);
}
);
width = 453;
}
);
leftKerningGroup = v;
leftMetricsKey = v;
rightKerningGroup = v;
rightMetricsKey = v;
unicode = 04AF;
},
{
color = 4;
glyphname = "cheabkhasian-cy";
lastChange = "2016-07-09 15:22:59 +0000";
layers = (
{
components = (
{
name = e;
transform = "{1, 0, 0, 1, 44, 0}";
}
);
layerId = "6418A72B-B7AF-4A99-B2A7-67092BA5BFD7";
paths = (
{
closed = 1;
nodes = (
"169 89 LINE",
"153 77 OFFCURVE",
"139 71 OFFCURVE",
"114 71 CURVE SMOOTH",
"66 71 OFFCURVE",
"21 112 OFFCURVE",
"18 160 CURVE",
"-10 160 LINE",
"-7 96 OFFCURVE",
"46 44 OFFCURVE",
"116 44 CURVE SMOOTH",
"140 44 OFFCURVE",
"166 50 OFFCURVE",
"190 68 CURVE"
);
}
);
width = 539;
}
);
leftKerningGroup = "cheabkhasian-cy";
rightKerningGroup = e;
rightMetricsKey = e;
unicode = 04BD;
},
{
color = 4;
glyphname = "dzeabkhasian-cy";
lastChange = "2016-07-08 17:02:50 +0000";
layers = (
{
anchors = (
{
name = bottomright;
position = "{179, 0}";
},
{
name = top;
position = "{151, 450}";
}
);
background = {
paths = (
{
closed = 1;
nodes = (
"203 273 LINE",
"321 450 LINE",
"40 450 LINE",
"40 422 LINE",
"269 422 LINE",
"178 285 LINE"
);
}
);
};
layerId = "6418A72B-B7AF-4A99-B2A7-67092BA5BFD7";
paths = (
{
closed = 1;
nodes = (
"157 297 CURVE",
"137 297 LINE",
"137 269 LINE",
"161 269 LINE SMOOTH",
"228 269 OFFCURVE",
"286 222 OFFCURVE",
"286 150 CURVE SMOOTH",
"286 61 OFFCURVE",
"235 15 OFFCURVE",
"162 15 CURVE SMOOTH",
"97 15 OFFCURVE",
"50 55 OFFCURVE",
"30 110 CURVE",
"30 55 LINE",
"63 11 OFFCURVE",
"105 -13 OFFCURVE",
"168 -13 CURVE SMOOTH",
"255 -13 OFFCURVE",
"318 54 OFFCURVE",
"318 150 CURVE SMOOTH",
"318 236 OFFCURVE",
"250 297 OFFCURVE"
);
},
{
closed = 1;
nodes = (
"183 273 LINE",
"301 450 LINE",
"30 450 LINE",
"30 422 LINE",
"249 422 LINE",
"158 285 LINE"
);
}
);
width = 358;
}
);
leftKerningGroup = "ze-cy";
rightKerningGroup = "ze-cy";
unicode = 04E1;
},
{
color = 4;
glyphname = "ve-cy.loclBGR";
lastChange = "2016-07-09 03:35:53 +0000";
layers = (
{
background = {
anchors = (
{
name = bottom;
position = "{273, 0}";
},
{
name = center;
position = "{273, 225}";
},
{
name = ogonek;
position = "{491, 10}";
},
{
name = top;
position = "{273, 450}";
},
{
name = topright;
position = "{526, 450}";
}
);
components = (
{
name = "ze-cy.loclBGR";
transform = "{1, 0, 0, 1, 46, 206}";
}
);
};
layerId = "6418A72B-B7AF-4A99-B2A7-67092BA5BFD7";
paths = (
{
closed = 1;
nodes = (
"362 408 OFFCURVE",
"397 454 OFFCURVE",
"397 523 CURVE SMOOTH",
"397 612 OFFCURVE",
"339 669 OFFCURVE",
"245 669 CURVE SMOOTH",
"151 669 OFFCURVE",
"75 613 OFFCURVE",
"75 463 CURVE SMOOTH",
"75 190 LINE SMOOTH",
"75 64 OFFCURVE",
"126 -16 OFFCURVE",
"259 -16 CURVE SMOOTH",
"394 -16 OFFCURVE",
"464 68 OFFCURVE",
"464 186 CURVE SMOOTH",
"464 294 OFFCURVE",
"405 375 OFFCURVE",
"300 387 CURVE"
);
},
{
closed = 1;
nodes = (
"158 12 OFFCURVE",
"107 70 OFFCURVE",
"107 179 CURVE SMOOTH",
"107 463 LINE SMOOTH",
"107 596 OFFCURVE",
"167 641 OFFCURVE",
"244 641 CURVE SMOOTH",
"318 641 OFFCURVE",
"366 599 OFFCURVE",
"366 527 CURVE SMOOTH",
"366 452 OFFCURVE",
"315 397 OFFCURVE",
"231 397 CURVE SMOOTH",
"96 397 LINE",
"96 369 LINE",
"243 369 LINE SMOOTH",
"373 369 OFFCURVE",
"432 290 OFFCURVE",
"432 189 CURVE SMOOTH",
"432 87 OFFCURVE",
"373 12 OFFCURVE",
"258 12 CURVE SMOOTH"
);
}
);
width = 504;
}
);
leftKerningGroup = n;
leftMetricsKey = "en-cy";
rightKerningGroup = "ve-cy";
rightMetricsKey = "ze-cy";
},
{
color = 4;
glyphname = "ge-cy.loclBGR";
lastChange = "2016-07-09 03:50:55 +0000";
layers = (
{
anchors = (
{
name = bottom;
position = "{180, 0}";
},
{
name = top;
position = "{185, 450}";
}
);
layerId = "6418A72B-B7AF-4A99-B2A7-67092BA5BFD7";
paths = (
{
closed = 1;
nodes = (
"144 433 OFFCURVE",
"177 433 CURVE SMOOTH",
"213 433 OFFCURVE",
"244 415 OFFCURVE",
"244 376 CURVE SMOOTH",
"244 330 OFFCURVE",
"208 309 OFFCURVE",
"148 273 CURVE SMOOTH",
"67 225 OFFCURVE",
"31 189 OFFCURVE",
"31 119 CURVE SMOOTH",
"31 43 OFFCURVE",
"95 -11 OFFCURVE",
"180 -11 CURVE SMOOTH",
"245 -11 OFFCURVE",
"298 17 OFFCURVE",
"314 45 CURVE",
"314 101 LINE",
"290 45 OFFCURVE",
"250 17 OFFCURVE",
"181 17 CURVE SMOOTH",
"114 17 OFFCURVE",
"63 56 OFFCURVE",
"63 118 CURVE SMOOTH",
"63 180 OFFCURVE",
"92 206 OFFCURVE",
"167 251 CURVE SMOOTH",
"224 286 OFFCURVE",
"275 312 OFFCURVE",
"275 376 CURVE SMOOTH",
"275 436 OFFCURVE",
"228 461 OFFCURVE",
"172 461 CURVE SMOOTH",
"141 461 OFFCURVE",
"107 453 OFFCURVE",
"76 436 CURVE",
"76 392 LINE",
"106 418 OFFCURVE"
);
}
);
width = 344;
}
);
leftKerningGroup = s;
rightKerningGroup = s;
},
{
color = 4;
glyphname = "zhe-cy.loclBGR";
lastChange = "2016-07-09 05:29:41 +0000";
layers = (
{
anchors = (
{
name = bottomright;
position = "{566, 0}";
},
{
name = top;
position = "{308, 450}";
}
);
layerId = "6418A72B-B7AF-4A99-B2A7-67092BA5BFD7";
paths = (
{
closed = 1;
nodes = (
"148 450 LINE",
"112 450 LINE",
"288 270 LINE",
"25 0 LINE",
"68 0 LINE",
"292 231 LINE",
"292 0 LINE",
"324 0 LINE",
"324 231 LINE",
"548 0 LINE",
"591 0 LINE",
"328 270 LINE",
"504 450 LINE",
"468 450 LINE",
"324 305 LINE",
"324 750 LINE",
"292 750 LINE",
"292 305 LINE"
);
}
);
width = 616;
}
);
leftKerningGroup = x;
rightKerningGroup = x;
},
{
color = 4;
glyphname = "ze-cy.loclBGR";
lastChange = "2016-07-09 03:22:37 +0000";
layers = (
{
layerId = "6418A72B-B7AF-4A99-B2A7-67092BA5BFD7";
paths = (
{
closed = 1;
nodes = (
"169 463 OFFCURVE",
"128 446 OFFCURVE",
"102 420 CURVE",
"102 368 LINE",
"130 417 OFFCURVE",
"174 435 OFFCURVE",
"215 435 CURVE SMOOTH",
"277 435 OFFCURVE",
"320 393 OFFCURVE",
"320 327 CURVE SMOOTH",
"320 246 OFFCURVE",
"260 191 OFFCURVE",
"186 191 CURVE SMOOTH",
"171 191 LINE",
"171 163 LINE",
"186 163 LINE SMOOTH",
"315 164 OFFCURVE",
"387 100 OFFCURVE",
"387 -3 CURVE SMOOTH",
"387 -103 OFFCURVE",
"317 -190 OFFCURVE",
"195 -190 CURVE SMOOTH",
"112 -190 OFFCURVE",
"54 -150 OFFCURVE",
"30 -95 CURVE",
"30 -150 LINE",
"70 -194 OFFCURVE",
"125 -218 OFFCURVE",
"196 -218 CURVE SMOOTH",
"339 -218 OFFCURVE",
"420 -122 OFFCURVE",
"420 -6 CURVE SMOOTH",
"420 103 OFFCURVE",
"349 171 OFFCURVE",
"248 181 CURVE",
"295 190 OFFCURVE",
"353 248 OFFCURVE",
"353 327 CURVE SMOOTH",
"353 406 OFFCURVE",
"294 463 OFFCURVE",
"213 463 CURVE SMOOTH"
);
}
);
width = 460;
}
);
leftKerningGroup = "ze-cy";
leftMetricsKey = "ze-cy";
rightKerningGroup = "ve-cy";
rightMetricsKey = "ze-cy";
},
{
color = 4;
glyphname = "che-cy.loclBGR";
lastChange = "2016-07-09 03:52:16 +0000";
layers = (
{
anchors = (
{
name = bottomright;
position = "{346, 0}";
},
{
name = center;
position = "{200, 163}";
},
{
name = top;
position = "{200, 450}";
}
);
layerId = "6418A72B-B7AF-4A99-B2A7-67092BA5BFD7";
paths = (
{
closed = 1;
nodes = (
"40 172 OFFCURVE",
"97 111 OFFCURVE",
"198 111 CURVE SMOOTH",
"253 111 OFFCURVE",
"311 147 OFFCURVE",
"330 192 CURVE",
"330 0 LINE",
"361 0 LINE",
"361 450 LINE",
"329 450 LINE",
"329 273 LINE SMOOTH",
"329 199 OFFCURVE",
"272 141 OFFCURVE",
"199 141 CURVE SMOOTH",
"118 141 OFFCURVE",
"72 189 OFFCURVE",
"72 273 CURVE SMOOTH",
"72 450 LINE",
"40 450 LINE",
"40 280 LINE SMOOTH"
);
}
);
width = 436;
}
);
leftKerningGroup = "che-cy";
rightKerningGroup = u;
},
{
color = 4;
glyphname = "softsign-cy.loclBGR";
lastChange = "2016-07-09 05:28:54 +0000";
layers = (
{
background = {
components = (
{
name = o;
}
);
};
guideLines = (
{
position = "{142, 81}";
}
);
layerId = "6418A72B-B7AF-4A99-B2A7-67092BA5BFD7";
paths = (
{
closed = 1;
nodes = (
"175 295 OFFCURVE",
"128 264 OFFCURVE",
"107 225 CURVE",
"107 450 LINE",
"75 450 LINE",
"75 151 LINE SMOOTH",
"75 48 OFFCURVE",
"139 -10 OFFCURVE",
"236 -10 CURVE SMOOTH",
"337 -10 OFFCURVE",
"403 55 OFFCURVE",
"403 145 CURVE SMOOTH",
"403 238 OFFCURVE",
"334 295 OFFCURVE",
"242 295 CURVE SMOOTH"
);
},
{
closed = 1;
nodes = (
"160 18 OFFCURVE",
"107 66 OFFCURVE",
"107 150 CURVE SMOOTH",
"107 216 OFFCURVE",
"162 267 OFFCURVE",
"243 267 CURVE SMOOTH",
"321 267 OFFCURVE",
"371 220 OFFCURVE",
"371 146 CURVE SMOOTH",
"371 70 OFFCURVE",
"319 18 OFFCURVE",
"238 18 CURVE SMOOTH"
);
}
);
width = 443;
},
{
associatedMasterId = "6418A72B-B7AF-4A99-B2A7-67092BA5BFD7";
background = {
components = (
{
name = o;
}
);
};
guideLines = (
{
position = "{142, 81}";
}
);
layerId = "931DD9EC-EA5C-4074-A5A4-D97C26FF8B9E";
name = "Regular Jul 8 16, 11:17";
paths = (
{
closed = 1;
nodes = (
"184 285 OFFCURVE",
"131 264 OFFCURVE",
"107 225 CURVE",
"107 450 LINE",
"75 450 LINE",
"75 141 LINE SMOOTH",
"75 41 OFFCURVE",
"131 -10 OFFCURVE",
"233 -10 CURVE SMOOTH",
"313 -10 OFFCURVE",
"383 35 OFFCURVE",
"383 137 CURVE SMOOTH",
"383 232 OFFCURVE",
"324 285 OFFCURVE",
"235 285 CURVE SMOOTH"
);
},
{
closed = 1;
nodes = (
"153 18 OFFCURVE",
"107 58 OFFCURVE",
"107 140 CURVE SMOOTH",
"107 210 OFFCURVE",
"152 257 OFFCURVE",
"235 257 CURVE SMOOTH",
"304 257 OFFCURVE",
"351 214 OFFCURVE",
"351 137 CURVE SMOOTH",
"351 50 OFFCURVE",
"300 18 OFFCURVE",
"234 18 CURVE SMOOTH"
);
}
);
width = 422;
}
);
leftKerningGroup = u;
leftMetricsKey = "en-cy";
rightKerningGroup = "softsign-cy";
rightMetricsKey = "softsign-cy";
},
{
color = 4;
glyphname = "iu-cy.loclBGR";
lastChange = "2016-07-09 05:30:01 +0000";
layers = (
{
layerId = "6418A72B-B7AF-4A99-B2A7-67092BA5BFD7";
paths = (
{
closed = 1;
nodes = (
"107 169 LINE",
"226 169 LINE",
"258 66 OFFCURVE",
"351 -11 OFFCURVE",
"462 -11 CURVE SMOOTH",
"590 -11 OFFCURVE",
"696 100 OFFCURVE",
"696 227 CURVE SMOOTH",
"696 354 OFFCURVE",
"589 461 OFFCURVE",
"458 461 CURVE SMOOTH",
"326 461 OFFCURVE",
"220 354 OFFCURVE",
"220 225 CURVE SMOOTH",
"220 210 OFFCURVE",
"221 201 OFFCURVE",
"222 197 CURVE",
"107 197 LINE",
"107 750 LINE",
"75 750 LINE",
"75 0 LINE",
"107 0 LINE"
);
},
{
closed = 1;
nodes = (
"664 342 OFFCURVE",
"664 225 CURVE SMOOTH",
"664 112 OFFCURVE",
"570 17 OFFCURVE",
"458 17 CURVE SMOOTH",
"346 17 OFFCURVE",
"252 112 OFFCURVE",
"252 225 CURVE SMOOTH",
"252 337 OFFCURVE",
"346 433 OFFCURVE",
"458 433 CURVE SMOOTH",
"567 433 OFFCURVE"
);
}
);
width = 736;
}
);
leftKerningGroup = h;
rightKerningGroup = o;
},
{
color = 4;
glyphname = "be-cy.loclSRB";
lastChange = "2016-07-09 05:30:04 +0000";
layers = (
{
background = {
components = (
{
name = o;
}
);
paths = (
{
closed = 0;
nodes = (
"462 743 LINE",
"248 743 LINE SMOOTH",
"126 743 OFFCURVE",
"86 704 OFFCURVE",
"86 629 CURVE SMOOTH",
"86 540 OFFCURVE",
"151 446 OFFCURVE",
"309 447 CURVE SMOOTH"
);
}
);
};
components = (
{
name = o;
}
);
layerId = "6418A72B-B7AF-4A99-B2A7-67092BA5BFD7";
paths = (
{
closed = 1;
nodes = (
"165 551 OFFCURVE",
"115 584 OFFCURVE",
"115 645 CURVE SMOOTH",
"115 697 OFFCURVE",
"151 722 OFFCURVE",
"234 722 CURVE SMOOTH",
"462 722 LINE",
"462 750 LINE",
"234 750 LINE SMOOTH",
"136 750 OFFCURVE",
"83 715 OFFCURVE",
"83 645 CURVE SMOOTH",
"83 564 OFFCURVE",
"133 534 OFFCURVE",
"356 421 CURVE",
"370 446 LINE"
);
}
);
width = 546;
}
);
leftKerningGroup = o;
leftMetricsKey = o;
rightKerningGroup = o;
rightMetricsKey = o;
},
{
glyphname = "el-cy.ss01";
lastChange = "2016-07-09 15:54:52 +0000";
layers = (
{
layerId = "6418A72B-B7AF-4A99-B2A7-67092BA5BFD7";
paths = (
{
closed = 1;
nodes = (
"368 450 LINE",
"121 450 LINE",
"121 289 LINE SMOOTH",
"121 96 OFFCURVE",
"95 28 OFFCURVE",
"20 28 CURVE",
"20 0 LINE",
"116 0 OFFCURVE",
"150 75 OFFCURVE",
"150 289 CURVE SMOOTH",
"150 422 LINE",
"336 422 LINE",
"336 0 LINE",
"368 0 LINE"
);
}
);
width = 428;
}
);
rightMetricsKey = u;
},
{
glyphname = "lje-cy.ss01";
lastChange = "2016-07-09 15:57:58 +0000";
layers = (
{
background = {
paths = (
{
closed = 1;
nodes = (
"414 0 LINE SMOOTH",
"497 0 OFFCURVE",
"563 65 OFFCURVE",
"563 147 CURVE SMOOTH",
"563 242 OFFCURVE",
"510 295 OFFCURVE",
"417 295 CURVE SMOOTH",
"368 295 LINE",
"368 450 LINE",
"336 450 LINE",
"336 0 LINE"
);
},
{
closed = 1;
nodes = (
"490 268 OFFCURVE",
"532 224 OFFCURVE",
"532 147 CURVE SMOOTH",
"532 80 OFFCURVE",
"481 27 OFFCURVE",
"415 27 CURVE SMOOTH",
"368 27 LINE",
"368 268 LINE",
"415 268 LINE SMOOTH"
);
}
);
};
layerId = "6418A72B-B7AF-4A99-B2A7-67092BA5BFD7";
paths = (
{
closed = 1;
nodes = (
"358 295 LINE",
"358 450 LINE",
"121 450 LINE",
"121 289 LINE SMOOTH",
"121 96 OFFCURVE",
"95 28 OFFCURVE",
"20 28 CURVE",
"20 0 LINE",
"116 0 OFFCURVE",
"153 75 OFFCURVE",
"153 289 CURVE SMOOTH",
"153 422 LINE",
"326 422 LINE",
"326 0 LINE",
"404 0 LINE SMOOTH",
"487 0 OFFCURVE",
"554 65 OFFCURVE",
"554 147 CURVE SMOOTH",
"554 242 OFFCURVE",
"500 295 OFFCURVE",
"407 295 CURVE SMOOTH"
);
},
{
closed = 1;
nodes = (
"358 27 LINE",
"358 268 LINE",
"405 268 LINE SMOOTH",
"480 268 OFFCURVE",
"522 224 OFFCURVE",
"522 147 CURVE SMOOTH",
"522 80 OFFCURVE",
"471 27 OFFCURVE",
"405 27 CURVE SMOOTH"
);
}
);
width = 594;
}
);
rightMetricsKey = "softsign-cy";
},
{
glyphname = zero;
lastChange = "2016-07-09 16:10:15 +0000";
layers = (
{
layerId = "6418A72B-B7AF-4A99-B2A7-67092BA5BFD7";
paths = (
{
closed = 1;
nodes = (
"644 -13 OFFCURVE",
"816 162 OFFCURVE",
"816 373 CURVE SMOOTH",
"816 586 OFFCURVE",
"641 761 OFFCURVE",
"428 761 CURVE SMOOTH",
"215 761 OFFCURVE",
"40 584 OFFCURVE",
"40 376 CURVE SMOOTH",
"40 163 OFFCURVE",
"210 -13 OFFCURVE",
"428 -13 CURVE SMOOTH"
);
},
{
closed = 1;
nodes = (
"783 177 OFFCURVE",
"623 16 OFFCURVE",
"428 16 CURVE SMOOTH",
"232 16 OFFCURVE",
"73 177 OFFCURVE",
"73 374 CURVE SMOOTH",
"73 570 OFFCURVE",
"232 732 OFFCURVE",
"428 732 CURVE SMOOTH",
"623 732 OFFCURVE",
"783 570 OFFCURVE",
"783 374 CURVE SMOOTH"
);
}
);
width = 856;
}
);
leftKerningGroup = zero;
note = zero;
rightKerningGroup = zero;
unicode = 0030;
},
{
glyphname = one;
lastChange = "2016-07-08 17:02:49 +0000";
layers = (
{
layerId = "6418A72B-B7AF-4A99-B2A7-67092BA5BFD7";
paths = (
{
closed = 1;
nodes = (
"166 748 LINE",
"15 748 LINE",
"15 719 LINE",
"133 719 LINE",
"133 0 LINE",
"166 0 LINE"
);
}
);
width = 241;
}
);
leftKerningGroup = one;
note = one;
rightKerningGroup = one;
unicode = 0031;
},
{
glyphname = two;
lastChange = "2016-07-09 16:10:41 +0000";
layers = (
{
layerId = "6418A72B-B7AF-4A99-B2A7-67092BA5BFD7";
paths = (
{
closed = 1;
nodes = (
"556 379 OFFCURVE",
"499 293 OFFCURVE",
"385 221 CURVE SMOOTH",
"36 0 LINE",
"586 0 LINE",
"586 29 LINE",
"140 29 LINE",
"412 203 LINE SMOOTH",
"530 278 OFFCURVE",
"589 369 OFFCURVE",
"589 479 CURVE SMOOTH",
"589 631 OFFCURVE",
"480 759 OFFCURVE",
"317 759 CURVE SMOOTH",
"153 759 OFFCURVE",
"30 631 OFFCURVE",
"30 462 CURVE",
"61 462 LINE",
"61 611 OFFCURVE",
"170 730 OFFCURVE",
"315 730 CURVE SMOOTH",
"460 730 OFFCURVE",
"556 615 OFFCURVE",
"556 480 CURVE SMOOTH"
);
}
);
width = 637;
}
);
leftKerningGroup = two;
note = two;
rightKerningGroup = two;
unicode = 0032;
},
{
glyphname = three;
lastChange = "2016-07-09 16:11:29 +0000";
layers = (
{
layerId = "6418A72B-B7AF-4A99-B2A7-67092BA5BFD7";
paths = (
{
closed = 1;
nodes = (
"544 330 OFFCURVE",
"496 410 OFFCURVE",
"423 454 CURVE",
"458 493 OFFCURVE",
"476 537 OFFCURVE",
"476 586 CURVE SMOOTH",
"476 684 OFFCURVE",
"403 761 OFFCURVE",
"290 761 CURVE SMOOTH",
"174 761 OFFCURVE",
"100 678 OFFCURVE",
"97 575 CURVE",
"129 575 LINE",
"132 662 OFFCURVE",
"195 733 OFFCURVE",
"290 733 CURVE SMOOTH",
"384 733 OFFCURVE",
"444 663 OFFCURVE",
"444 583 CURVE SMOOTH",
"444 537 OFFCURVE",
"424 490 OFFCURVE",
"389 463 CURVE SMOOTH",
"371 449 LINE",
"390 441 LINE SMOOTH",
"462 410 OFFCURVE",
"511 321 OFFCURVE",
"511 237 CURVE SMOOTH",
"511 114 OFFCURVE",
"409 18 OFFCURVE",
"285 18 CURVE SMOOTH",
"161 18 OFFCURVE",
"61 115 OFFCURVE",
"61 236 CURVE SMOOTH",
"61 252 LINE",
"30 252 LINE",
"30 231 LINE SMOOTH",
"30 99 OFFCURVE",
"146 -10 OFFCURVE",
"286 -10 CURVE SMOOTH",
"428 -10 OFFCURVE",
"544 102 OFFCURVE",
"544 241 CURVE SMOOTH"
);
}
);
width = 589;
}
);
leftKerningGroup = three;
note = three;
rightKerningGroup = three;
unicode = 0033;
},
{
glyphname = four;
lastChange = "2016-07-09 16:11:45 +0000";
layers = (
{
layerId = "6418A72B-B7AF-4A99-B2A7-67092BA5BFD7";
paths = (
{
closed = 1;
nodes = (
"388 91 LINE",
"475 91 LINE",
"475 120 LINE",
"388 120 LINE",
"388 760 LINE",
"17 91 LINE",
"355 91 LINE",
"355 0 LINE",
"388 0 LINE"
);
},
{
closed = 1;
nodes = (
"355 645 LINE",
"355 120 LINE",
"66 120 LINE"
);
}
);
width = 490;
}
);
leftKerningGroup = four;
note = four;
rightKerningGroup = four;
unicode = 0034;
},
{
glyphname = five;
lastChange = "2016-07-09 16:12:16 +0000";
layers = (
{
layerId = "6418A72B-B7AF-4A99-B2A7-67092BA5BFD7";
paths = (
{
closed = 1;
nodes = (
"96 416 LINE",
"131 416 LINE",
"184 485 OFFCURVE",
"256 529 OFFCURVE",
"339 529 CURVE SMOOTH",
"468 529 OFFCURVE",
"572 413 OFFCURVE",
"572 273 CURVE SMOOTH",
"572 132 OFFCURVE",
"459 18 OFFCURVE",
"319 18 CURVE SMOOTH",
"208 18 OFFCURVE",
"108 95 OFFCURVE",
"76 202 CURVE",
"45 202 LINE",
"74 79 OFFCURVE",
"192 -10 OFFCURVE",
"319 -10 CURVE SMOOTH",
"476 -10 OFFCURVE",
"604 116 OFFCURVE",
"604 273 CURVE SMOOTH",
"604 429 OFFCURVE",
"487 557 OFFCURVE",
"339 557 CURVE SMOOTH",
"258 557 OFFCURVE",
"183 524 OFFCURVE",
"131 464 CURVE",
"158 721 LINE",
"521 721 LINE",
"521 750 LINE",
"131 750 LINE"
);
}
);
width = 649;
}
);
leftKerningGroup = five;
note = five;
rightKerningGroup = five;
unicode = 0035;
},
{
glyphname = six;
lastChange = "2016-07-09 16:12:50 +0000";
layers = (
{
layerId = "6418A72B-B7AF-4A99-B2A7-67092BA5BFD7";
paths = (
{
closed = 1;
nodes = (
"276 555 OFFCURVE",
"216 540 OFFCURVE",
"181 515 CURVE",
"391 750 LINE",
"353 750 LINE",
"134 499 LINE SMOOTH",
"67 422 OFFCURVE",
"31 345 OFFCURVE",
"31 268 CURVE SMOOTH",
"31 114 OFFCURVE",
"159 -12 OFFCURVE",
"316 -12 CURVE SMOOTH",
"472 -12 OFFCURVE",
"598 114 OFFCURVE",
"598 269 CURVE SMOOTH",
"598 424 OFFCURVE",
"471 555 OFFCURVE",
"324 555 CURVE SMOOTH"
);
},
{
closed = 1;
nodes = (
"64 409 OFFCURVE",
"180 526 OFFCURVE",
"316 526 CURVE SMOOTH",
"452 526 OFFCURVE",
"565 410 OFFCURVE",
"565 270 CURVE SMOOTH",
"565 130 OFFCURVE",
"454 16 OFFCURVE",
"316 16 CURVE SMOOTH",
"178 16 OFFCURVE",
"64 130 OFFCURVE",
"64 270 CURVE SMOOTH"
);
}
);
width = 631;
}
);
leftKerningGroup = six;
note = six;
rightKerningGroup = six;
unicode = 0036;
},
{
glyphname = seven;
lastChange = "2016-07-09 16:13:07 +0000";
layers = (
{
layerId = "6418A72B-B7AF-4A99-B2A7-67092BA5BFD7";
paths = (
{
closed = 1;
nodes = (
"468 721 LINE",
"97 0 LINE",
"129 0 LINE",
"515 750 LINE",
"20 750 LINE",
"20 721 LINE"
);
}
);
width = 535;
}
);
leftKerningGroup = seven;
note = seven;
rightKerningGroup = seven;
unicode = 0037;
},
{
glyphname = eight;
lastChange = "2016-07-09 16:14:07 +0000";
layers = (
{
layerId = "6418A72B-B7AF-4A99-B2A7-67092BA5BFD7";
paths = (
{
closed = 1;
nodes = (
"436 693 OFFCURVE",
"366 760 OFFCURVE",
"280 760 CURVE SMOOTH",
"194 760 OFFCURVE",
"124 693 OFFCURVE",
"124 609 CURVE SMOOTH",
"124 548 OFFCURVE",
"161 500 OFFCURVE",
"210 476 CURVE",
"105 444 OFFCURVE",
"30 348 OFFCURVE",
"30 238 CURVE SMOOTH",
"30 101 OFFCURVE",
"145 -14 OFFCURVE",
"285 -14 CURVE SMOOTH",
"425 -14 OFFCURVE",
"539 99 OFFCURVE",
"539 238 CURVE SMOOTH",
"539 353 OFFCURVE",
"461 451 OFFCURVE",
"353 478 CURVE",
"404 505 OFFCURVE",
"436 552 OFFCURVE",
"436 609 CURVE SMOOTH"
);
},
{
closed = 1;
nodes = (
"346 731 OFFCURVE",
"403 675 OFFCURVE",
"403 610 CURVE SMOOTH",
"403 545 OFFCURVE",
"346 488 OFFCURVE",
"280 488 CURVE SMOOTH",
"214 488 OFFCURVE",
"157 545 OFFCURVE",
"157 610 CURVE SMOOTH",
"157 675 OFFCURVE",
"214 731 OFFCURVE",
"280 731 CURVE SMOOTH"
);
},
{
closed = 1;
nodes = (
"63 358 OFFCURVE",
"165 459 OFFCURVE",
"286 459 CURVE SMOOTH",
"406 459 OFFCURVE",
"506 358 OFFCURVE",
"506 237 CURVE SMOOTH",
"506 116 OFFCURVE",
"406 15 OFFCURVE",
"285 15 CURVE SMOOTH",
"164 15 OFFCURVE",
"63 116 OFFCURVE",
"63 237 CURVE SMOOTH"
);
}
);
width = 569;
}
);
leftKerningGroup = eight;
note = eight;
rightKerningGroup = eight;
unicode = 0038;
},
{
glyphname = asterisk;
lastChange = "2016-07-09 16:48:48 +0000";
layers = (
{
layerId = "6418A72B-B7AF-4A99-B2A7-67092BA5BFD7";
paths = (
{
closed = 1;
nodes = (
"72 720 LINE",
"55 703 LINE",
"126 633 LINE",
"35 633 LINE",
"35 609 LINE",
"140 609 LINE",
"139 617 LINE",
"59 540 LINE",
"77 521 LINE",
"146 591 LINE",
"146 501 LINE",
"171 501 LINE",
"171 590 LINE",
"238 521 LINE",
"258 541 LINE",
"178 618 LINE",
"176 609 LINE",
"278 609 LINE",
"278 633 LINE",
"191 633 LINE",
"261 703 LINE",
"243 721 LINE",
"164 639 LINE",
"171 637 LINE",
"171 743 LINE",
"146 743 LINE",
"146 637 LINE",
"154 638 LINE"
);
}
);
width = 313;
}
);
leftKerningGroup = asterisk;
note = asterisk;
rightKerningGroup = asterisk;
unicode = 002A;
},
{
glyphname = backslash;
lastChange = "2016-07-08 17:02:49 +0000";
layers = (
{
layerId = "6418A72B-B7AF-4A99-B2A7-67092BA5BFD7";
paths = (
{
closed = 1;
nodes = (
"621 0 LINE",
"63 748 LINE",
"25 748 LINE",
"583 0 LINE"
);
}
);
width = 646;
}
);
leftKerningGroup = backslash;
note = backslash;
rightKerningGroup = backslash;
unicode = 005C;
},
{
glyphname = bullet;
lastChange = "2016-07-09 16:42:29 +0000";
layers = (
{
background = {
paths = (
{
closed = 1;
nodes = (
"185 237 OFFCURVE",
"207 259 OFFCURVE",
"207 287 CURVE SMOOTH",
"207 315 OFFCURVE",
"185 337 OFFCURVE",
"158 337 CURVE SMOOTH",
"130 337 OFFCURVE",
"108 315 OFFCURVE",
"108 287 CURVE SMOOTH",
"108 259 OFFCURVE",
"130 237 OFFCURVE",
"158 237 CURVE SMOOTH"
);
}
);
};
layerId = "6418A72B-B7AF-4A99-B2A7-67092BA5BFD7";
paths = (
{
closed = 1;
nodes = (
"185 237 OFFCURVE",
"207 259 OFFCURVE",
"207 287 CURVE SMOOTH",
"207 315 OFFCURVE",
"185 337 OFFCURVE",
"158 337 CURVE SMOOTH",
"130 337 OFFCURVE",
"108 315 OFFCURVE",
"108 287 CURVE SMOOTH",
"108 259 OFFCURVE",
"130 237 OFFCURVE",
"158 237 CURVE SMOOTH"
);
}
);
width = 315;
}
);
leftKerningGroup = bullet;
note = bullet;
rightKerningGroup = bullet;
unicode = 2022;
},
{
glyphname = comma;
lastChange = "2016-07-09 16:45:20 +0000";
layers = (
{
background = {
components = (
{
name = period;
}
);
paths = (
{
closed = 1;
nodes = (
"101 8 LINE",
"103 14 OFFCURVE",
"104 19 OFFCURVE",
"104 24 CURVE",
"63 -7 LINE",
"63 -63 LINE",
"70 -63 LINE"
);
}
);
};
components = (
{
name = period;
}
);
layerId = "6418A72B-B7AF-4A99-B2A7-67092BA5BFD7";
paths = (
{
closed = 1;
nodes = (
"101 8 LINE",
"103 14 OFFCURVE",
"104 19 OFFCURVE",
"104 24 CURVE",
"63 -7 LINE",
"63 -63 LINE",
"70 -63 LINE"
);
}
);
width = 139;
}
);
leftKerningGroup = period;
note = comma;
rightKerningGroup = period;
unicode = 002C;
},
{
glyphname = exclam;
lastChange = "2016-07-09 16:45:44 +0000";
layers = (
{
components = (
{
name = period;
transform = "{1, 0, 0, 1, 16, 0}";
}
);
layerId = "6418A72B-B7AF-4A99-B2A7-67092BA5BFD7";
paths = (
{
closed = 1;
nodes = (
"102 100 LINE",
"102 750 LINE",
"69 750 LINE",
"69 100 LINE"
);
}
);
width = 170;
}
);
leftKerningGroup = exclam;
note = exclam;
rightKerningGroup = exclam;
unicode = 0021;
},
{
glyphname = numbersign;
lastChange = "2016-07-09 16:46:30 +0000";
layers = (
{
layerId = "6418A72B-B7AF-4A99-B2A7-67092BA5BFD7";
paths = (
{
closed = 1;
nodes = (
"300 488 LINE",
"414 748 LINE",
"381 748 LINE",
"267 488 LINE"
);
},
{
closed = 1;
nodes = (
"518 488 LINE",
"632 748 LINE",
"599 748 LINE",
"485 488 LINE"
);
},
{
closed = 1;
nodes = (
"219 305 LINE",
"293 473 LINE",
"260 473 LINE",
"187 305 LINE"
);
},
{
closed = 1;
nodes = (
"657 467 LINE",
"657 496 LINE",
"15 496 LINE",
"15 467 LINE"
);
},
{
closed = 1;
nodes = (
"436 305 LINE",
"510 472 LINE",
"478 472 LINE",
"404 305 LINE"
);
},
{
closed = 1;
nodes = (
"179 288 LINE",
"53 0 LINE",
"84 0 LINE",
"211 288 LINE"
);
},
{
closed = 1;
nodes = (
"397 288 LINE",
"270 0 LINE",
"302 0 LINE",
"429 288 LINE"
);
},
{
closed = 1;
nodes = (
"657 283 LINE",
"657 312 LINE",
"15 312 LINE",
"15 283 LINE"
);
}
);
width = 672;
}
);
leftKerningGroup = numbersign;
note = numbersign;
rightKerningGroup = numbersign;
unicode = 0023;
},
{
glyphname = period;
lastChange = "2016-07-09 16:42:47 +0000";
layers = (
{
background = {
paths = (
{
closed = 1;
nodes = (
"88 -9 OFFCURVE",
"104 6 OFFCURVE",
"104 26 CURVE SMOOTH",
"104 45 OFFCURVE",
"88 60 OFFCURVE",
"69 60 CURVE SMOOTH",
"50 60 OFFCURVE",
"34 45 OFFCURVE",
"34 26 CURVE SMOOTH",
"34 6 OFFCURVE",
"50 -9 OFFCURVE",
"69 -9 CURVE SMOOTH"
);
}
);
};
layerId = "6418A72B-B7AF-4A99-B2A7-67092BA5BFD7";
paths = (
{
closed = 1;
nodes = (
"88 -9 OFFCURVE",
"104 6 OFFCURVE",
"104 26 CURVE SMOOTH",
"104 45 OFFCURVE",
"88 60 OFFCURVE",
"69 60 CURVE SMOOTH",
"50 60 OFFCURVE",
"34 45 OFFCURVE",
"34 26 CURVE SMOOTH",
"34 6 OFFCURVE",
"50 -9 OFFCURVE",
"69 -9 CURVE SMOOTH"
);
}
);
width = 139;
}
);
leftKerningGroup = period;
note = period;
rightKerningGroup = period;
unicode = 002E;
},
{
glyphname = question;
lastChange = "2016-07-09 16:46:49 +0000";
layers = (
{
components = (
{
name = period;
transform = "{1, 0, 0, 1, 236, 0}";
}
);
layerId = "6418A72B-B7AF-4A99-B2A7-67092BA5BFD7";
paths = (
{
closed = 1;
nodes = (
"84 646 OFFCURVE",
"172 733 OFFCURVE",
"301 733 CURVE SMOOTH",
"430 733 OFFCURVE",
"529 638 OFFCURVE",
"529 515 CURVE SMOOTH",
"529 391 OFFCURVE",
"437 290 OFFCURVE",
"304 290 CURVE SMOOTH",
"290 290 LINE",
"290 96 LINE",
"322 96 LINE",
"322 261 LINE",
"464 270 OFFCURVE",
"561 381 OFFCURVE",
"561 520 CURVE SMOOTH",
"561 648 OFFCURVE",
"451 762 OFFCURVE",
"303 762 CURVE SMOOTH",
"154 762 OFFCURVE",
"53 659 OFFCURVE",
"45 511 CURVE",
"79 511 LINE"
);
}
);
width = 646;
}
);
leftKerningGroup = question;
note = question;
rightKerningGroup = question;
unicode = 003F;
},
{
glyphname = quotedbl;
lastChange = "2016-07-08 17:02:49 +0000";
layers = (
{
layerId = "6418A72B-B7AF-4A99-B2A7-67092BA5BFD7";
paths = (
{
closed = 1;
nodes = (
"103 810 LINE",
"70 810 LINE",
"70 631 LINE",
"103 631 LINE"
);
},
{
closed = 1;
nodes = (
"205 810 LINE",
"172 810 LINE",
"172 631 LINE",
"205 631 LINE"
);
}
);
width = 275;
}
);
leftKerningGroup = quotedbl;
note = quotedbl;
rightKerningGroup = quotedbl;
unicode = 0022;
},
{
glyphname = quotesingle;
lastChange = "2016-07-08 17:02:49 +0000";
layers = (
{
layerId = "6418A72B-B7AF-4A99-B2A7-67092BA5BFD7";
paths = (
{
closed = 1;
nodes = (
"108 810 LINE",
"75 810 LINE",
"75 632 LINE",
"108 632 LINE"
);
}
);
width = 183;
}
);
leftKerningGroup = quotesingle;
note = quotesingle;
rightKerningGroup = quotesingle;
unicode = 0027;
},
{
glyphname = slash;
lastChange = "2016-07-08 17:02:49 +0000";
layers = (
{
layerId = "6418A72B-B7AF-4A99-B2A7-67092BA5BFD7";
paths = (
{
closed = 1;
nodes = (
"62 0 LINE",
"621 748 LINE",
"582 748 LINE",
"25 0 LINE"
);
}
);
width = 646;
}
);
leftKerningGroup = slash;
note = slash;
rightKerningGroup = slash;
unicode = 002F;
},
{
glyphname = underscore;
lastChange = "2016-07-08 17:02:49 +0000";
layers = (
{
layerId = "6418A72B-B7AF-4A99-B2A7-67092BA5BFD7";
paths = (
{
closed = 1;
nodes = (
"25 31 LINE",
"25 0 LINE",
"333 0 LINE",
"333 31 LINE"
);
}
);
width = 358;
}
);
leftKerningGroup = underscore;
note = underscore;
rightKerningGroup = underscore;
unicode = 005F;
},
{
glyphname = braceleft;
lastChange = "2016-07-08 17:02:49 +0000";
layers = (
{
layerId = "6418A72B-B7AF-4A99-B2A7-67092BA5BFD7";
paths = (
{
closed = 1;
nodes = (
"167 720 OFFCURVE",
"194 766 OFFCURVE",
"237 787 CURVE",
"237 817 LINE",
"177 788 OFFCURVE",
"134 730 OFFCURVE",
"134 667 CURVE SMOOTH",
"134 506 LINE SMOOTH",
"134 447 OFFCURVE",
"90 391 OFFCURVE",
"34 375 CURVE",
"90 359 OFFCURVE",
"134 305 OFFCURVE",
"134 246 CURVE SMOOTH",
"134 77 LINE SMOOTH",
"134 14 OFFCURVE",
"177 -47 OFFCURVE",
"237 -75 CURVE",
"237 -45 LINE",
"194 -21 OFFCURVE",
"167 24 OFFCURVE",
"167 77 CURVE SMOOTH",
"167 246 LINE SMOOTH",
"167 303 OFFCURVE",
"145 346 OFFCURVE",
"100 375 CURVE",
"143 403 OFFCURVE",
"167 454 OFFCURVE",
"167 506 CURVE SMOOTH",
"167 667 LINE SMOOTH"
);
}
);
width = 257;
}
);
leftKerningGroup = braceleft;
note = braceleft;
rightKerningGroup = braceleft;
unicode = 007B;
},
{
glyphname = braceright;
lastChange = "2016-07-08 17:02:49 +0000";
layers = (
{
layerId = "6418A72B-B7AF-4A99-B2A7-67092BA5BFD7";
paths = (
{
closed = 1;
nodes = (
"125 730 OFFCURVE",
"81 788 OFFCURVE",
"20 817 CURVE",
"20 787 LINE",
"64 766 OFFCURVE",
"92 720 OFFCURVE",
"92 667 CURVE SMOOTH",
"92 506 LINE SMOOTH",
"92 454 OFFCURVE",
"117 402 OFFCURVE",
"158 375 CURVE",
"114 346 OFFCURVE",
"92 303 OFFCURVE",
"92 246 CURVE SMOOTH",
"92 77 LINE SMOOTH",
"92 22 OFFCURVE",
"68 -19 OFFCURVE",
"20 -45 CURVE",
"20 -75 LINE",
"80 -48 OFFCURVE",
"125 16 OFFCURVE",
"125 77 CURVE SMOOTH",
"125 246 LINE SMOOTH",
"125 305 OFFCURVE",
"170 359 OFFCURVE",
"223 375 CURVE",
"170 391 OFFCURVE",
"125 449 OFFCURVE",
"125 506 CURVE SMOOTH",
"125 667 LINE SMOOTH"
);
}
);
width = 257;
}
);
leftKerningGroup = braceright;
note = braceright;
rightKerningGroup = braceright;
unicode = 007D;
},
{
glyphname = bracketleft;
lastChange = "2016-07-08 17:02:49 +0000";
layers = (
{
layerId = "6418A72B-B7AF-4A99-B2A7-67092BA5BFD7";
paths = (
{
closed = 1;
nodes = (
"200 816 LINE",
"72 816 LINE",
"72 -83 LINE",
"200 -83 LINE",
"200 -54 LINE",
"105 -54 LINE",
"105 787 LINE",
"200 787 LINE"
);
}
);
width = 215;
}
);
leftKerningGroup = bracketleft;
note = bracketleft;
rightKerningGroup = bracketleft;
unicode = 005B;
},
{
glyphname = bracketright;
lastChange = "2016-07-08 17:02:49 +0000";
layers = (
{
layerId = "6418A72B-B7AF-4A99-B2A7-67092BA5BFD7";
paths = (
{
closed = 1;
nodes = (
"15 -83 LINE",
"145 -83 LINE",
"145 816 LINE",
"15 816 LINE",
"15 787 LINE",
"112 787 LINE",
"112 -54 LINE",
"15 -54 LINE"
);
}
);
width = 215;
}
);
leftKerningGroup = bracketright;
note = bracketright;
rightKerningGroup = bracketright;
unicode = 005D;
},
{
glyphname = parenleft;
lastChange = "2016-07-08 17:02:49 +0000";
layers = (
{
layerId = "6418A72B-B7AF-4A99-B2A7-67092BA5BFD7";
paths = (
{
closed = 1;
nodes = (
"188 60 OFFCURVE",
"118 205 OFFCURVE",
"118 365 CURVE SMOOTH",
"118 527 OFFCURVE",
"181 666 OFFCURVE",
"308 782 CURVE",
"308 818 LINE",
"169 705 OFFCURVE",
"85 540 OFFCURVE",
"85 368 CURVE SMOOTH",
"85 195 OFFCURVE",
"171 29 OFFCURVE",
"308 -87 CURVE",
"308 -48 LINE"
);
}
);
width = 333;
}
);
leftKerningGroup = parenleft;
note = parenleft;
rightKerningGroup = parenleft;
unicode = 0028;
},
{
glyphname = parenright;
lastChange = "2016-07-08 17:02:49 +0000";
layers = (
{
layerId = "6418A72B-B7AF-4A99-B2A7-67092BA5BFD7";
paths = (
{
closed = 1;
nodes = (
"25 779 LINE",
"146 672 OFFCURVE",
"216 525 OFFCURVE",
"216 365 CURVE SMOOTH",
"216 205 OFFCURVE",
"146 59 OFFCURVE",
"25 -48 CURVE",
"25 -86 LINE",
"164 29 OFFCURVE",
"249 193 OFFCURVE",
"249 367 CURVE SMOOTH",
"249 541 OFFCURVE",
"168 700 OFFCURVE",
"29 811 CURVE",
"25 809 LINE"
);
}
);
width = 334;
}
);
leftKerningGroup = parenright;
note = parenright;
rightKerningGroup = parenright;
unicode = 0029;
},
{
glyphname = emdash;
lastChange = "2016-07-09 03:56:52 +0000";
layers = (
{
layerId = "6418A72B-B7AF-4A99-B2A7-67092BA5BFD7";
paths = (
{
closed = 1;
nodes = (
"15 313 LINE",
"15 282 LINE",
"479 282 LINE",
"479 313 LINE"
);
}
);
width = 494;
}
);
leftKerningGroup = hyphen;
note = emdash;
rightKerningGroup = hyphen;
unicode = 2014;
},
{
glyphname = endash;
lastChange = "2016-07-09 03:56:52 +0000";
layers = (
{
layerId = "6418A72B-B7AF-4A99-B2A7-67092BA5BFD7";
paths = (
{
closed = 1;
nodes = (
"50 313 LINE",
"50 282 LINE",
"358 282 LINE",
"358 313 LINE"
);
}
);
width = 408;
}
);
leftKerningGroup = hyphen;
note = endash;
rightKerningGroup = hyphen;
unicode = 2013;
},
{
glyphname = hyphen;
lastChange = "2016-07-08 17:02:49 +0000";
layers = (
{
layerId = "6418A72B-B7AF-4A99-B2A7-67092BA5BFD7";
paths = (
{
closed = 1;
nodes = (
"40 418 LINE",
"40 387 LINE",
"351 387 LINE",
"351 418 LINE"
);
}
);
width = 391;
}
);
leftKerningGroup = hyphen;
note = hyphen;
rightKerningGroup = hyphen;
unicode = 002D;
},
{
glyphname = softhyphen;
lastChange = "2016-07-08 17:02:50 +0000";
layers = (
{
layerId = "6418A72B-B7AF-4A99-B2A7-67092BA5BFD7";
paths = (
{
closed = 1;
nodes = (
"50 313 LINE",
"50 282 LINE",
"361 282 LINE",
"361 313 LINE"
);
}
);
width = 411;
}
);
leftKerningGroup = hyphen;
note = uni00AD;
rightKerningGroup = hyphen;
unicode = 00AD;
},
{
glyphname = guillemetleft;
lastChange = "2016-07-08 17:02:50 +0000";
layers = (
{
layerId = "6418A72B-B7AF-4A99-B2A7-67092BA5BFD7";
paths = (
{
closed = 1;
nodes = (
"288 18 LINE",
"288 63 LINE",
"104 227 LINE",
"288 390 LINE",
"288 433 LINE",
"70 240 LINE",
"70 214 LINE"
);
},
{
closed = 1;
nodes = (
"463 18 LINE",
"463 63 LINE",
"279 227 LINE",
"463 390 LINE",
"463 433 LINE",
"245 240 LINE",
"245 214 LINE"
);
}
);
width = 483;
}
);
leftKerningGroup = guillemetleft;
note = guillemotleft;
rightKerningGroup = guillemetleft;
unicode = 00AB;
},
{
glyphname = guillemetright;
lastChange = "2016-07-08 17:02:50 +0000";
layers = (
{
layerId = "6418A72B-B7AF-4A99-B2A7-67092BA5BFD7";
paths = (
{
closed = 1;
nodes = (
"379 227 LINE",
"195 63 LINE",
"195 18 LINE",
"413 214 LINE",
"413 240 LINE",
"195 433 LINE",
"195 390 LINE"
);
},
{
closed = 1;
nodes = (
"204 227 LINE",
"20 63 LINE",
"20 18 LINE",
"238 214 LINE",
"238 240 LINE",
"20 433 LINE",
"20 390 LINE"
);
}
);
width = 483;
}
);
leftKerningGroup = guillemetright;
note = guillemotright;
rightKerningGroup = guillemetright;
unicode = 00BB;
},
{
glyphname = guilsinglleft;
lastChange = "2016-07-09 03:56:52 +0000";
layers = (
{
layerId = "6418A72B-B7AF-4A99-B2A7-67092BA5BFD7";
paths = (
{
closed = 1;
nodes = (
"293 18 LINE",
"293 63 LINE",
"109 227 LINE",
"293 390 LINE",
"293 433 LINE",
"75 240 LINE",
"75 214 LINE"
);
}
);
width = 313;
}
);
leftKerningGroup = guillemotleft;
note = guilsinglleft;
rightKerningGroup = guillemotleft;
unicode = 2039;
},
{
glyphname = guilsinglright;
lastChange = "2016-07-09 03:56:52 +0000";
layers = (
{
layerId = "6418A72B-B7AF-4A99-B2A7-67092BA5BFD7";
paths = (
{
closed = 1;
nodes = (
"204 227 LINE",
"20 63 LINE",
"20 18 LINE",
"238 214 LINE",
"238 240 LINE",
"20 433 LINE",
"20 390 LINE"
);
}
);
width = 313;
}
);
leftKerningGroup = guillemotright;
note = guilsinglright;
rightKerningGroup = guillemotright;
unicode = 203A;
},
{
glyphname = quotedblbase;
lastChange = "2016-07-09 03:56:52 +0000";
layers = (
{
layerId = "6418A72B-B7AF-4A99-B2A7-67092BA5BFD7";
paths = (
{
closed = 1;
nodes = (
"203 -116 OFFCURVE",
"183 -147 OFFCURVE",
"144 -165 CURVE",
"144 -200 LINE",
"201 -183 OFFCURVE",
"239 -136 OFFCURVE",
"239 -73 CURVE SMOOTH",
"239 30 LINE",
"203 30 LINE",
"203 -73 LINE SMOOTH"
);
},
{
closed = 1;
nodes = (
"79 -116 OFFCURVE",
"59 -147 OFFCURVE",
"20 -165 CURVE",
"20 -200 LINE",
"77 -183 OFFCURVE",
"115 -136 OFFCURVE",
"115 -73 CURVE SMOOTH",
"115 30 LINE",
"79 30 LINE",
"79 -73 LINE SMOOTH"
);
}
);
width = 329;
}
);
leftKerningGroup = period;
note = quotedblbase;
rightKerningGroup = period;
unicode = 201E;
},
{
glyphname = quotedblleft;
lastChange = "2016-07-09 03:56:52 +0000";
layers = (
{
layerId = "6418A72B-B7AF-4A99-B2A7-67092BA5BFD7";
paths = (
{
closed = 1;
nodes = (
"136 728 OFFCURVE",
"156 759 OFFCURVE",
"195 777 CURVE",
"195 812 LINE",
"138 795 OFFCURVE",
"100 748 OFFCURVE",
"100 685 CURVE SMOOTH",
"100 567 LINE",
"136 567 LINE",
"136 685 LINE SMOOTH"
);
},
{
closed = 1;
nodes = (
"260 728 OFFCURVE",
"280 759 OFFCURVE",
"319 777 CURVE",
"319 812 LINE",
"262 795 OFFCURVE",
"224 748 OFFCURVE",
"224 685 CURVE SMOOTH",
"224 567 LINE",
"260 567 LINE",
"260 685 LINE SMOOTH"
);
}
);
width = 344;
}
);
leftKerningGroup = quotedblleft;
note = quotedblleft;
rightKerningGroup = quotedblleft;
unicode = 201C;
},
{
glyphname = quotedblright;
lastChange = "2016-07-09 03:56:52 +0000";
layers = (
{
layerId = "6418A72B-B7AF-4A99-B2A7-67092BA5BFD7";
paths = (
{
closed = 1;
nodes = (
"208 651 OFFCURVE",
"188 620 OFFCURVE",
"149 602 CURVE",
"149 567 LINE",
"206 584 OFFCURVE",
"244 631 OFFCURVE",
"244 694 CURVE SMOOTH",
"244 810 LINE",
"208 810 LINE",
"208 694 LINE SMOOTH"
);
},
{
closed = 1;
nodes = (
"84 651 OFFCURVE",
"64 620 OFFCURVE",
"25 602 CURVE",
"25 567 LINE",
"82 584 OFFCURVE",
"120 631 OFFCURVE",
"120 694 CURVE SMOOTH",
"120 810 LINE",
"84 810 LINE",
"84 694 LINE SMOOTH"
);
}
);
width = 344;
}
);
leftKerningGroup = quotedblleft;
note = quotedblright;
rightKerningGroup = quotedblleft;
unicode = 201D;
},
{
glyphname = quoteleft;
lastChange = "2016-07-09 03:56:52 +0000";
layers = (
{
layerId = "6418A72B-B7AF-4A99-B2A7-67092BA5BFD7";
paths = (
{
closed = 1;
nodes = (
"136 728 OFFCURVE",
"156 759 OFFCURVE",
"195 777 CURVE",
"195 812 LINE",
"138 795 OFFCURVE",
"100 748 OFFCURVE",
"100 685 CURVE SMOOTH",
"100 567 LINE",
"136 567 LINE",
"136 685 LINE SMOOTH"
);
}
);
width = 220;
}
);
leftKerningGroup = quotedblleft;
note = quoteleft;
rightKerningGroup = quotedblleft;
unicode = 2018;
},
{
glyphname = quoteright;
lastChange = "2016-07-09 03:56:52 +0000";
layers = (
{
layerId = "6418A72B-B7AF-4A99-B2A7-67092BA5BFD7";
paths = (
{
closed = 1;
nodes = (
"84 652 OFFCURVE",
"64 621 OFFCURVE",
"25 603 CURVE",
"25 568 LINE",
"82 585 OFFCURVE",
"120 632 OFFCURVE",
"120 695 CURVE SMOOTH",
"120 810 LINE",
"84 810 LINE",
"84 695 LINE SMOOTH"
);
}
);
width = 220;
}
);
leftKerningGroup = quotedblleft;
note = quoteright;
rightKerningGroup = quotedblleft;
unicode = 2019;
},
{
glyphname = quotesinglbase;
lastChange = "2016-07-09 03:56:52 +0000";
layers = (
{
layerId = "6418A72B-B7AF-4A99-B2A7-67092BA5BFD7";
paths = (
{
closed = 1;
nodes = (
"79 -115 OFFCURVE",
"59 -146 OFFCURVE",
"20 -164 CURVE",
"20 -199 LINE",
"77 -182 OFFCURVE",
"115 -135 OFFCURVE",
"115 -72 CURVE SMOOTH",
"115 32 LINE",
"79 32 LINE",
"79 -72 LINE SMOOTH"
);
}
);
width = 205;
}
);
leftKerningGroup = period;
note = quotesinglbase;
rightKerningGroup = period;
unicode = 201A;
},
{
glyphname = cent;
lastChange = "2016-07-08 17:02:49 +0000";
layers = (
{
background = {
paths = (
{
closed = 1;
nodes = (
"354 -3 OFFCURVE",
"423 21 OFFCURVE",
"471 72 CURVE",
"471 126 LINE",
"430 63 OFFCURVE",
"361 25 OFFCURVE",
"273 25 CURVE SMOOTH",
"162 25 OFFCURVE",
"67 106 OFFCURVE",
"67 223 CURVE SMOOTH",
"67 326 OFFCURVE",
"166 421 OFFCURVE",
"277 421 CURVE SMOOTH",
"371 421 OFFCURVE",
"430 382 OFFCURVE",
"471 321 CURVE",
"471 375 LINE",
"423 423 OFFCURVE",
"364 449 OFFCURVE",
"277 449 CURVE SMOOTH",
"141 449 OFFCURVE",
"35 342 OFFCURVE",
"35 225 CURVE SMOOTH",
"35 103 OFFCURVE",
"141 -3 OFFCURVE",
"273 -3 CURVE SMOOTH"
);
}
);
};
layerId = "6418A72B-B7AF-4A99-B2A7-67092BA5BFD7";
paths = (
{
closed = 1;
nodes = (
"296 564 LINE",
"262 564 LINE",
"262 -155 LINE",
"296 -155 LINE"
);
},
{
closed = 1;
nodes = (
"354 -3 OFFCURVE",
"423 21 OFFCURVE",
"471 72 CURVE",
"471 126 LINE",
"430 63 OFFCURVE",
"361 25 OFFCURVE",
"273 25 CURVE SMOOTH",
"162 25 OFFCURVE",
"67 106 OFFCURVE",
"67 223 CURVE SMOOTH",
"67 346 OFFCURVE",
"166 421 OFFCURVE",
"277 421 CURVE SMOOTH",
"371 421 OFFCURVE",
"430 382 OFFCURVE",
"471 321 CURVE",
"471 375 LINE",
"423 423 OFFCURVE",
"364 449 OFFCURVE",
"277 449 CURVE SMOOTH",
"141 449 OFFCURVE",
"35 352 OFFCURVE",
"35 225 CURVE SMOOTH",
"35 93 OFFCURVE",
"141 -3 OFFCURVE",
"273 -3 CURVE SMOOTH"
);
}
);
width = 496;
}
);
leftKerningGroup = o;
leftMetricsKey = c;
note = cent;
rightKerningGroup = c;
rightMetricsKey = c;
unicode = 00A2;
},
{
glyphname = currency;
lastChange = "2016-07-08 17:02:49 +0000";
layers = (
{
background = {
anchors = (
{
name = _center;
position = "{298, 476}";
}
);
paths = (
{
closed = 1;
nodes = (
"125 226 LINE",
"61 162 LINE",
"83 139 LINE",
"148 204 LINE"
);
},
{
closed = 1;
nodes = (
"426 136 OFFCURVE",
"526 242 OFFCURVE",
"526 374 CURVE SMOOTH",
"526 501 OFFCURVE",
"420 608 OFFCURVE",
"289 608 CURVE SMOOTH",
"157 608 OFFCURVE",
"50 501 OFFCURVE",
"50 374 CURVE SMOOTH",
"50 247 OFFCURVE",
"156 136 OFFCURVE",
"290 136 CURVE SMOOTH"
);
},
{
closed = 1;
nodes = (
"494 259 OFFCURVE",
"402 164 OFFCURVE",
"290 164 CURVE SMOOTH",
"177 164 OFFCURVE",
"82 259 OFFCURVE",
"82 371 CURVE SMOOTH",
"82 483 OFFCURVE",
"177 580 OFFCURVE",
"289 580 CURVE SMOOTH",
"401 580 OFFCURVE",
"494 484 OFFCURVE",
"494 372 CURVE SMOOTH"
);
},
{
closed = 1;
nodes = (
"435 201 LINE",
"497 139 LINE",
"520 161 LINE",
"457 224 LINE"
);
},
{
closed = 1;
nodes = (
"456 512 LINE",
"520 576 LINE",
"497 598 LINE",
"433 535 LINE"
);
},
{
closed = 1;
nodes = (
"141 540 LINE",
"83 598 LINE",
"61 575 LINE",
"118 518 LINE"
);
}
);
};
layerId = "6418A72B-B7AF-4A99-B2A7-67092BA5BFD7";
paths = (
{
closed = 1;
nodes = (
"125 226 LINE",
"61 162 LINE",
"83 139 LINE",
"148 204 LINE"
);
},
{
closed = 1;
nodes = (
"426 136 OFFCURVE",
"526 242 OFFCURVE",
"526 374 CURVE SMOOTH",
"526 501 OFFCURVE",
"420 608 OFFCURVE",
"289 608 CURVE SMOOTH",
"157 608 OFFCURVE",
"50 501 OFFCURVE",
"50 374 CURVE SMOOTH",
"50 247 OFFCURVE",
"156 136 OFFCURVE",
"290 136 CURVE SMOOTH"
);
},
{
closed = 1;
nodes = (
"494 259 OFFCURVE",
"402 164 OFFCURVE",
"290 164 CURVE SMOOTH",
"177 164 OFFCURVE",
"82 259 OFFCURVE",
"82 371 CURVE SMOOTH",
"82 483 OFFCURVE",
"177 580 OFFCURVE",
"289 580 CURVE SMOOTH",
"401 580 OFFCURVE",
"494 484 OFFCURVE",
"494 372 CURVE SMOOTH"
);
},
{
closed = 1;
nodes = (
"435 201 LINE",
"497 139 LINE",
"520 161 LINE",
"457 224 LINE"
);
},
{
closed = 1;
nodes = (
"456 512 LINE",
"520 576 LINE",
"497 598 LINE",
"433 535 LINE"
);
},
{
closed = 1;
nodes = (
"141 540 LINE",
"83 598 LINE",
"61 575 LINE",
"118 518 LINE"
);
}
);
width = 576;
}
);
leftKerningGroup = currency;
note = currency;
rightKerningGroup = currency;
unicode = 00A4;
},
{
glyphname = dollar;
lastChange = "2016-07-09 16:00:38 +0000";
layers = (
{
background = {
components = (
{
name = S;
transform = "{1, 0, 0, 0.9612, 20, 14}";
}
);
paths = (
{
closed = 1;
nodes = (
"241 13 LINE",
"241 -67 LINE",
"274 -67 LINE",
"274 13 LINE"
);
},
{
closed = 1;
nodes = (
"267 741 LINE",
"267 813 LINE",
"234 813 LINE",
"234 741 LINE"
);
},
{
closed = 1;
nodes = (
"239 445 LINE",
"239 13 LINE",
"272 13 LINE",
"272 428 LINE"
);
},
{
closed = 1;
nodes = (
"269 428 LINE",
"269 741 LINE",
"236 741 LINE",
"236 445 LINE"
);
}
);
};
components = (
{
name = S;
transform = "{1, 0, 0, 0.9612, 20, 14}";
}
);
layerId = "6418A72B-B7AF-4A99-B2A7-67092BA5BFD7";
paths = (
{
closed = 1;
nodes = (
"241 13 LINE",
"241 -67 LINE",
"274 -67 LINE",
"274 13 LINE"
);
},
{
closed = 1;
nodes = (
"267 741 LINE",
"267 813 LINE",
"234 813 LINE",
"234 741 LINE"
);
},
{
closed = 1;
nodes = (
"239 445 LINE",
"239 13 LINE",
"272 13 LINE",
"272 428 LINE"
);
},
{
closed = 1;
nodes = (
"269 428 LINE",
"269 741 LINE",
"236 741 LINE",
"236 445 LINE"
);
}
);
width = 507;
}
);
leftKerningGroup = S;
note = dollar;
rightKerningGroup = S;
unicode = 0024;
},
{
color = 6;
glyphname = euro;
lastChange = "2016-07-09 15:27:01 +0000";
layers = (
{
background = {
components = (
{
name = C;
}
);
paths = (
{
closed = 1;
nodes = (
"62 421 LINE",
"507 421 LINE",
"518 450 LINE",
"67 450 LINE"
);
},
{
closed = 1;
nodes = (
"70 286 LINE",
"450 286 LINE",
"461 315 LINE",
"64 315 LINE"
);
}
);
};
components = (
{
name = C;
}
);
layerId = "6418A72B-B7AF-4A99-B2A7-67092BA5BFD7";
paths = (
{
closed = 1;
nodes = (
"62 421 LINE",
"507 421 LINE",
"518 450 LINE",
"67 450 LINE"
);
},
{
closed = 1;
nodes = (
"70 286 LINE",
"450 286 LINE",
"461 315 LINE",
"64 315 LINE"
);
}
);
width = 698;
}
);
leftKerningGroup = O;
leftMetricsKey = O;
note = Euro;
rightKerningGroup = C;
rightMetricsKey = C;
unicode = 20AC;
},
{
glyphname = florin;
lastChange = "2016-07-09 03:56:52 +0000";
layers = (
{
layerId = "6418A72B-B7AF-4A99-B2A7-67092BA5BFD7";
paths = (
{
closed = 1;
nodes = (
"121 -198 OFFCURVE",
"198 -128 OFFCURVE",
"198 -29 CURVE SMOOTH",
"198 422 LINE",
"305 422 LINE",
"305 450 LINE",
"197 450 LINE",
"197 580 LINE SMOOTH",
"197 661 OFFCURVE",
"258 721 OFFCURVE",
"337 721 CURVE",
"337 749 LINE",
"241 749 OFFCURVE",
"165 679 OFFCURVE",
"165 580 CURVE SMOOTH",
"165 450 LINE",
"66 450 LINE",
"66 422 LINE",
"165 422 LINE",
"165 -29 LINE SMOOTH",
"165 -110 OFFCURVE",
"104 -170 OFFCURVE",
"25 -170 CURVE",
"25 -198 LINE"
);
}
);
width = 362;
}
);
leftKerningGroup = florin;
note = florin;
rightKerningGroup = florin;
unicode = 0192;
},
{
glyphname = franc;
lastChange = "2016-07-09 03:56:52 +0000";
layers = (
{
layerId = "6418A72B-B7AF-4A99-B2A7-67092BA5BFD7";
paths = (
{
closed = 1;
nodes = (
"108 197 LINE",
"108 286 LINE",
"303 286 LINE",
"303 315 LINE",
"108 315 LINE",
"108 721 LINE",
"342 721 LINE",
"342 750 LINE",
"75 750 LINE",
"75 197 LINE",
"24 197 LINE",
"24 169 LINE",
"75 169 LINE",
"75 0 LINE",
"108 0 LINE",
"108 169 LINE",
"302 169 LINE",
"302 197 LINE"
);
}
);
width = 367;
}
);
leftKerningGroup = franc;
note = franc;
rightKerningGroup = franc;
unicode = 20A3;
},
{
color = 4;
glyphname = hryvnia;
lastChange = "2016-07-09 16:00:57 +0000";
layers = (
{
background = {
components = (
{
name = "_part.topbar-cy.case";
transform = "{1, 0, 0, 1, 20, -404}";
},
{
name = "_part.topbar-cy.case";
transform = "{1, 0, 0, 1, 20, -318}";
}
);
};
components = (
{
name = "_part.topbar-cy.case";
transform = "{1.2, 0, 0, 1, -9, -394}";
},
{
name = "_part.topbar-cy.case";
transform = "{1.2, 0, 0, 1, -9, -318}";
}
);
guideLines = (
{
angle = 90;
position = "{15, 458}";
}
);
layerId = "6418A72B-B7AF-4A99-B2A7-67092BA5BFD7";
paths = (
{
closed = 1;
nodes = (
"81 644 LINE",
"120 704 OFFCURVE",
"177 734 OFFCURVE",
"240 734 CURVE SMOOTH",
"304 734 OFFCURVE",
"363 697 OFFCURVE",
"363 620 CURVE SMOOTH",
"363 550 OFFCURVE",
"334 517 OFFCURVE",
"253 453 CURVE SMOOTH",
"129 367 OFFCURVE",
"50 316 OFFCURVE",
"50 183 CURVE SMOOTH",
"50 62 OFFCURVE",
"143 -14 OFFCURVE",
"264 -14 CURVE SMOOTH",
"343 -14 OFFCURVE",
"404 20 OFFCURVE",
"450 79 CURVE",
"450 143 LINE",
"413 67 OFFCURVE",
"351 15 OFFCURVE",
"256 15 CURVE SMOOTH",
"161 15 OFFCURVE",
"81 80 OFFCURVE",
"81 181 CURVE SMOOTH",
"81 295 OFFCURVE",
"144 342 OFFCURVE",
"247 412 CURVE SMOOTH",
"332 476 OFFCURVE",
"396 513 OFFCURVE",
"396 619 CURVE SMOOTH",
"396 714 OFFCURVE",
"330 765 OFFCURVE",
"240 765 CURVE SMOOTH",
"184 765 OFFCURVE",
"123 742 OFFCURVE",
"81 695 CURVE"
);
}
);
width = 498;
}
);
leftKerningGroup = hryvnia;
rightKerningGroup = hryvnia;
unicode = 20B4;
},
